<svg width="36" height="25" viewBox="0 0 36 25" fill="none" xmlns="http://www.w3.org/2000/svg">
<path d="M0 0.500122H35.9993V24.4999H0V0.500122Z" fill="white"/>
<path d="M20.2496 0.5H15.7497V10.2498H0V14.7497H15.7497V24.4994H20.2496V14.7497H35.9993V10.2498H20.2496V0.5Z" fill="#D80027"/>
<path d="M27.6875 16.6735L35.9993 21.2913V16.6735H27.6875ZM21.9126 16.6735L35.9993 24.4994V22.2865L25.8961 16.6735H21.9126ZM32.2471 24.4994L21.9126 18.7575V24.4994H32.2471Z" fill="#0052B4"/>
<path d="M21.9126 16.6735L35.9993 24.4994V22.2865L25.8961 16.6735H21.9126Z" fill="white"/>
<path d="M21.9126 16.6735L35.9993 24.4994V22.2865L25.8961 16.6735H21.9126Z" fill="#D80027"/>
<path d="M6.35198 16.6734L0 20.2023V16.6734H6.35198ZM14.0867 17.6686V24.4994H1.7923L14.0867 17.6686Z" fill="#0052B4"/>
<path d="M10.1032 16.6735L0 22.2865V24.4994L14.0867 16.6735H10.1032Z" fill="#D80027"/>
<path d="M8.31183 8.32591L0 3.70815V8.32591H8.31183ZM14.0867 8.32591L0 0.5V2.71297L10.1032 8.32591H14.0867ZM3.75222 0.5L14.0867 6.24189V0.5H3.75222Z" fill="#0052B4"/>
<path d="M14.0867 8.32591L0 0.5V2.71297L10.1032 8.32591H14.0867Z" fill="white"/>
<path d="M14.0867 8.32591L0 0.5V2.71297L10.1032 8.32591H14.0867Z" fill="#D80027"/>
<path d="M29.6473 8.32604L35.9993 4.79712V8.32604H29.6473ZM21.9126 7.33085V0.500061H34.207L21.9126 7.33085Z" fill="#0052B4"/>
<path d="M25.8961 8.32591L35.9993 2.71297V0.5L21.9126 8.32591H25.8961Z" fill="#D80027"/>
</svg>
