<svg width="714" height="714" viewBox="0 0 714 714" fill="none" xmlns="http://www.w3.org/2000/svg">
<path d="M297.345 196.072L69.9577 596.747H656.209L440.51 196.072H297.345Z" fill="#FFE18B"/>
<path d="M488.098 372.244C491.226 365.904 492.872 358.935 492.911 351.865C492.949 344.795 491.38 337.809 488.321 331.435C485.263 325.061 480.794 319.466 475.255 315.073C469.715 310.68 463.249 307.604 456.346 306.077C453.373 305.426 450.659 303.908 448.549 301.715V301.679C444.508 297.452 443.815 293.661 438.082 282.173C437.468 280.93 436.954 279.931 436.654 279.36L388.894 297.881L401.839 337.458C399.177 345.815 398.925 354.753 401.112 363.246C403.299 371.74 407.837 379.444 414.205 385.475C420.572 391.507 428.511 395.62 437.111 397.344C445.711 399.068 454.622 398.332 462.822 395.22C463.214 399.14 464.687 402.873 467.077 406.005C469.467 409.136 472.679 411.542 476.357 412.954C480.034 414.366 484.031 414.729 487.902 414.002C491.774 413.275 495.367 411.487 498.282 408.838C501.197 406.188 503.318 402.781 504.41 398.996C505.501 395.212 505.52 391.198 504.464 387.403C503.408 383.608 501.318 380.182 498.428 377.505C495.539 374.828 491.962 373.007 488.098 372.244Z" fill="#262626"/>
<path d="M347.575 396.341C360.446 396.341 370.88 385.907 370.88 373.036C370.88 360.165 360.446 349.731 347.575 349.731C334.704 349.731 324.27 360.165 324.27 373.036C324.27 385.907 334.704 396.341 347.575 396.341Z" fill="#262626"/>
<path d="M422.531 311.482C422.552 307.383 420.959 303.441 418.095 300.508C415.232 297.575 411.328 295.887 407.23 295.81L406.266 285.314C405.983 281.986 405.046 278.746 403.508 275.78C401.971 272.814 399.863 270.181 397.306 268.031C394.749 265.882 391.793 264.258 388.608 263.253C385.422 262.247 382.069 261.881 378.741 262.174L340.078 265.779C335.016 266.281 330.36 268.77 327.131 272.7C323.901 276.629 322.361 281.679 322.849 286.742L327.133 333.966C327.471 337.932 328.588 341.791 330.42 345.324C332.252 348.857 334.763 351.994 337.81 354.555C340.856 357.116 344.378 359.051 348.173 360.248C351.969 361.446 355.963 361.883 359.927 361.534L361.72 361.362L364.14 387.538L415.212 382.782L412.356 351.781H412.314L410.043 326.855C413.579 326.127 416.753 324.198 419.029 321.396C421.305 318.595 422.543 315.092 422.531 311.482Z" fill="white"/>
<path d="M406.851 318.951C405.653 318.951 404.481 318.595 403.484 317.929C402.487 317.263 401.71 316.317 401.251 315.209C400.792 314.101 400.672 312.882 400.906 311.707C401.14 310.531 401.717 309.451 402.565 308.603C403.413 307.755 404.493 307.178 405.669 306.944C406.845 306.71 408.064 306.83 409.171 307.289C410.279 307.748 411.226 308.524 411.892 309.521C412.558 310.518 412.913 311.69 412.913 312.889C412.911 314.496 412.272 316.037 411.136 317.173C409.999 318.31 408.459 318.949 406.851 318.951ZM406.851 309.669C406.217 309.669 405.598 309.857 405.07 310.209C404.543 310.562 404.132 311.062 403.89 311.648C403.647 312.234 403.583 312.878 403.707 313.5C403.831 314.122 404.136 314.693 404.585 315.142C405.033 315.59 405.604 315.895 406.226 316.019C406.848 316.143 407.493 316.079 408.078 315.837C408.664 315.594 409.165 315.183 409.517 314.656C409.869 314.129 410.057 313.509 410.057 312.875C410.052 312.028 409.712 311.217 409.111 310.619C408.511 310.022 407.699 309.685 406.851 309.683V309.669Z" fill="#262626"/>
<path d="M361.612 361.405L392.022 357.628C392.217 357.604 392.415 357.65 392.58 357.758C392.745 357.866 392.866 358.029 392.921 358.219C392.976 358.408 392.961 358.611 392.88 358.79C392.799 358.97 392.657 359.115 392.479 359.199L362.712 373.422L361.612 361.405Z" fill="#262626"/>
<path d="M402.382 315.524C402.047 315.53 401.72 315.419 401.459 315.208C401.198 314.998 401.019 314.703 400.954 314.374C400.626 312.754 400.729 311.077 401.253 309.509C401.776 307.942 402.702 306.539 403.938 305.442C405.132 304.435 406.55 303.728 408.073 303.382C409.596 303.035 411.18 303.058 412.692 303.45C413.056 303.552 413.365 303.794 413.551 304.123C413.738 304.452 413.785 304.842 413.684 305.206C413.583 305.571 413.341 305.88 413.011 306.066C412.682 306.252 412.293 306.3 411.928 306.199C410.878 305.935 409.78 305.921 408.723 306.159C407.666 306.397 406.68 306.881 405.845 307.57C404.985 308.334 404.341 309.311 403.977 310.402C403.614 311.494 403.544 312.662 403.774 313.789C403.812 313.973 403.812 314.163 403.776 314.347C403.74 314.532 403.668 314.708 403.564 314.864C403.46 315.021 403.325 315.155 403.169 315.26C403.013 315.364 402.838 315.437 402.653 315.474C402.564 315.497 402.473 315.514 402.382 315.524Z" fill="#262626"/>
<path d="M331.96 316.224C333.628 316.224 334.98 314.871 334.98 313.203C334.98 311.535 333.628 310.183 331.96 310.183C330.292 310.183 328.94 311.535 328.94 313.203C328.94 314.871 330.292 316.224 331.96 316.224Z" fill="#262626"/>
<path d="M364.183 312.489C365.851 312.489 367.203 311.137 367.203 309.469C367.203 307.801 365.851 306.449 364.183 306.449C362.515 306.449 361.163 307.801 361.163 309.469C361.163 311.137 362.515 312.489 364.183 312.489Z" fill="#262626"/>
<path d="M345.048 325.248C344.934 325.249 344.822 325.234 344.712 325.206C342.434 324.656 340.078 323.828 339.914 321.921C339.897 321.198 340.166 320.497 340.664 319.972C340.806 319.786 340.971 319.572 341.149 319.294C341.816 318.225 342.154 316.983 342.12 315.724L342.056 302.558C342.056 302.179 342.206 301.816 342.474 301.548C342.742 301.28 343.105 301.13 343.484 301.13C343.863 301.13 344.226 301.28 344.494 301.548C344.762 301.816 344.912 302.179 344.912 302.558L344.976 315.724C344.995 317.513 344.5 319.27 343.548 320.786C343.32 321.136 343.134 321.393 342.97 321.607C343.728 321.975 344.529 322.246 345.355 322.414C345.699 322.492 346.001 322.695 346.205 322.983C346.408 323.271 346.498 323.625 346.456 323.975C346.414 324.325 346.244 324.648 345.979 324.88C345.714 325.113 345.372 325.239 345.019 325.234L345.048 325.248Z" fill="#262626"/>
<path d="M349.96 337.822C348.03 337.795 346.129 337.346 344.391 336.508C344.054 336.335 343.799 336.035 343.683 335.674C343.568 335.313 343.6 334.921 343.773 334.584C343.946 334.247 344.246 333.993 344.607 333.877C344.968 333.761 345.36 333.793 345.697 333.966C345.74 333.966 349.032 335.637 352.002 334.68C352.812 334.386 353.555 333.93 354.183 333.339C354.811 332.749 355.313 332.037 355.658 331.246C355.735 331.068 355.848 330.907 355.989 330.774C356.13 330.64 356.298 330.537 356.48 330.471C356.663 330.405 356.857 330.376 357.051 330.387C357.245 330.399 357.435 330.449 357.608 330.536C357.782 330.624 357.936 330.745 358.061 330.894C358.186 331.043 358.28 331.215 358.336 331.401C358.392 331.587 358.409 331.783 358.387 331.976C358.365 332.169 358.303 332.356 358.207 332.524C357.699 333.659 356.964 334.678 356.047 335.517C355.129 336.356 354.049 336.997 352.873 337.401C351.93 337.694 350.947 337.836 349.96 337.822Z" fill="#262626"/>
<path d="M413.778 367.808L362.104 372.575L364.298 396.357L415.972 391.591L413.778 367.808Z" fill="#F9B800"/>
<path d="M340.814 267.593C345.355 267.236 349.689 270.97 352.238 274.29C356.522 279.888 358.328 286.714 361.627 292.854C368.174 304.992 384.118 306.513 395.734 301.458L439.503 285.129C438.417 281.637 432.805 261.895 412.735 252.342C403.448 247.998 393.09 246.479 382.947 247.972L346.111 249.9C341.824 250.093 337.652 251.351 333.973 253.563C327.312 257.668 320.029 266.415 322.607 284.886C323.194 280.345 325.328 276.145 328.649 272.992C331.971 269.84 336.276 267.928 340.842 267.579L340.814 267.593Z" fill="#262626"/>
<path d="M325.734 390.03C325.734 390.03 309.169 392.35 298.288 425.601C295.596 433.826 292.74 441.966 289.441 449.991L267.115 500.642L283.372 570.536L319.822 546.831L307.648 515.351C300.808 498.929 298.795 480.422 303.957 463.414L325.734 390.03Z" fill="white"/>
<path d="M468.541 525.133L316.837 542.904C310.033 526.032 308.726 524.483 301.929 507.625C296.368 493.848 295.646 478.591 299.88 464.35L321.107 393.2C321.573 391.62 322.525 390.226 323.827 389.216C325.129 388.207 326.715 387.632 328.361 387.573L462.194 382.483C465.457 441.066 465.314 466.549 468.541 525.133Z" fill="#F9B800"/>
<path d="M304.614 336.687C309.355 339.4 312.132 344.355 314.61 349.025C317.478 354.389 319.99 359.937 322.128 365.632C326.408 376.994 329.157 388.874 330.304 400.961C331.43 412.788 330.862 424.716 328.619 436.382C326.487 447.335 322.852 457.941 317.816 467.898C312.78 477.889 306.299 487.082 298.581 495.18C297.629 496.194 296.638 497.189 295.61 498.165C293.625 500.086 296.653 503.113 298.638 501.192C306.959 493.103 314.029 483.819 319.615 473.646C325.234 463.478 329.406 452.574 332.01 441.252C334.714 429.344 335.697 417.11 334.93 404.924C334.145 392.322 331.654 379.885 327.526 367.953C325.441 361.9 322.958 355.992 320.093 350.267C317.516 345.112 314.76 339.593 310.426 335.673C309.319 334.66 308.105 333.772 306.806 333.024C304.407 331.653 302.25 335.351 304.664 336.722L304.614 336.687Z" fill="white"/>
<path d="M412.185 584.766C411.651 568.548 414.798 552.42 421.389 537.592C427.932 522.688 437.704 509.424 449.999 498.758C456.425 493.238 463.793 487.726 472.261 486.048C476.015 485.286 479.908 485.597 483.492 486.948C484.962 487.552 486.366 488.303 487.683 489.19C489.01 490.099 490.242 491.14 491.361 492.296C496.294 497.294 499.6 504.005 501.956 510.574C505.098 519.371 507.168 528.646 508.839 537.82C512.384 557.293 513.285 577.155 511.517 596.868C511.298 599.339 511.036 601.804 510.731 604.265C510.589 605.415 511.817 606.407 512.873 606.407C513.437 606.395 513.975 606.165 514.374 605.766C514.773 605.367 515.003 604.829 515.015 604.265C517.505 583.788 517.159 563.065 513.987 542.683C512.491 532.8 510.293 523.037 507.411 513.466C505.148 506.026 502.021 498.693 497.222 492.524C492.532 486.477 486.027 482.086 478.266 481.414C468.848 480.608 459.952 485.648 452.69 491.111C439.123 501.385 428.069 514.611 420.368 529.788C412.586 544.933 408.311 561.633 407.858 578.654C407.808 580.689 407.858 582.717 407.901 584.752C407.994 587.501 412.278 587.515 412.185 584.752V584.766Z" fill="white"/>
<path d="M333.716 548.459C331.724 536.864 331.768 525.01 333.845 513.43C335.737 502.884 339.143 492.417 344.755 483.242C347.277 479.056 350.367 475.241 353.937 471.904C355.665 470.316 357.528 468.883 359.506 467.62C361.352 466.425 363.308 465.409 365.347 464.585C369.393 463.003 373.713 462.241 378.056 462.343C382.169 462.393 386.225 463.31 389.958 465.035C393.835 466.837 397.105 469.727 399.369 473.353C402.018 477.673 403.067 482.964 401.511 487.719C400.824 489.796 399.654 491.68 398.098 493.217C396.584 494.702 394.478 496.073 392.25 496.266C391.322 496.332 390.39 496.181 389.531 495.822C388.672 495.464 387.908 494.909 387.302 494.202C385.873 492.652 384.826 490.789 384.246 488.761C381.048 478.23 385.596 466.72 391.015 457.767C396.326 449.141 403.152 441.546 411.164 435.347C419.524 428.874 428.845 423.748 438.789 420.153C449.785 416.191 461.238 413.632 472.875 412.535C475.731 412.249 478.587 412.035 481.443 411.892C482.007 411.878 482.543 411.647 482.942 411.249C483.34 410.85 483.571 410.314 483.585 409.75C483.585 409.182 483.359 408.637 482.958 408.236C482.556 407.834 482.011 407.608 481.443 407.608C468.942 408.15 456.553 410.2 444.544 413.713C433.296 417.018 422.64 422.079 412.97 428.707C403.897 434.957 396.022 442.788 389.723 451.826C383.19 461.351 377.777 473.203 379.155 485.027C379.769 490.318 381.69 495.859 386.295 498.95C391.222 502.235 397.42 499.964 401.254 496.094C403.17 494.103 404.623 491.713 405.508 489.095C406.393 486.477 406.688 483.696 406.373 480.95C405.698 475.318 403.085 470.096 398.983 466.178C392.086 459.545 381.976 457.188 372.658 458.402C362.305 459.752 353.33 465.464 346.64 473.353C339.5 481.8 334.859 492.132 331.881 502.727C328.456 514.932 327.246 527.652 328.311 540.284C328.576 543.418 329.025 546.553 329.525 549.659C329.677 550.206 330.04 550.67 330.534 550.95C331.028 551.23 331.613 551.302 332.16 551.151C332.702 550.991 333.161 550.627 333.441 550.136C333.72 549.645 333.799 549.064 333.659 548.516L333.716 548.459Z" fill="white"/>
<path d="M547.517 518.535H547.595L536.735 493.26L513.887 440.031C510.598 432.377 507.309 424.718 504.02 417.055C499.536 406.623 495.88 395.335 486.427 388.223C474.289 379.105 455.939 377.228 443.43 386.645C432.784 394.656 429.864 409.208 430.056 421.874C430.314 436.233 435.054 450.198 441.295 462.979C447.721 476.145 453.004 489.854 458.909 503.27L468.548 525.161L323.97 542.069C319.174 542.625 314.492 543.919 310.09 545.903C304.021 548.65 297.847 551.601 291.569 554.757C287.89 556.603 284.296 558.465 280.788 560.34L289.863 596.754H496.094C536.642 596.754 563.432 555.171 547.517 518.535Z" fill="white"/>
<path d="M608.714 487.376H560.162C557.867 487.375 555.667 486.462 554.045 484.84C552.422 483.217 551.51 481.017 551.508 478.723V430.128C551.51 427.833 552.422 425.633 554.045 424.011C555.667 422.388 557.867 421.476 560.162 421.474H608.714C611.008 421.476 613.208 422.388 614.831 424.011C616.453 425.633 617.365 427.833 617.367 430.128V478.723C617.365 481.017 616.453 483.217 614.831 484.84C613.208 486.462 611.008 487.375 608.714 487.376ZM560.162 424.33C558.624 424.332 557.151 424.944 556.064 426.03C554.977 427.117 554.366 428.591 554.364 430.128V478.723C554.366 480.26 554.977 481.733 556.064 482.82C557.151 483.907 558.624 484.519 560.162 484.52H608.714C610.251 484.519 611.724 483.907 612.811 482.82C613.898 481.733 614.509 480.26 614.511 478.723V430.128C614.509 428.591 613.898 427.117 612.811 426.03C611.724 424.944 610.251 424.332 608.714 424.33H560.162Z" fill="#262626"/>
<path d="M573.592 449.106C572.118 449.106 570.676 448.669 569.451 447.85C568.225 447.031 567.269 445.867 566.705 444.505C566.141 443.142 565.993 441.644 566.281 440.198C566.569 438.752 567.279 437.424 568.321 436.381C569.363 435.339 570.692 434.629 572.138 434.341C573.584 434.053 575.082 434.201 576.444 434.765C577.807 435.329 578.971 436.285 579.79 437.511C580.609 438.736 581.046 440.178 581.046 441.652C581.044 443.628 580.258 445.523 578.861 446.921C577.463 448.318 575.568 449.104 573.592 449.106ZM573.592 437.054C572.682 437.054 571.793 437.323 571.037 437.829C570.281 438.334 569.692 439.052 569.344 439.892C568.996 440.732 568.905 441.657 569.082 442.549C569.259 443.441 569.697 444.26 570.34 444.903C570.984 445.546 571.803 445.984 572.695 446.162C573.587 446.339 574.511 446.248 575.351 445.9C576.192 445.552 576.91 444.963 577.415 444.207C577.92 443.45 578.19 442.561 578.19 441.652C578.182 440.437 577.695 439.274 576.834 438.416C575.972 437.559 574.807 437.077 573.592 437.075V437.054Z" fill="#262626"/>
<path d="M595.248 472.232C593.772 472.232 592.329 471.794 591.103 470.974C589.876 470.153 588.921 468.987 588.357 467.623C587.794 466.258 587.649 464.758 587.939 463.311C588.23 461.864 588.943 460.536 589.989 459.495C591.035 458.454 592.367 457.747 593.815 457.463C595.264 457.179 596.763 457.332 598.125 457.902C599.486 458.471 600.648 459.432 601.463 460.663C602.278 461.893 602.709 463.338 602.702 464.814C602.69 466.784 601.9 468.67 600.504 470.06C599.107 471.45 597.218 472.231 595.248 472.232ZM595.248 460.18C594.338 460.18 593.449 460.45 592.693 460.955C591.937 461.46 591.347 462.178 590.999 463.019C590.651 463.859 590.56 464.783 590.738 465.675C590.915 466.567 591.353 467.387 591.996 468.03C592.639 468.673 593.459 469.111 594.351 469.288C595.242 469.465 596.167 469.374 597.007 469.026C597.847 468.678 598.566 468.089 599.071 467.333C599.576 466.577 599.846 465.688 599.846 464.778C599.844 463.559 599.359 462.391 598.497 461.529C597.635 460.667 596.466 460.182 595.248 460.18Z" fill="#262626"/>
<path d="M570.179 476.659C569.927 476.657 569.68 476.585 569.465 476.452C569.142 476.257 568.909 475.941 568.818 475.574C568.727 475.208 568.785 474.82 568.979 474.496L594.048 432.877C594.145 432.716 594.273 432.576 594.424 432.464C594.575 432.353 594.747 432.272 594.929 432.227C595.111 432.182 595.301 432.174 595.487 432.202C595.672 432.23 595.851 432.294 596.011 432.391C596.172 432.488 596.312 432.616 596.424 432.767C596.535 432.918 596.616 433.09 596.661 433.272C596.706 433.455 596.715 433.644 596.687 433.83C596.658 434.016 596.594 434.194 596.497 434.355L571.428 475.967C571.299 476.182 571.116 476.359 570.897 476.48C570.677 476.602 570.43 476.664 570.179 476.659Z" fill="#262626"/>
<path d="M686.154 385.146H531.866C528.457 385.146 525.188 383.792 522.778 381.382C520.368 378.971 519.014 375.702 519.014 372.294V251.771C519.014 248.362 520.368 245.093 522.778 242.683C525.188 240.273 528.457 238.919 531.866 238.919H686.154C689.563 238.919 692.831 240.273 695.242 242.683C697.652 245.093 699.006 248.362 699.006 251.771V372.308C699.002 375.714 697.646 378.98 695.237 381.387C692.827 383.794 689.56 385.146 686.154 385.146ZM531.866 241.789C529.215 241.789 526.672 242.842 524.797 244.717C522.923 246.591 521.87 249.134 521.87 251.785V372.308C521.87 374.959 522.923 377.502 524.797 379.376C526.672 381.251 529.215 382.304 531.866 382.304H686.154C688.805 382.304 691.348 381.251 693.222 379.376C695.097 377.502 696.15 374.959 696.15 372.308V251.771C696.15 249.12 695.097 246.577 693.222 244.702C691.348 242.828 688.805 241.775 686.154 241.775L531.866 241.789Z" fill="#262626"/>
<path d="M601.759 267.157H546.638C543.074 267.157 540.184 270.047 540.184 273.612V357.7C540.184 361.264 543.074 364.154 546.638 364.154H601.759C605.324 364.154 608.214 361.264 608.214 357.7V273.612C608.214 270.047 605.324 267.157 601.759 267.157Z" fill="#F9B800"/>
<path d="M646.948 270.156H632.59C630.61 270.156 629.005 271.761 629.005 273.74V288.099C629.005 290.078 630.61 291.683 632.59 291.683H646.948C648.928 291.683 650.532 290.078 650.532 288.099V273.74C650.532 271.761 648.928 270.156 646.948 270.156Z" fill="#FFF1C9"/>
<path d="M678.457 270.156H664.099C662.119 270.156 660.514 271.761 660.514 273.74V288.099C660.514 290.078 662.119 291.683 664.099 291.683H678.457C680.437 291.683 682.041 290.078 682.041 288.099V273.74C682.041 271.761 680.437 270.156 678.457 270.156Z" fill="#FFF1C9"/>
<path d="M682.034 309.419H630.376C629.998 309.419 629.634 309.269 629.367 309.001C629.099 308.733 628.948 308.37 628.948 307.991C628.948 307.612 629.099 307.249 629.367 306.981C629.634 306.713 629.998 306.563 630.376 306.563H682.034C682.413 306.563 682.776 306.713 683.044 306.981C683.312 307.249 683.462 307.612 683.462 307.991C683.462 308.37 683.312 308.733 683.044 309.001C682.776 309.269 682.413 309.419 682.034 309.419Z" fill="#262626"/>
<path d="M682.034 323.949H630.376C629.998 323.949 629.634 323.798 629.367 323.531C629.099 323.263 628.948 322.9 628.948 322.521C628.948 322.142 629.099 321.779 629.367 321.511C629.634 321.243 629.998 321.093 630.376 321.093H682.034C682.413 321.093 682.776 321.243 683.044 321.511C683.312 321.779 683.462 322.142 683.462 322.521C683.462 322.9 683.312 323.263 683.044 323.531C682.776 323.798 682.413 323.949 682.034 323.949Z" fill="#262626"/>
<path d="M666.583 339.471H630.376C629.998 339.471 629.634 339.321 629.367 339.053C629.099 338.785 628.948 338.422 628.948 338.043C628.948 337.665 629.099 337.301 629.367 337.033C629.634 336.766 629.998 336.615 630.376 336.615H666.583C666.962 336.615 667.325 336.766 667.593 337.033C667.861 337.301 668.011 337.665 668.011 338.043C668.011 338.422 667.861 338.785 667.593 339.053C667.325 339.321 666.962 339.471 666.583 339.471Z" fill="#262626"/>
<path d="M582.46 295.353V298.923C582.459 300.713 581.765 302.432 580.522 303.72C579.28 305.007 577.586 305.763 575.798 305.828C575.377 305.828 574.97 305.828 574.563 305.828C572.726 305.77 570.984 304.999 569.707 303.678C568.43 302.356 567.718 300.589 567.723 298.752V295.36C567.723 294.277 567.293 293.238 566.527 292.472C565.761 291.707 564.722 291.276 563.639 291.276C562.556 291.276 561.517 291.707 560.751 292.472C559.985 293.238 559.555 294.277 559.555 295.36V332.438C559.555 333.123 559.689 333.801 559.951 334.433C560.213 335.065 560.597 335.64 561.081 336.124C561.565 336.608 562.14 336.992 562.772 337.254C563.405 337.516 564.082 337.651 564.767 337.651H585.416C586.1 337.651 586.778 337.516 587.41 337.254C588.043 336.992 588.617 336.608 589.101 336.124C589.585 335.64 589.969 335.065 590.231 334.433C590.493 333.801 590.628 333.123 590.628 332.438V295.353C590.628 294.27 590.198 293.231 589.432 292.465C588.666 291.699 587.627 291.269 586.544 291.269C585.461 291.269 584.422 291.699 583.656 292.465C582.89 293.231 582.46 294.27 582.46 295.353Z" fill="white"/>
<path d="M496.944 511.602C496.944 508.154 484.72 505.355 469.633 505.355C454.547 505.355 442.323 508.154 442.323 511.602L439.388 542.419C446.229 541.305 455.81 541.233 464.264 546.489C467.278 548.418 470.605 549.808 474.096 550.594C479.972 551.829 488.819 552.122 499.464 547.609L496.944 511.602Z" fill="white"/>
<path d="M481.8 552.807C479.111 552.81 476.429 552.538 473.796 551.993C470.148 551.169 466.669 549.719 463.515 547.709C455.304 542.626 445.986 542.797 439.617 543.832L437.789 544.132L440.902 511.531C441.059 505.526 459.737 503.934 469.634 503.934C479.53 503.934 498.251 505.512 498.372 511.545L500.957 548.531L500.014 548.923C494.268 551.435 488.072 552.757 481.8 552.807ZM446.671 540.384C453.125 540.269 459.481 541.963 465.021 545.275C467.89 547.115 471.058 548.441 474.382 549.195C479.608 550.294 487.883 550.722 497.944 546.681L495.516 511.602C495.516 510.446 487.733 506.783 469.634 506.783C451.534 506.783 443.751 510.446 443.751 511.602V511.738L440.981 540.748C442.868 540.508 444.769 540.386 446.671 540.384Z" fill="#262626"/>
<path d="M501.349 545.082C490.018 549.594 480.593 549.302 474.339 548.066C470.652 547.282 467.121 545.895 463.886 543.961C454.839 538.699 444.679 538.777 437.396 539.884L434.419 569.208C434.038 572.943 434.446 576.716 435.614 580.284C436.783 583.851 438.687 587.134 441.204 589.92C443.721 592.706 446.794 594.933 450.225 596.457C453.656 597.981 457.368 598.768 461.123 598.768H476.424C480.117 598.768 483.77 598.006 487.155 596.53C490.54 595.054 493.585 592.896 496.098 590.19C498.611 587.484 500.538 584.289 501.76 580.804C502.982 577.319 503.472 573.619 503.199 569.936L501.349 545.082Z" fill="#F9B800"/>
<path d="M467.463 580.239H467.334C466.958 580.205 466.61 580.022 466.368 579.732C466.125 579.441 466.008 579.067 466.042 578.69L474.931 480.301C475.059 478.806 475.744 477.414 476.852 476.401C477.959 475.389 479.407 474.831 480.907 474.838H502.056C502.435 474.838 502.798 474.989 503.066 475.257C503.334 475.525 503.484 475.888 503.484 476.266C503.484 476.645 503.334 477.008 503.066 477.276C502.798 477.544 502.435 477.694 502.056 477.694H480.907C480.123 477.693 479.366 477.985 478.786 478.514C478.206 479.042 477.844 479.769 477.773 480.55L468.884 578.94C468.852 579.294 468.688 579.624 468.425 579.865C468.162 580.105 467.819 580.239 467.463 580.239Z" fill="#262626"/>
<path d="M469.576 519.078C468.755 519.078 467.934 519.078 467.12 519.035C458.331 518.703 449.696 516.618 441.723 512.902C441.553 512.823 441.4 512.711 441.273 512.572C441.146 512.434 441.048 512.272 440.984 512.096C440.919 511.919 440.89 511.732 440.898 511.545C440.907 511.357 440.951 511.173 441.031 511.003C441.11 510.833 441.222 510.68 441.36 510.553C441.499 510.426 441.661 510.327 441.837 510.263C442.013 510.199 442.201 510.17 442.388 510.178C442.576 510.186 442.76 510.231 442.93 510.31C450.55 513.865 458.804 515.861 467.206 516.179C477.238 516.54 487.214 514.529 496.323 510.31C496.493 510.23 496.678 510.184 496.866 510.176C497.054 510.167 497.242 510.196 497.419 510.26C497.596 510.324 497.759 510.423 497.897 510.55C498.036 510.678 498.148 510.831 498.227 511.002C498.306 511.173 498.351 511.358 498.358 511.546C498.365 511.734 498.336 511.922 498.27 512.099C498.205 512.275 498.105 512.437 497.976 512.575C497.848 512.713 497.694 512.824 497.522 512.902C488.762 516.953 479.228 519.06 469.576 519.078Z" fill="#262626"/>
<path d="M379.312 388.095C378.948 388.095 378.597 387.957 378.332 387.707C378.066 387.458 377.906 387.116 377.884 386.752L377.042 372.23C377.02 371.851 377.15 371.479 377.402 371.196C377.655 370.913 378.009 370.741 378.388 370.72C378.767 370.698 379.138 370.827 379.422 371.08C379.705 371.332 379.876 371.687 379.898 372.065L380.74 386.581C380.752 386.769 380.727 386.957 380.665 387.134C380.604 387.312 380.508 387.476 380.384 387.617C380.259 387.757 380.108 387.872 379.939 387.954C379.769 388.036 379.586 388.084 379.398 388.095H379.312Z" fill="#262626"/>
<path d="M393.792 387.038C393.428 387.039 393.077 386.9 392.812 386.65C392.546 386.401 392.386 386.059 392.364 385.696L391.522 371.173C391.511 370.985 391.537 370.798 391.599 370.62C391.661 370.443 391.757 370.279 391.882 370.139C392.007 369.999 392.158 369.885 392.328 369.803C392.497 369.721 392.68 369.674 392.868 369.663C393.055 369.652 393.243 369.678 393.42 369.74C393.598 369.802 393.761 369.898 393.902 370.023C394.042 370.148 394.156 370.299 394.238 370.468C394.319 370.638 394.367 370.821 394.378 371.009L395.22 385.56C395.232 385.748 395.206 385.936 395.145 386.113C395.084 386.291 394.988 386.455 394.864 386.596C394.739 386.736 394.588 386.851 394.418 386.933C394.249 387.015 394.066 387.063 393.878 387.074L393.792 387.038Z" fill="#262626"/>
<path d="M245.894 389.908H94.4122C91.7611 389.908 89.2186 388.855 87.344 386.981C85.4694 385.106 84.4162 382.563 84.4162 379.912V283.222C84.4162 280.571 85.4694 278.029 87.344 276.154C89.2186 274.28 91.7611 273.226 94.4122 273.226H245.894C248.546 273.226 251.088 274.28 252.963 276.154C254.837 278.029 255.89 280.571 255.89 283.222V379.891C255.893 381.205 255.637 382.507 255.136 383.723C254.635 384.938 253.899 386.042 252.97 386.973C252.042 387.903 250.939 388.642 249.725 389.145C248.511 389.649 247.209 389.908 245.894 389.908ZM94.4122 276.061C92.5186 276.061 90.7025 276.813 89.3635 278.152C88.0245 279.491 87.2722 281.307 87.2722 283.201V379.891C87.2722 381.785 88.0245 383.601 89.3635 384.94C90.7025 386.279 92.5186 387.031 94.4122 387.031H245.894C247.788 387.031 249.604 386.279 250.943 384.94C252.282 383.601 253.034 381.785 253.034 379.891V283.222C253.034 281.329 252.282 279.513 250.943 278.174C249.604 276.835 247.788 276.082 245.894 276.082L94.4122 276.061Z" fill="#262626"/>
<path d="M232.286 346.354H168.126C165.054 346.354 162.564 348.844 162.564 351.916V353.937C162.564 357.009 165.054 359.499 168.126 359.499H232.286C235.357 359.499 237.848 357.009 237.848 353.937V351.916C237.848 348.844 235.357 346.354 232.286 346.354Z" fill="#FFBB45"/>
<path d="M234.706 313.089H165.705C165.326 313.089 164.963 312.939 164.695 312.671C164.428 312.403 164.277 312.04 164.277 311.661C164.277 311.282 164.428 310.919 164.695 310.651C164.963 310.383 165.326 310.233 165.705 310.233H234.706C235.085 310.233 235.448 310.383 235.716 310.651C235.984 310.919 236.134 311.282 236.134 311.661C236.134 312.04 235.984 312.403 235.716 312.671C235.448 312.939 235.085 313.089 234.706 313.089Z" fill="#262626"/>
<path d="M224.989 328.704H165.727C165.348 328.704 164.985 328.554 164.717 328.286C164.449 328.018 164.299 327.655 164.299 327.276C164.299 326.897 164.449 326.534 164.717 326.266C164.985 325.999 165.348 325.848 165.727 325.848H224.989C225.367 325.848 225.73 325.999 225.998 326.266C226.266 326.534 226.417 326.897 226.417 327.276C226.417 327.655 226.266 328.018 225.998 328.286C225.73 328.554 225.367 328.704 224.989 328.704Z" fill="#262626"/>
<path d="M116.625 314.631C116.246 314.631 115.883 314.481 115.615 314.213C115.347 313.945 115.197 313.582 115.197 313.203C115.075 308.205 116.939 305.185 118.524 303.543C120.291 301.69 122.712 300.6 125.271 300.508C127.77 300.551 130.151 301.577 131.897 303.364C133.518 304.992 135.467 308.02 135.382 313.189C135.382 313.568 135.231 313.931 134.963 314.199C134.695 314.466 134.332 314.617 133.954 314.617C133.575 314.617 133.212 314.466 132.944 314.199C132.676 313.931 132.526 313.568 132.526 313.189C132.576 309.012 131.098 306.656 129.877 305.413C128.66 304.184 127.021 303.463 125.293 303.4C123.5 303.471 121.807 304.24 120.573 305.542C118.845 307.327 117.974 309.955 118.053 313.146C118.053 313.525 117.902 313.888 117.635 314.156C117.367 314.424 117.003 314.574 116.625 314.574V314.631Z" fill="#262626"/>
<path d="M142.736 361.284H108.007C107.156 361.284 106.314 361.103 105.539 360.751C104.764 360.4 104.073 359.887 103.513 359.247C102.952 358.606 102.535 357.853 102.289 357.039C102.043 356.224 101.975 355.366 102.088 354.522L106.929 318.408C107.122 316.976 107.829 315.663 108.917 314.712C110.006 313.761 111.402 313.238 112.848 313.239H137.088C138.511 313.237 139.887 313.744 140.969 314.669C142.051 315.593 142.766 316.874 142.986 318.28L148.648 354.394C148.782 355.247 148.73 356.119 148.494 356.949C148.258 357.78 147.845 358.549 147.283 359.204C146.721 359.86 146.023 360.385 145.238 360.744C144.453 361.103 143.599 361.287 142.736 361.284Z" fill="#FFF1C9"/>
<path d="M396.206 598.439H280.788V573.485H396.206C397.8 573.485 399.329 574.118 400.457 575.246C401.584 576.373 402.218 577.902 402.218 579.497V592.42C402.219 593.21 402.064 593.993 401.762 594.723C401.46 595.453 401.018 596.117 400.459 596.676C399.901 597.235 399.238 597.678 398.508 597.981C397.778 598.283 396.996 598.439 396.206 598.439Z" fill="#262626"/>
<path d="M293.818 598.439H158.544C156.022 598.463 153.56 597.672 151.525 596.183C149.49 594.694 147.99 592.588 147.248 590.178L114.126 477.88C111.984 470.605 117.617 463.357 125.421 463.357H252.999C255.631 463.327 258.196 464.188 260.277 465.801C262.358 467.413 263.832 469.683 264.458 472.24L293.818 598.439Z" fill="#262626"/>
<path d="M195.572 560.29C205.923 560.29 214.314 551.899 214.314 541.548C214.314 531.196 205.923 522.805 195.572 522.805C185.221 522.805 176.829 531.196 176.829 541.548C176.829 551.899 185.221 560.29 195.572 560.29Z" fill="#FFF1C9"/>
<path d="M191.452 528.224C191.132 528.224 190.822 528.116 190.571 527.918C190.319 527.719 190.142 527.443 190.067 527.132L187.825 517.95C187.78 517.767 187.772 517.578 187.801 517.393C187.829 517.207 187.894 517.029 187.992 516.869C188.189 516.545 188.506 516.312 188.874 516.222C189.243 516.132 189.632 516.192 189.956 516.389C190.28 516.586 190.512 516.903 190.602 517.272L192.844 526.454C192.889 526.636 192.897 526.825 192.869 527.011C192.84 527.197 192.775 527.375 192.678 527.535C192.58 527.696 192.452 527.835 192.301 527.946C192.149 528.057 191.977 528.137 191.795 528.181C191.683 528.21 191.568 528.224 191.452 528.224Z" fill="#F9B800"/>
<path d="M656.209 598.182H90.1925C89.8138 598.182 89.4505 598.032 89.1827 597.764C88.9149 597.496 88.7645 597.133 88.7645 596.754C88.7645 596.375 88.9149 596.012 89.1827 595.744C89.4505 595.477 89.8138 595.326 90.1925 595.326H656.209C656.587 595.326 656.951 595.477 657.219 595.744C657.486 596.012 657.637 596.375 657.637 596.754C657.637 597.133 657.486 597.496 657.219 597.764C656.951 598.032 656.587 598.182 656.209 598.182Z" fill="#262626"/>
<path d="M368.924 214.643C364.114 214.65 359.41 213.23 355.407 210.563C351.405 207.896 348.283 204.101 346.437 199.659C344.592 195.218 344.105 190.328 345.039 185.61C345.973 180.892 348.286 176.556 351.685 173.153C355.083 169.749 359.415 167.43 364.132 166.489C368.849 165.548 373.739 166.027 378.184 167.866C382.628 169.706 386.427 172.822 389.1 176.82C391.773 180.819 393.2 185.521 393.2 190.331C393.19 196.77 390.631 202.943 386.081 207.499C381.532 212.055 375.363 214.624 368.924 214.643ZM368.924 168.875C364.687 168.875 360.546 170.132 357.024 172.485C353.501 174.839 350.756 178.184 349.134 182.098C347.513 186.012 347.089 190.319 347.915 194.474C348.742 198.629 350.782 202.446 353.778 205.442C356.773 208.437 360.59 210.477 364.745 211.304C368.9 212.13 373.207 211.706 377.121 210.085C381.035 208.464 384.38 205.718 386.734 202.196C389.088 198.673 390.344 194.532 390.344 190.295C390.329 184.619 388.067 179.179 384.053 175.166C380.04 171.152 374.6 168.89 368.924 168.875Z" fill="white"/>
<path d="M369.931 105.708H367.924C364.864 105.708 362.384 108.188 362.384 111.248V157.044C362.384 160.104 364.864 162.585 367.924 162.585H369.931C372.991 162.585 375.471 160.104 375.471 157.044V111.248C375.471 108.188 372.991 105.708 369.931 105.708Z" fill="#262626"/>
<path d="M367.881 146.72C352.766 146.948 337.992 151.246 325.113 159.162C312.234 167.078 301.726 178.319 294.696 191.702C294.455 192.158 294.336 192.669 294.35 193.185C294.365 193.701 294.512 194.205 294.779 194.647C295.046 195.089 295.422 195.454 295.872 195.708C296.321 195.961 296.829 196.094 297.345 196.093H440.538C441.054 196.093 441.56 195.959 442.009 195.705C442.458 195.451 442.833 195.085 443.099 194.644C443.365 194.202 443.512 193.699 443.526 193.183C443.54 192.668 443.421 192.158 443.18 191.702C435.981 178.003 425.143 166.556 411.858 158.62C398.573 150.683 383.356 146.566 367.881 146.72Z" fill="#FFF1C9"/>
<path d="M324.941 182.391C315.545 182.391 307.884 176.044 307.77 175.965C307.48 175.721 307.299 175.372 307.267 174.994C307.235 174.616 307.354 174.242 307.598 173.952C307.843 173.662 308.192 173.481 308.57 173.449C308.947 173.417 309.322 173.536 309.612 173.78C310.24 174.309 325.091 186.547 337.772 173.866L338.636 173.002L339.628 173.716C340.342 174.23 357.064 186.197 369.409 173.859L370.245 173.016L371.23 173.688C374.041 175.491 377.118 176.84 380.348 177.686C387.024 179.371 392.55 178.086 396.77 173.859L397.655 172.974L398.648 173.73C399.312 174.237 415.12 186.054 427.322 173.859C427.593 173.612 427.949 173.479 428.315 173.488C428.682 173.496 429.031 173.645 429.291 173.904C429.55 174.163 429.7 174.511 429.71 174.878C429.72 175.244 429.588 175.6 429.342 175.872C417.247 187.968 401.946 179.335 397.926 176.694C393.086 180.978 386.767 182.277 379.562 180.435C376.415 179.601 373.399 178.333 370.602 176.665C358.464 187.711 343.006 179.243 338.95 176.665C334.302 180.942 329.425 182.391 324.941 182.391Z" fill="#D3B970"/>
<path d="M284.458 560.933C284.15 560.925 283.854 560.818 283.612 560.627C283.371 560.437 283.197 560.174 283.117 559.878C283.036 559.581 283.054 559.266 283.167 558.98C283.28 558.694 283.482 558.453 283.744 558.291C288.385 555.435 293.197 552.779 298.024 550.315C304.45 547.067 311.068 544.096 317.766 541.49C318.119 541.353 318.512 541.362 318.859 541.514C319.206 541.667 319.478 541.951 319.615 542.304C319.752 542.658 319.744 543.051 319.591 543.398C319.438 543.744 319.154 544.016 318.801 544.154C312.189 546.724 305.635 549.651 299.316 552.864C294.539 555.292 289.798 557.941 285.207 560.718C284.983 560.86 284.723 560.934 284.458 560.933Z" fill="#262626"/>
<path d="M100.167 519.835L108.442 488.505H61.4968L68.951 520.178C60.4847 523.872 53.5559 530.379 49.3389 538.598C45.1219 546.816 43.876 556.239 45.8124 565.271C47.7488 574.303 52.7484 582.388 59.9638 588.155C67.1793 593.922 76.1668 597.018 85.4034 596.916C94.64 596.815 103.557 593.523 110.645 587.599C117.732 581.674 122.552 573.482 124.29 564.41C126.028 555.338 124.575 545.944 120.179 537.82C115.782 529.696 108.712 523.342 100.167 519.835Z" fill="white"/>
<path d="M84.966 598.332C75.5471 598.324 66.4115 595.11 59.0625 589.219C51.7134 583.328 46.5888 575.11 44.5319 565.919C42.4751 556.727 43.6085 547.109 47.7457 538.648C51.8828 530.186 58.7773 523.385 67.2945 519.364L59.6904 487.077H110.292L101.866 519.007C110.532 522.882 117.606 529.613 121.907 538.075C126.207 546.538 127.474 556.22 125.496 565.504C123.518 574.788 118.415 583.113 111.038 589.088C103.662 595.062 94.4587 598.325 84.966 598.332ZM63.2961 489.933L70.6146 521.013L69.5222 521.484C61.3555 525.046 54.6715 531.322 50.6029 539.248C46.5343 547.175 45.3315 556.264 47.1983 564.976C49.0651 573.688 53.8866 581.486 60.8458 587.05C67.8049 592.613 76.4736 595.599 85.3827 595.502C94.2918 595.405 102.893 592.23 109.729 586.516C116.565 580.802 121.216 572.901 122.892 564.15C124.568 555.4 123.167 546.339 118.927 538.503C114.686 530.667 107.867 524.538 99.6244 521.156L98.4677 520.677L106.586 489.933H63.2961Z" fill="#262626"/>
<path d="M84.9517 492.396C98.982 492.396 110.356 489.986 110.356 487.012C110.356 484.039 98.982 481.629 84.9517 481.629C70.9214 481.629 59.5476 484.039 59.5476 487.012C59.5476 489.986 70.9214 492.396 84.9517 492.396Z" fill="#262626"/>
<path d="M78.0402 491.346C77.7488 491.345 77.4647 491.255 77.226 491.088C76.9874 490.921 76.8056 490.684 76.705 490.411C68.0371 466.778 50.1228 447.571 49.9443 447.407C49.8154 447.27 49.7146 447.11 49.6477 446.934C49.5808 446.759 49.5491 446.572 49.5544 446.385C49.5597 446.197 49.6019 446.012 49.6786 445.841C49.7553 445.67 49.865 445.515 50.0014 445.386C50.1378 445.257 50.2983 445.156 50.4737 445.089C50.6491 445.023 50.8359 444.991 51.0236 444.996C51.2112 445.001 51.3959 445.044 51.5673 445.12C51.7386 445.197 51.8931 445.307 52.022 445.443C52.2077 445.643 70.5146 465.235 79.3825 489.426C79.5053 489.777 79.486 490.163 79.3286 490.5C79.1712 490.838 78.8882 491.1 78.54 491.232C78.3812 491.299 78.2121 491.337 78.0402 491.346Z" fill="#262626"/>
<path d="M89.4785 491.539C89.0997 491.539 88.7365 491.389 88.4687 491.121C88.2009 490.853 88.0505 490.49 88.0505 490.111V469.662C88.0505 469.283 88.2009 468.92 88.4687 468.652C88.7365 468.384 89.0997 468.234 89.4785 468.234C89.8572 468.234 90.2204 468.384 90.4882 468.652C90.756 468.92 90.9065 469.283 90.9065 469.662V490.111C90.9065 490.49 90.756 490.853 90.4882 491.121C90.2204 491.389 89.8572 491.539 89.4785 491.539Z" fill="#262626"/>
<path d="M58.2124 433.112H52.122C52.0078 432.798 51.8792 432.491 51.7436 432.191L56.1775 428.264C56.647 427.86 57.0315 427.367 57.3087 426.813C57.5858 426.259 57.7502 425.655 57.7922 425.037C57.8341 424.419 57.7529 423.799 57.5532 423.212C57.3534 422.626 57.0392 422.085 56.6287 421.621C56.2182 421.157 55.7196 420.779 55.1619 420.51C54.6042 420.24 53.9984 420.084 53.3799 420.05C52.7613 420.017 52.1422 420.106 51.5586 420.314C50.9749 420.522 50.4383 420.843 49.98 421.26L45.3104 425.394C45.239 425.458 45.1819 425.537 45.1105 425.608C44.8178 425.473 44.5179 425.351 44.2109 425.237V419.575C44.1636 418.365 43.6499 417.221 42.7773 416.382C41.9047 415.543 40.7412 415.074 39.5306 415.074C38.32 415.074 37.1565 415.543 36.2839 416.382C35.4114 417.221 34.8976 418.365 34.8503 419.575V425.237C34.4176 425.396 33.9934 425.577 33.5794 425.78C33.448 425.617 33.3048 425.464 33.151 425.323L28.4458 421.26C27.4987 420.505 26.2962 420.147 25.0905 420.259C23.8848 420.372 22.7696 420.948 21.979 421.865C21.1883 422.782 20.7836 423.97 20.8498 425.179C20.916 426.388 21.4479 427.525 22.3339 428.35L27.0606 432.427C27.098 432.46 27.1386 432.488 27.182 432.513C27.0963 432.713 27.0249 432.92 26.9464 433.127H21.0773C19.8431 433.132 18.6612 433.626 17.7892 434.499C16.9172 435.372 16.4258 436.555 16.422 437.789C16.422 439.03 16.9145 440.22 17.7913 441.099C18.6682 441.977 19.8577 442.471 21.0987 442.473H26.9107L27.0535 442.859H27.0106L22.3339 446.993C21.4506 447.828 20.9264 448.973 20.8723 450.188C20.8182 451.402 21.2383 452.59 22.0439 453.5C22.8495 454.411 23.9774 454.972 25.1893 455.066C26.4013 455.16 27.6023 454.779 28.5386 454.004L33.2081 449.87L33.3081 449.763C33.8187 450.038 34.3484 450.277 34.8932 450.477V456.089C34.9404 457.299 35.4542 458.443 36.3268 459.282C37.1993 460.121 38.3629 460.59 39.5734 460.59C40.784 460.59 41.9476 460.121 42.8201 459.282C43.6927 458.443 44.2065 457.299 44.2537 456.089V450.534C44.575 450.413 44.8963 450.284 45.2105 450.134L49.7944 454.083C50.7383 454.89 51.9645 455.29 53.2031 455.193C54.4417 455.097 55.5912 454.513 56.3989 453.569C57.2065 452.625 57.6061 451.398 57.5097 450.16C57.4132 448.921 56.8288 447.772 55.8848 446.964L51.815 443.451C51.9578 443.13 52.0863 442.801 52.2077 442.473H58.2124C59.4547 442.473 60.646 441.98 61.5244 441.101C62.4028 440.223 62.8963 439.031 62.8963 437.789C62.8944 436.548 62.4001 435.359 61.5219 434.482C60.6437 433.605 59.4534 433.112 58.2124 433.112Z" fill="#FFE18B"/>
<path d="M58.2124 433.112H52.122C52.0078 432.798 51.8792 432.491 51.7436 432.191L56.1775 428.264C56.647 427.86 57.0315 427.367 57.3087 426.813C57.5858 426.259 57.7502 425.655 57.7922 425.037C57.8341 424.419 57.7529 423.799 57.5532 423.212C57.3534 422.626 57.0392 422.085 56.6287 421.621C56.2182 421.157 55.7196 420.779 55.1619 420.51C54.6042 420.24 53.9984 420.084 53.3799 420.05C52.7613 420.017 52.1422 420.106 51.5586 420.314C50.9749 420.522 50.4383 420.843 49.98 421.26L45.3104 425.394C45.239 425.458 45.1819 425.537 45.1105 425.608C44.8178 425.473 44.5179 425.351 44.2109 425.237V419.575C44.1636 418.365 43.6499 417.221 42.7773 416.382C41.9047 415.543 40.7412 415.074 39.5306 415.074C38.32 415.074 37.1565 415.543 36.2839 416.382C35.4114 417.221 34.8976 418.365 34.8503 419.575V425.237C34.4176 425.396 33.9934 425.577 33.5794 425.78C33.448 425.617 33.3048 425.464 33.151 425.323L28.4458 421.26C27.4987 420.505 26.2962 420.147 25.0905 420.259C23.8848 420.372 22.7696 420.948 21.979 421.865C21.1883 422.782 20.7836 423.97 20.8498 425.179C20.916 426.388 21.4479 427.525 22.3339 428.35L27.0606 432.427C27.098 432.46 27.1386 432.488 27.182 432.513C27.0963 432.713 27.0249 432.92 26.9464 433.127H21.0773C19.8431 433.132 18.6612 433.626 17.7892 434.499C16.9172 435.372 16.4258 436.555 16.422 437.789C16.422 439.03 16.9145 440.22 17.7913 441.099C18.6682 441.977 19.8577 442.471 21.0987 442.473H26.9107L27.0535 442.859H27.0106L22.3339 446.993C21.4506 447.828 20.9264 448.973 20.8723 450.188C20.8182 451.402 21.2383 452.59 22.0439 453.5C22.8495 454.411 23.9774 454.972 25.1893 455.066C26.4013 455.16 27.6023 454.779 28.5386 454.004L33.2081 449.87L33.3081 449.763C33.8187 450.038 34.3484 450.277 34.8932 450.477V456.089C34.9404 457.299 35.4542 458.443 36.3268 459.282C37.1993 460.121 38.3629 460.59 39.5734 460.59C40.784 460.59 41.9476 460.121 42.8201 459.282C43.6927 458.443 44.2065 457.299 44.2537 456.089V450.534C44.575 450.413 44.8963 450.284 45.2105 450.134L49.7944 454.083C50.7383 454.89 51.9645 455.29 53.2031 455.193C54.4417 455.097 55.5912 454.513 56.3989 453.569C57.2065 452.625 57.6061 451.398 57.5097 450.16C57.4132 448.921 56.8288 447.772 55.8848 446.964L51.815 443.451C51.9578 443.13 52.0863 442.801 52.2077 442.473H58.2124C59.4547 442.473 60.646 441.98 61.5244 441.101C62.4028 440.223 62.8963 439.031 62.8963 437.789C62.8944 436.548 62.4001 435.359 61.5219 434.482C60.6437 433.605 59.4534 433.112 58.2124 433.112Z" fill="#FFE18B"/>
<path d="M58.2124 433.112H52.122C52.0078 432.798 51.8792 432.491 51.7436 432.191L56.1775 428.264C56.647 427.86 57.0315 427.367 57.3087 426.813C57.5858 426.259 57.7502 425.655 57.7922 425.037C57.8341 424.419 57.7529 423.799 57.5532 423.212C57.3534 422.626 57.0392 422.085 56.6287 421.621C56.2182 421.157 55.7196 420.779 55.1619 420.51C54.6042 420.24 53.9984 420.084 53.3799 420.05C52.7613 420.017 52.1422 420.106 51.5586 420.314C50.9749 420.522 50.4383 420.843 49.98 421.26L45.3104 425.394C45.239 425.458 45.1819 425.537 45.1105 425.608C44.8178 425.473 44.5179 425.351 44.2109 425.237V419.575C44.1636 418.365 43.6499 417.221 42.7773 416.382C41.9047 415.543 40.7412 415.074 39.5306 415.074C38.32 415.074 37.1565 415.543 36.2839 416.382C35.4114 417.221 34.8976 418.365 34.8503 419.575V425.237C34.4176 425.396 33.9934 425.577 33.5794 425.78C33.448 425.617 33.3048 425.464 33.151 425.323L28.4458 421.26C27.4987 420.505 26.2962 420.147 25.0905 420.259C23.8848 420.372 22.7696 420.948 21.979 421.865C21.1883 422.782 20.7836 423.97 20.8498 425.179C20.916 426.388 21.4479 427.525 22.3339 428.35L27.0606 432.427C27.098 432.46 27.1386 432.488 27.182 432.513C27.0963 432.713 27.0249 432.92 26.9464 433.127H21.0773C19.8431 433.132 18.6612 433.626 17.7892 434.499C16.9172 435.372 16.4258 436.555 16.422 437.789C16.422 439.03 16.9145 440.22 17.7913 441.099C18.6682 441.977 19.8577 442.471 21.0987 442.473H26.9107L27.0535 442.859H27.0106L22.3339 446.993C21.4506 447.828 20.9264 448.973 20.8723 450.188C20.8182 451.402 21.2383 452.59 22.0439 453.5C22.8495 454.411 23.9774 454.972 25.1893 455.066C26.4013 455.16 27.6023 454.779 28.5386 454.004L33.2081 449.87L33.3081 449.763C33.8187 450.038 34.3484 450.277 34.8932 450.477V456.089C34.9404 457.299 35.4542 458.443 36.3268 459.282C37.1993 460.121 38.3629 460.59 39.5734 460.59C40.784 460.59 41.9476 460.121 42.8201 459.282C43.6927 458.443 44.2065 457.299 44.2537 456.089V450.534C44.575 450.413 44.8963 450.284 45.2105 450.134L49.7944 454.083C50.7383 454.89 51.9645 455.29 53.2031 455.193C54.4417 455.097 55.5912 454.513 56.3989 453.569C57.2065 452.625 57.6061 451.398 57.5097 450.16C57.4132 448.921 56.8288 447.772 55.8848 446.964L51.815 443.451C51.9578 443.13 52.0863 442.801 52.2077 442.473H58.2124C59.4547 442.473 60.646 441.98 61.5244 441.101C62.4028 440.223 62.8963 439.031 62.8963 437.789C62.8944 436.548 62.4001 435.359 61.5219 434.482C60.6437 433.605 59.4534 433.112 58.2124 433.112Z" fill="#FFE18B"/>
<path d="M58.2124 433.112H52.122C52.0078 432.798 51.8792 432.491 51.7436 432.191L56.1775 428.264C56.647 427.86 57.0315 427.367 57.3087 426.813C57.5858 426.259 57.7502 425.655 57.7922 425.037C57.8341 424.419 57.7529 423.799 57.5532 423.212C57.3534 422.626 57.0392 422.085 56.6287 421.621C56.2182 421.157 55.7196 420.779 55.1619 420.51C54.6042 420.24 53.9984 420.084 53.3799 420.05C52.7613 420.017 52.1422 420.106 51.5586 420.314C50.9749 420.522 50.4383 420.843 49.98 421.26L45.3104 425.394C45.239 425.458 45.1819 425.537 45.1105 425.608C44.8178 425.473 44.5179 425.351 44.2109 425.237V419.575C44.1636 418.365 43.6499 417.221 42.7773 416.382C41.9047 415.543 40.7412 415.074 39.5306 415.074C38.32 415.074 37.1565 415.543 36.2839 416.382C35.4114 417.221 34.8976 418.365 34.8503 419.575V425.237C34.4176 425.396 33.9934 425.577 33.5794 425.78C33.448 425.617 33.3048 425.464 33.151 425.323L28.4458 421.26C27.4987 420.505 26.2962 420.147 25.0905 420.259C23.8848 420.372 22.7696 420.948 21.979 421.865C21.1883 422.782 20.7836 423.97 20.8498 425.179C20.916 426.388 21.4479 427.525 22.3339 428.35L27.0606 432.427C27.098 432.46 27.1386 432.488 27.182 432.513C27.0963 432.713 27.0249 432.92 26.9464 433.127H21.0773C19.8431 433.132 18.6612 433.626 17.7892 434.499C16.9172 435.372 16.4258 436.555 16.422 437.789C16.422 439.03 16.9145 440.22 17.7913 441.099C18.6682 441.977 19.8577 442.471 21.0987 442.473H26.9107L27.0535 442.859H27.0106L22.3339 446.993C21.4506 447.828 20.9264 448.973 20.8723 450.188C20.8182 451.402 21.2383 452.59 22.0439 453.5C22.8495 454.411 23.9774 454.972 25.1893 455.066C26.4013 455.16 27.6023 454.779 28.5386 454.004L33.2081 449.87L33.3081 449.763C33.8187 450.038 34.3484 450.277 34.8932 450.477V456.089C34.9404 457.299 35.4542 458.443 36.3268 459.282C37.1993 460.121 38.3629 460.59 39.5734 460.59C40.784 460.59 41.9476 460.121 42.8201 459.282C43.6927 458.443 44.2065 457.299 44.2537 456.089V450.534C44.575 450.413 44.8963 450.284 45.2105 450.134L49.7944 454.083C50.7383 454.89 51.9645 455.29 53.2031 455.193C54.4417 455.097 55.5912 454.513 56.3989 453.569C57.2065 452.625 57.6061 451.398 57.5097 450.16C57.4132 448.921 56.8288 447.772 55.8848 446.964L51.815 443.451C51.9578 443.13 52.0863 442.801 52.2077 442.473H58.2124C59.4547 442.473 60.646 441.98 61.5244 441.101C62.4028 440.223 62.8963 439.031 62.8963 437.789C62.8944 436.548 62.4001 435.359 61.5219 434.482C60.6437 433.605 59.4534 433.112 58.2124 433.112Z" fill="#FFE18B"/>
<path d="M58.2124 433.112H52.122C52.0078 432.798 51.8792 432.491 51.7436 432.191L56.1775 428.264C56.647 427.86 57.0315 427.367 57.3087 426.813C57.5858 426.259 57.7502 425.655 57.7922 425.037C57.8341 424.419 57.7529 423.799 57.5532 423.212C57.3534 422.626 57.0392 422.085 56.6287 421.621C56.2182 421.157 55.7196 420.779 55.1619 420.51C54.6042 420.24 53.9984 420.084 53.3799 420.05C52.7613 420.017 52.1422 420.106 51.5586 420.314C50.9749 420.522 50.4383 420.843 49.98 421.26L45.3104 425.394C45.239 425.458 45.1819 425.537 45.1105 425.608C44.8178 425.473 44.5179 425.351 44.2109 425.237V419.575C44.1636 418.365 43.6499 417.221 42.7773 416.382C41.9047 415.543 40.7412 415.074 39.5306 415.074C38.32 415.074 37.1565 415.543 36.2839 416.382C35.4114 417.221 34.8976 418.365 34.8503 419.575V425.237C34.4176 425.396 33.9934 425.577 33.5794 425.78C33.448 425.617 33.3048 425.464 33.151 425.323L28.4458 421.26C27.4987 420.505 26.2962 420.147 25.0905 420.259C23.8848 420.372 22.7696 420.948 21.979 421.865C21.1883 422.782 20.7836 423.97 20.8498 425.179C20.916 426.388 21.4479 427.525 22.3339 428.35L27.0606 432.427C27.098 432.46 27.1386 432.488 27.182 432.513C27.0963 432.713 27.0249 432.92 26.9464 433.127H21.0773C19.8431 433.132 18.6612 433.626 17.7892 434.499C16.9172 435.372 16.4258 436.555 16.422 437.789C16.422 439.03 16.9145 440.22 17.7913 441.099C18.6682 441.977 19.8577 442.471 21.0987 442.473H26.9107L27.0535 442.859H27.0106L22.3339 446.993C21.4506 447.828 20.9264 448.973 20.8723 450.188C20.8182 451.402 21.2383 452.59 22.0439 453.5C22.8495 454.411 23.9774 454.972 25.1893 455.066C26.4013 455.16 27.6023 454.779 28.5386 454.004L33.2081 449.87L33.3081 449.763C33.8187 450.038 34.3484 450.277 34.8932 450.477V456.089C34.9404 457.299 35.4542 458.443 36.3268 459.282C37.1993 460.121 38.3629 460.59 39.5734 460.59C40.784 460.59 41.9476 460.121 42.8201 459.282C43.6927 458.443 44.2065 457.299 44.2537 456.089V450.534C44.575 450.413 44.8963 450.284 45.2105 450.134L49.7944 454.083C50.7383 454.89 51.9645 455.29 53.2031 455.193C54.4417 455.097 55.5912 454.513 56.3989 453.569C57.2065 452.625 57.6061 451.398 57.5097 450.16C57.4132 448.921 56.8288 447.772 55.8848 446.964L51.815 443.451C51.9578 443.13 52.0863 442.801 52.2077 442.473H58.2124C59.4547 442.473 60.646 441.98 61.5244 441.101C62.4028 440.223 62.8963 439.031 62.8963 437.789C62.8944 436.548 62.4001 435.359 61.5219 434.482C60.6437 433.605 59.4534 433.112 58.2124 433.112Z" fill="#FFE18B"/>
<path d="M58.2124 433.112H52.122C52.0078 432.798 51.8792 432.491 51.7436 432.191L56.1775 428.264C56.647 427.86 57.0315 427.367 57.3087 426.813C57.5858 426.259 57.7502 425.655 57.7922 425.037C57.8341 424.419 57.7529 423.799 57.5532 423.212C57.3534 422.626 57.0392 422.085 56.6287 421.621C56.2182 421.157 55.7196 420.779 55.1619 420.51C54.6042 420.24 53.9984 420.084 53.3799 420.05C52.7613 420.017 52.1422 420.106 51.5586 420.314C50.9749 420.522 50.4383 420.843 49.98 421.26L45.3104 425.394C45.239 425.458 45.1819 425.537 45.1105 425.608C44.8178 425.473 44.5179 425.351 44.2109 425.237V419.575C44.1636 418.365 43.6499 417.221 42.7773 416.382C41.9047 415.543 40.7412 415.074 39.5306 415.074C38.32 415.074 37.1565 415.543 36.2839 416.382C35.4114 417.221 34.8976 418.365 34.8503 419.575V425.237C34.4176 425.396 33.9934 425.577 33.5794 425.78C33.448 425.617 33.3048 425.464 33.151 425.323L28.4458 421.26C27.4987 420.505 26.2962 420.147 25.0905 420.259C23.8848 420.372 22.7696 420.948 21.979 421.865C21.1883 422.782 20.7836 423.97 20.8498 425.179C20.916 426.388 21.4479 427.525 22.3339 428.35L27.0606 432.427C27.098 432.46 27.1386 432.488 27.182 432.513C27.0963 432.713 27.0249 432.92 26.9464 433.127H21.0773C19.8431 433.132 18.6612 433.626 17.7892 434.499C16.9172 435.372 16.4258 436.555 16.422 437.789C16.422 439.03 16.9145 440.22 17.7913 441.099C18.6682 441.977 19.8577 442.471 21.0987 442.473H26.9107L27.0535 442.859H27.0106L22.3339 446.993C21.4506 447.828 20.9264 448.973 20.8723 450.188C20.8182 451.402 21.2383 452.59 22.0439 453.5C22.8495 454.411 23.9774 454.972 25.1893 455.066C26.4013 455.16 27.6023 454.779 28.5386 454.004L33.2081 449.87L33.3081 449.763C33.8187 450.038 34.3484 450.277 34.8932 450.477V456.089C34.9404 457.299 35.4542 458.443 36.3268 459.282C37.1993 460.121 38.3629 460.59 39.5734 460.59C40.784 460.59 41.9476 460.121 42.8201 459.282C43.6927 458.443 44.2065 457.299 44.2537 456.089V450.534C44.575 450.413 44.8963 450.284 45.2105 450.134L49.7944 454.083C50.7383 454.89 51.9645 455.29 53.2031 455.193C54.4417 455.097 55.5912 454.513 56.3989 453.569C57.2065 452.625 57.6061 451.398 57.5097 450.16C57.4132 448.921 56.8288 447.772 55.8848 446.964L51.815 443.451C51.9578 443.13 52.0863 442.801 52.2077 442.473H58.2124C59.4547 442.473 60.646 441.98 61.5244 441.101C62.4028 440.223 62.8963 439.031 62.8963 437.789C62.8944 436.548 62.4001 435.359 61.5219 434.482C60.6437 433.605 59.4534 433.112 58.2124 433.112Z" fill="#FFE18B"/>
<path d="M58.2124 433.112H52.122C52.0078 432.798 51.8792 432.491 51.7436 432.191L56.1775 428.264C56.647 427.86 57.0315 427.367 57.3087 426.813C57.5858 426.259 57.7502 425.655 57.7922 425.037C57.8341 424.419 57.7529 423.799 57.5532 423.212C57.3534 422.626 57.0392 422.085 56.6287 421.621C56.2182 421.157 55.7196 420.779 55.1619 420.51C54.6042 420.24 53.9984 420.084 53.3799 420.05C52.7613 420.017 52.1422 420.106 51.5586 420.314C50.9749 420.522 50.4383 420.843 49.98 421.26L45.3104 425.394C45.239 425.458 45.1819 425.537 45.1105 425.608C44.8178 425.473 44.5179 425.351 44.2109 425.237V419.575C44.1636 418.365 43.6499 417.221 42.7773 416.382C41.9047 415.543 40.7412 415.074 39.5306 415.074C38.32 415.074 37.1565 415.543 36.2839 416.382C35.4114 417.221 34.8976 418.365 34.8503 419.575V425.237C34.4176 425.396 33.9934 425.577 33.5794 425.78C33.448 425.617 33.3048 425.464 33.151 425.323L28.4458 421.26C27.4987 420.505 26.2962 420.147 25.0905 420.259C23.8848 420.372 22.7696 420.948 21.979 421.865C21.1883 422.782 20.7836 423.97 20.8498 425.179C20.916 426.388 21.4479 427.525 22.3339 428.35L27.0606 432.427C27.098 432.46 27.1386 432.488 27.182 432.513C27.0963 432.713 27.0249 432.92 26.9464 433.127H21.0773C19.8431 433.132 18.6612 433.626 17.7892 434.499C16.9172 435.372 16.4258 436.555 16.422 437.789C16.422 439.03 16.9145 440.22 17.7913 441.099C18.6682 441.977 19.8577 442.471 21.0987 442.473H26.9107L27.0535 442.859H27.0106L22.3339 446.993C21.4506 447.828 20.9264 448.973 20.8723 450.188C20.8182 451.402 21.2383 452.59 22.0439 453.5C22.8495 454.411 23.9774 454.972 25.1893 455.066C26.4013 455.16 27.6023 454.779 28.5386 454.004L33.2081 449.87L33.3081 449.763C33.8187 450.038 34.3484 450.277 34.8932 450.477V456.089C34.9404 457.299 35.4542 458.443 36.3268 459.282C37.1993 460.121 38.3629 460.59 39.5734 460.59C40.784 460.59 41.9476 460.121 42.8201 459.282C43.6927 458.443 44.2065 457.299 44.2537 456.089V450.534C44.575 450.413 44.8963 450.284 45.2105 450.134L49.7944 454.083C50.7383 454.89 51.9645 455.29 53.2031 455.193C54.4417 455.097 55.5912 454.513 56.3989 453.569C57.2065 452.625 57.6061 451.398 57.5097 450.16C57.4132 448.921 56.8288 447.772 55.8848 446.964L51.815 443.451C51.9578 443.13 52.0863 442.801 52.2077 442.473H58.2124C59.4547 442.473 60.646 441.98 61.5244 441.101C62.4028 440.223 62.8963 439.031 62.8963 437.789C62.8944 436.548 62.4001 435.359 61.5219 434.482C60.6437 433.605 59.4534 433.112 58.2124 433.112Z" fill="#FFE18B"/>
<path d="M108.05 450.355H101.988C101.874 450.041 101.745 449.741 101.602 449.442L106.043 445.515C106.927 444.679 107.451 443.534 107.505 442.319C107.559 441.105 107.139 439.917 106.333 439.007C105.528 438.096 104.4 437.535 103.188 437.441C101.976 437.347 100.775 437.728 99.8386 438.503L95.1691 442.637C95.0988 442.705 95.0321 442.777 94.9691 442.851C94.6764 442.716 94.3694 442.594 94.0624 442.48V436.818C94.0151 435.608 93.5013 434.464 92.6288 433.625C91.7562 432.786 90.5927 432.317 89.3821 432.317C88.1715 432.317 87.008 432.786 86.1354 433.625C85.2628 434.464 84.7491 435.608 84.7018 436.818V442.48C84.2734 442.637 83.8522 442.823 83.438 443.023C83.3046 442.862 83.1616 442.709 83.0096 442.566L78.283 438.489C77.8218 438.059 77.2786 437.727 76.6861 437.512C76.0935 437.298 75.4636 437.205 74.8343 437.239C74.2049 437.273 73.589 437.435 73.0234 437.713C72.4578 437.991 71.9541 438.38 71.5426 438.858C71.1311 439.335 70.8201 439.891 70.6284 440.491C70.4367 441.091 70.3681 441.724 70.4268 442.352C70.4854 442.98 70.6702 443.589 70.9699 444.143C71.2697 444.698 71.6782 445.186 72.1711 445.579L76.8907 449.656C76.9318 449.687 76.9747 449.715 77.0192 449.741C76.9335 449.941 76.855 450.148 76.7836 450.355H70.9145C69.6741 450.355 68.4846 450.848 67.6076 451.725C66.7305 452.602 66.2378 453.792 66.2378 455.032C66.2378 456.273 66.7303 457.463 67.6071 458.342C68.484 459.22 69.6735 459.714 70.9145 459.716H76.7264C76.7693 459.845 76.8193 459.98 76.8692 460.109C76.8692 460.109 76.8692 460.109 76.8264 460.109L72.1497 464.243C71.6659 464.643 71.2677 465.137 70.9786 465.695C70.6895 466.252 70.5155 466.862 70.4669 467.488C70.4184 468.114 70.4962 468.744 70.6959 469.339C70.8955 469.935 71.2129 470.484 71.6291 470.955C72.0453 471.425 72.5519 471.807 73.1186 472.077C73.6854 472.348 74.3008 472.502 74.9282 472.53C75.5556 472.558 76.1823 472.459 76.7709 472.24C77.3595 472.021 77.898 471.686 78.3544 471.254L83.0239 467.12L83.1239 467.02C83.6341 467.292 84.1612 467.53 84.7018 467.734V473.382C84.7491 474.592 85.2628 475.736 86.1354 476.575C87.008 477.414 88.1715 477.883 89.3821 477.883C90.5927 477.883 91.7562 477.414 92.6288 476.575C93.5013 475.736 94.0151 474.592 94.0624 473.382V467.741C94.3908 467.62 94.7121 467.491 95.0263 467.341L99.603 471.29C100.068 471.692 100.608 471.998 101.191 472.191C101.775 472.384 102.39 472.461 103.003 472.416C103.616 472.371 104.214 472.206 104.764 471.93C105.313 471.654 105.802 471.273 106.204 470.808C106.606 470.343 106.912 469.803 107.105 469.22C107.298 468.636 107.375 468.021 107.33 467.408C107.285 466.795 107.12 466.197 106.844 465.647C106.568 465.098 106.187 464.609 105.722 464.207L101.645 460.694C101.795 460.373 101.923 460.044 102.045 459.716H108.05C109.291 459.714 110.48 459.22 111.357 458.342C112.234 457.463 112.726 456.273 112.726 455.032C112.726 454.418 112.605 453.81 112.37 453.242C112.135 452.675 111.791 452.16 111.357 451.725C110.922 451.291 110.407 450.946 109.839 450.711C109.272 450.476 108.664 450.355 108.05 450.355Z" fill="#FFE18B"/>
<path d="M108.05 450.355H101.988C101.874 450.041 101.745 449.741 101.602 449.442L106.043 445.515C106.927 444.679 107.451 443.534 107.505 442.319C107.559 441.105 107.139 439.917 106.333 439.007C105.528 438.096 104.4 437.535 103.188 437.441C101.976 437.347 100.775 437.728 99.8386 438.503L95.1691 442.637C95.0988 442.705 95.0321 442.777 94.9691 442.851C94.6764 442.716 94.3694 442.594 94.0624 442.48V436.818C94.0151 435.608 93.5013 434.464 92.6288 433.625C91.7562 432.786 90.5927 432.317 89.3821 432.317C88.1715 432.317 87.008 432.786 86.1354 433.625C85.2628 434.464 84.7491 435.608 84.7018 436.818V442.48C84.2734 442.637 83.8522 442.823 83.438 443.023C83.3046 442.862 83.1616 442.709 83.0096 442.566L78.283 438.489C77.8218 438.059 77.2786 437.727 76.6861 437.512C76.0935 437.298 75.4636 437.205 74.8343 437.239C74.2049 437.273 73.589 437.435 73.0234 437.713C72.4578 437.991 71.9541 438.38 71.5426 438.858C71.1311 439.335 70.8201 439.891 70.6284 440.491C70.4367 441.091 70.3681 441.724 70.4268 442.352C70.4854 442.98 70.6702 443.589 70.9699 444.143C71.2697 444.698 71.6782 445.186 72.1711 445.579L76.8907 449.656C76.9318 449.687 76.9747 449.715 77.0192 449.741C76.9335 449.941 76.855 450.148 76.7836 450.355H70.9145C69.6741 450.355 68.4846 450.848 67.6076 451.725C66.7305 452.602 66.2378 453.792 66.2378 455.032C66.2378 456.273 66.7303 457.463 67.6071 458.342C68.484 459.22 69.6735 459.714 70.9145 459.716H76.7264C76.7693 459.845 76.8193 459.98 76.8692 460.109C76.8692 460.109 76.8692 460.109 76.8264 460.109L72.1497 464.243C71.6659 464.643 71.2677 465.137 70.9786 465.695C70.6895 466.252 70.5155 466.862 70.4669 467.488C70.4184 468.114 70.4962 468.744 70.6959 469.339C70.8955 469.935 71.2129 470.484 71.6291 470.955C72.0453 471.425 72.5519 471.807 73.1186 472.077C73.6854 472.348 74.3008 472.502 74.9282 472.53C75.5556 472.558 76.1823 472.459 76.7709 472.24C77.3595 472.021 77.898 471.686 78.3544 471.254L83.0239 467.12L83.1239 467.02C83.6341 467.292 84.1612 467.53 84.7018 467.734V473.382C84.7491 474.592 85.2628 475.736 86.1354 476.575C87.008 477.414 88.1715 477.883 89.3821 477.883C90.5927 477.883 91.7562 477.414 92.6288 476.575C93.5013 475.736 94.0151 474.592 94.0624 473.382V467.741C94.3908 467.62 94.7121 467.491 95.0263 467.341L99.603 471.29C100.068 471.692 100.608 471.998 101.191 472.191C101.775 472.384 102.39 472.461 103.003 472.416C103.616 472.371 104.214 472.206 104.764 471.93C105.313 471.654 105.802 471.273 106.204 470.808C106.606 470.343 106.912 469.803 107.105 469.22C107.298 468.636 107.375 468.021 107.33 467.408C107.285 466.795 107.12 466.197 106.844 465.647C106.568 465.098 106.187 464.609 105.722 464.207L101.645 460.694C101.795 460.373 101.923 460.044 102.045 459.716H108.05C109.291 459.714 110.48 459.22 111.357 458.342C112.234 457.463 112.726 456.273 112.726 455.032C112.726 454.418 112.605 453.81 112.37 453.242C112.135 452.675 111.791 452.16 111.357 451.725C110.922 451.291 110.407 450.946 109.839 450.711C109.272 450.476 108.664 450.355 108.05 450.355Z" fill="#FFE18B"/>
<path d="M108.05 450.355H101.988C101.874 450.041 101.745 449.741 101.602 449.442L106.043 445.515C106.927 444.679 107.451 443.534 107.505 442.319C107.559 441.105 107.139 439.917 106.333 439.007C105.528 438.096 104.4 437.535 103.188 437.441C101.976 437.347 100.775 437.728 99.8386 438.503L95.1691 442.637C95.0988 442.705 95.0321 442.777 94.9691 442.851C94.6764 442.716 94.3694 442.594 94.0624 442.48V436.818C94.0151 435.608 93.5013 434.464 92.6288 433.625C91.7562 432.786 90.5927 432.317 89.3821 432.317C88.1715 432.317 87.008 432.786 86.1354 433.625C85.2628 434.464 84.7491 435.608 84.7018 436.818V442.48C84.2734 442.637 83.8522 442.823 83.438 443.023C83.3046 442.862 83.1616 442.709 83.0096 442.566L78.283 438.489C77.8218 438.059 77.2786 437.727 76.6861 437.512C76.0935 437.298 75.4636 437.205 74.8343 437.239C74.2049 437.273 73.589 437.435 73.0234 437.713C72.4578 437.991 71.9541 438.38 71.5426 438.858C71.1311 439.335 70.8201 439.891 70.6284 440.491C70.4367 441.091 70.3681 441.724 70.4268 442.352C70.4854 442.98 70.6702 443.589 70.9699 444.143C71.2697 444.698 71.6782 445.186 72.1711 445.579L76.8907 449.656C76.9318 449.687 76.9747 449.715 77.0192 449.741C76.9335 449.941 76.855 450.148 76.7836 450.355H70.9145C69.6741 450.355 68.4846 450.848 67.6076 451.725C66.7305 452.602 66.2378 453.792 66.2378 455.032C66.2378 456.273 66.7303 457.463 67.6071 458.342C68.484 459.22 69.6735 459.714 70.9145 459.716H76.7264C76.7693 459.845 76.8193 459.98 76.8692 460.109C76.8692 460.109 76.8692 460.109 76.8264 460.109L72.1497 464.243C71.6659 464.643 71.2677 465.137 70.9786 465.695C70.6895 466.252 70.5155 466.862 70.4669 467.488C70.4184 468.114 70.4962 468.744 70.6959 469.339C70.8955 469.935 71.2129 470.484 71.6291 470.955C72.0453 471.425 72.5519 471.807 73.1186 472.077C73.6854 472.348 74.3008 472.502 74.9282 472.53C75.5556 472.558 76.1823 472.459 76.7709 472.24C77.3595 472.021 77.898 471.686 78.3544 471.254L83.0239 467.12L83.1239 467.02C83.6341 467.292 84.1612 467.53 84.7018 467.734V473.382C84.7491 474.592 85.2628 475.736 86.1354 476.575C87.008 477.414 88.1715 477.883 89.3821 477.883C90.5927 477.883 91.7562 477.414 92.6288 476.575C93.5013 475.736 94.0151 474.592 94.0624 473.382V467.741C94.3908 467.62 94.7121 467.491 95.0263 467.341L99.603 471.29C100.068 471.692 100.608 471.998 101.191 472.191C101.775 472.384 102.39 472.461 103.003 472.416C103.616 472.371 104.214 472.206 104.764 471.93C105.313 471.654 105.802 471.273 106.204 470.808C106.606 470.343 106.912 469.803 107.105 469.22C107.298 468.636 107.375 468.021 107.33 467.408C107.285 466.795 107.12 466.197 106.844 465.647C106.568 465.098 106.187 464.609 105.722 464.207L101.645 460.694C101.795 460.373 101.923 460.044 102.045 459.716H108.05C109.291 459.714 110.48 459.22 111.357 458.342C112.234 457.463 112.726 456.273 112.726 455.032C112.726 454.418 112.605 453.81 112.37 453.242C112.135 452.675 111.791 452.16 111.357 451.725C110.922 451.291 110.407 450.946 109.839 450.711C109.272 450.476 108.664 450.355 108.05 450.355Z" fill="#FFE18B"/>
<path d="M108.05 450.355H101.988C101.874 450.041 101.745 449.741 101.602 449.442L106.043 445.515C106.927 444.679 107.451 443.534 107.505 442.319C107.559 441.105 107.139 439.917 106.333 439.007C105.528 438.096 104.4 437.535 103.188 437.441C101.976 437.347 100.775 437.728 99.8386 438.503L95.1691 442.637C95.0988 442.705 95.0321 442.777 94.9691 442.851C94.6764 442.716 94.3694 442.594 94.0624 442.48V436.818C94.0151 435.608 93.5013 434.464 92.6288 433.625C91.7562 432.786 90.5927 432.317 89.3821 432.317C88.1715 432.317 87.008 432.786 86.1354 433.625C85.2628 434.464 84.7491 435.608 84.7018 436.818V442.48C84.2734 442.637 83.8522 442.823 83.438 443.023C83.3046 442.862 83.1616 442.709 83.0096 442.566L78.283 438.489C77.8218 438.059 77.2786 437.727 76.6861 437.512C76.0935 437.298 75.4636 437.205 74.8343 437.239C74.2049 437.273 73.589 437.435 73.0234 437.713C72.4578 437.991 71.9541 438.38 71.5426 438.858C71.1311 439.335 70.8201 439.891 70.6284 440.491C70.4367 441.091 70.3681 441.724 70.4268 442.352C70.4854 442.98 70.6702 443.589 70.9699 444.143C71.2697 444.698 71.6782 445.186 72.1711 445.579L76.8907 449.656C76.9318 449.687 76.9747 449.715 77.0192 449.741C76.9335 449.941 76.855 450.148 76.7836 450.355H70.9145C69.6741 450.355 68.4846 450.848 67.6076 451.725C66.7305 452.602 66.2378 453.792 66.2378 455.032C66.2378 456.273 66.7303 457.463 67.6071 458.342C68.484 459.22 69.6735 459.714 70.9145 459.716H76.7264C76.7693 459.845 76.8193 459.98 76.8692 460.109C76.8692 460.109 76.8692 460.109 76.8264 460.109L72.1497 464.243C71.6659 464.643 71.2677 465.137 70.9786 465.695C70.6895 466.252 70.5155 466.862 70.4669 467.488C70.4184 468.114 70.4962 468.744 70.6959 469.339C70.8955 469.935 71.2129 470.484 71.6291 470.955C72.0453 471.425 72.5519 471.807 73.1186 472.077C73.6854 472.348 74.3008 472.502 74.9282 472.53C75.5556 472.558 76.1823 472.459 76.7709 472.24C77.3595 472.021 77.898 471.686 78.3544 471.254L83.0239 467.12L83.1239 467.02C83.6341 467.292 84.1612 467.53 84.7018 467.734V473.382C84.7491 474.592 85.2628 475.736 86.1354 476.575C87.008 477.414 88.1715 477.883 89.3821 477.883C90.5927 477.883 91.7562 477.414 92.6288 476.575C93.5013 475.736 94.0151 474.592 94.0624 473.382V467.741C94.3908 467.62 94.7121 467.491 95.0263 467.341L99.603 471.29C100.068 471.692 100.608 471.998 101.191 472.191C101.775 472.384 102.39 472.461 103.003 472.416C103.616 472.371 104.214 472.206 104.764 471.93C105.313 471.654 105.802 471.273 106.204 470.808C106.606 470.343 106.912 469.803 107.105 469.22C107.298 468.636 107.375 468.021 107.33 467.408C107.285 466.795 107.12 466.197 106.844 465.647C106.568 465.098 106.187 464.609 105.722 464.207L101.645 460.694C101.795 460.373 101.923 460.044 102.045 459.716H108.05C109.291 459.714 110.48 459.22 111.357 458.342C112.234 457.463 112.726 456.273 112.726 455.032C112.726 454.418 112.605 453.81 112.37 453.242C112.135 452.675 111.791 452.16 111.357 451.725C110.922 451.291 110.407 450.946 109.839 450.711C109.272 450.476 108.664 450.355 108.05 450.355Z" fill="#FFE18B"/>
<path d="M108.05 450.355H101.988C101.874 450.041 101.745 449.741 101.602 449.442L106.043 445.515C106.927 444.679 107.451 443.534 107.505 442.319C107.559 441.105 107.139 439.917 106.333 439.007C105.528 438.096 104.4 437.535 103.188 437.441C101.976 437.347 100.775 437.728 99.8386 438.503L95.1691 442.637C95.0988 442.705 95.0321 442.777 94.9691 442.851C94.6764 442.716 94.3694 442.594 94.0624 442.48V436.818C94.0151 435.608 93.5013 434.464 92.6288 433.625C91.7562 432.786 90.5927 432.317 89.3821 432.317C88.1715 432.317 87.008 432.786 86.1354 433.625C85.2628 434.464 84.7491 435.608 84.7018 436.818V442.48C84.2734 442.637 83.8522 442.823 83.438 443.023C83.3046 442.862 83.1616 442.709 83.0096 442.566L78.283 438.489C77.8218 438.059 77.2786 437.727 76.6861 437.512C76.0935 437.298 75.4636 437.205 74.8343 437.239C74.2049 437.273 73.589 437.435 73.0234 437.713C72.4578 437.991 71.9541 438.38 71.5426 438.858C71.1311 439.335 70.8201 439.891 70.6284 440.491C70.4367 441.091 70.3681 441.724 70.4268 442.352C70.4854 442.98 70.6702 443.589 70.9699 444.143C71.2697 444.698 71.6782 445.186 72.1711 445.579L76.8907 449.656C76.9318 449.687 76.9747 449.715 77.0192 449.741C76.9335 449.941 76.855 450.148 76.7836 450.355H70.9145C69.6741 450.355 68.4846 450.848 67.6076 451.725C66.7305 452.602 66.2378 453.792 66.2378 455.032C66.2378 456.273 66.7303 457.463 67.6071 458.342C68.484 459.22 69.6735 459.714 70.9145 459.716H76.7264C76.7693 459.845 76.8193 459.98 76.8692 460.109C76.8692 460.109 76.8692 460.109 76.8264 460.109L72.1497 464.243C71.6659 464.643 71.2677 465.137 70.9786 465.695C70.6895 466.252 70.5155 466.862 70.4669 467.488C70.4184 468.114 70.4962 468.744 70.6959 469.339C70.8955 469.935 71.2129 470.484 71.6291 470.955C72.0453 471.425 72.5519 471.807 73.1186 472.077C73.6854 472.348 74.3008 472.502 74.9282 472.53C75.5556 472.558 76.1823 472.459 76.7709 472.24C77.3595 472.021 77.898 471.686 78.3544 471.254L83.0239 467.12L83.1239 467.02C83.6341 467.292 84.1612 467.53 84.7018 467.734V473.382C84.7491 474.592 85.2628 475.736 86.1354 476.575C87.008 477.414 88.1715 477.883 89.3821 477.883C90.5927 477.883 91.7562 477.414 92.6288 476.575C93.5013 475.736 94.0151 474.592 94.0624 473.382V467.741C94.3908 467.62 94.7121 467.491 95.0263 467.341L99.603 471.29C100.068 471.692 100.608 471.998 101.191 472.191C101.775 472.384 102.39 472.461 103.003 472.416C103.616 472.371 104.214 472.206 104.764 471.93C105.313 471.654 105.802 471.273 106.204 470.808C106.606 470.343 106.912 469.803 107.105 469.22C107.298 468.636 107.375 468.021 107.33 467.408C107.285 466.795 107.12 466.197 106.844 465.647C106.568 465.098 106.187 464.609 105.722 464.207L101.645 460.694C101.795 460.373 101.923 460.044 102.045 459.716H108.05C109.291 459.714 110.48 459.22 111.357 458.342C112.234 457.463 112.726 456.273 112.726 455.032C112.726 454.418 112.605 453.81 112.37 453.242C112.135 452.675 111.791 452.16 111.357 451.725C110.922 451.291 110.407 450.946 109.839 450.711C109.272 450.476 108.664 450.355 108.05 450.355Z" fill="#FFE18B"/>
<path d="M108.05 450.355H101.988C101.874 450.041 101.745 449.741 101.602 449.442L106.043 445.515C106.927 444.679 107.451 443.534 107.505 442.319C107.559 441.105 107.139 439.917 106.333 439.007C105.528 438.096 104.4 437.535 103.188 437.441C101.976 437.347 100.775 437.728 99.8386 438.503L95.1691 442.637C95.0988 442.705 95.0321 442.777 94.9691 442.851C94.6764 442.716 94.3694 442.594 94.0624 442.48V436.818C94.0151 435.608 93.5013 434.464 92.6288 433.625C91.7562 432.786 90.5927 432.317 89.3821 432.317C88.1715 432.317 87.008 432.786 86.1354 433.625C85.2628 434.464 84.7491 435.608 84.7018 436.818V442.48C84.2734 442.637 83.8522 442.823 83.438 443.023C83.3046 442.862 83.1616 442.709 83.0096 442.566L78.283 438.489C77.8218 438.059 77.2786 437.727 76.6861 437.512C76.0935 437.298 75.4636 437.205 74.8343 437.239C74.2049 437.273 73.589 437.435 73.0234 437.713C72.4578 437.991 71.9541 438.38 71.5426 438.858C71.1311 439.335 70.8201 439.891 70.6284 440.491C70.4367 441.091 70.3681 441.724 70.4268 442.352C70.4854 442.98 70.6702 443.589 70.9699 444.143C71.2697 444.698 71.6782 445.186 72.1711 445.579L76.8907 449.656C76.9318 449.687 76.9747 449.715 77.0192 449.741C76.9335 449.941 76.855 450.148 76.7836 450.355H70.9145C69.6741 450.355 68.4846 450.848 67.6076 451.725C66.7305 452.602 66.2378 453.792 66.2378 455.032C66.2378 456.273 66.7303 457.463 67.6071 458.342C68.484 459.22 69.6735 459.714 70.9145 459.716H76.7264C76.7693 459.845 76.8193 459.98 76.8692 460.109C76.8692 460.109 76.8692 460.109 76.8264 460.109L72.1497 464.243C71.6659 464.643 71.2677 465.137 70.9786 465.695C70.6895 466.252 70.5155 466.862 70.4669 467.488C70.4184 468.114 70.4962 468.744 70.6959 469.339C70.8955 469.935 71.2129 470.484 71.6291 470.955C72.0453 471.425 72.5519 471.807 73.1186 472.077C73.6854 472.348 74.3008 472.502 74.9282 472.53C75.5556 472.558 76.1823 472.459 76.7709 472.24C77.3595 472.021 77.898 471.686 78.3544 471.254L83.0239 467.12L83.1239 467.02C83.6341 467.292 84.1612 467.53 84.7018 467.734V473.382C84.7491 474.592 85.2628 475.736 86.1354 476.575C87.008 477.414 88.1715 477.883 89.3821 477.883C90.5927 477.883 91.7562 477.414 92.6288 476.575C93.5013 475.736 94.0151 474.592 94.0624 473.382V467.741C94.3908 467.62 94.7121 467.491 95.0263 467.341L99.603 471.29C100.068 471.692 100.608 471.998 101.191 472.191C101.775 472.384 102.39 472.461 103.003 472.416C103.616 472.371 104.214 472.206 104.764 471.93C105.313 471.654 105.802 471.273 106.204 470.808C106.606 470.343 106.912 469.803 107.105 469.22C107.298 468.636 107.375 468.021 107.33 467.408C107.285 466.795 107.12 466.197 106.844 465.647C106.568 465.098 106.187 464.609 105.722 464.207L101.645 460.694C101.795 460.373 101.923 460.044 102.045 459.716H108.05C109.291 459.714 110.48 459.22 111.357 458.342C112.234 457.463 112.726 456.273 112.726 455.032C112.726 454.418 112.605 453.81 112.37 453.242C112.135 452.675 111.791 452.16 111.357 451.725C110.922 451.291 110.407 450.946 109.839 450.711C109.272 450.476 108.664 450.355 108.05 450.355Z" fill="#FFE18B"/>
<path d="M108.05 450.355H101.988C101.874 450.041 101.745 449.741 101.602 449.442L106.043 445.515C106.927 444.679 107.451 443.534 107.505 442.319C107.559 441.105 107.139 439.917 106.333 439.007C105.528 438.096 104.4 437.535 103.188 437.441C101.976 437.347 100.775 437.728 99.8386 438.503L95.1691 442.637C95.0988 442.705 95.0321 442.777 94.9691 442.851C94.6764 442.716 94.3694 442.594 94.0624 442.48V436.818C94.0151 435.608 93.5013 434.464 92.6288 433.625C91.7562 432.786 90.5927 432.317 89.3821 432.317C88.1715 432.317 87.008 432.786 86.1354 433.625C85.2628 434.464 84.7491 435.608 84.7018 436.818V442.48C84.2734 442.637 83.8522 442.823 83.438 443.023C83.3046 442.862 83.1616 442.709 83.0096 442.566L78.283 438.489C77.8218 438.059 77.2786 437.727 76.6861 437.512C76.0935 437.298 75.4636 437.205 74.8343 437.239C74.2049 437.273 73.589 437.435 73.0234 437.713C72.4578 437.991 71.9541 438.38 71.5426 438.858C71.1311 439.335 70.8201 439.891 70.6284 440.491C70.4367 441.091 70.3681 441.724 70.4268 442.352C70.4854 442.98 70.6702 443.589 70.9699 444.143C71.2697 444.698 71.6782 445.186 72.1711 445.579L76.8907 449.656C76.9318 449.687 76.9747 449.715 77.0192 449.741C76.9335 449.941 76.855 450.148 76.7836 450.355H70.9145C69.6741 450.355 68.4846 450.848 67.6076 451.725C66.7305 452.602 66.2378 453.792 66.2378 455.032C66.2378 456.273 66.7303 457.463 67.6071 458.342C68.484 459.22 69.6735 459.714 70.9145 459.716H76.7264C76.7693 459.845 76.8193 459.98 76.8692 460.109C76.8692 460.109 76.8692 460.109 76.8264 460.109L72.1497 464.243C71.6659 464.643 71.2677 465.137 70.9786 465.695C70.6895 466.252 70.5155 466.862 70.4669 467.488C70.4184 468.114 70.4962 468.744 70.6959 469.339C70.8955 469.935 71.2129 470.484 71.6291 470.955C72.0453 471.425 72.5519 471.807 73.1186 472.077C73.6854 472.348 74.3008 472.502 74.9282 472.53C75.5556 472.558 76.1823 472.459 76.7709 472.24C77.3595 472.021 77.898 471.686 78.3544 471.254L83.0239 467.12L83.1239 467.02C83.6341 467.292 84.1612 467.53 84.7018 467.734V473.382C84.7491 474.592 85.2628 475.736 86.1354 476.575C87.008 477.414 88.1715 477.883 89.3821 477.883C90.5927 477.883 91.7562 477.414 92.6288 476.575C93.5013 475.736 94.0151 474.592 94.0624 473.382V467.741C94.3908 467.62 94.7121 467.491 95.0263 467.341L99.603 471.29C100.068 471.692 100.608 471.998 101.191 472.191C101.775 472.384 102.39 472.461 103.003 472.416C103.616 472.371 104.214 472.206 104.764 471.93C105.313 471.654 105.802 471.273 106.204 470.808C106.606 470.343 106.912 469.803 107.105 469.22C107.298 468.636 107.375 468.021 107.33 467.408C107.285 466.795 107.12 466.197 106.844 465.647C106.568 465.098 106.187 464.609 105.722 464.207L101.645 460.694C101.795 460.373 101.923 460.044 102.045 459.716H108.05C109.291 459.714 110.48 459.22 111.357 458.342C112.234 457.463 112.726 456.273 112.726 455.032C112.726 454.418 112.605 453.81 112.37 453.242C112.135 452.675 111.791 452.16 111.357 451.725C110.922 451.291 110.407 450.946 109.839 450.711C109.272 450.476 108.664 450.355 108.05 450.355Z" fill="#FFE18B"/>
<path d="M39.6484 444.037C43.0712 444.037 45.8459 441.262 45.8459 437.839C45.8459 434.416 43.0712 431.642 39.6484 431.642C36.2256 431.642 33.4509 434.416 33.4509 437.839C33.4509 441.262 36.2256 444.037 39.6484 444.037Z" fill="white"/>
<path d="M89.4856 461.615C92.9084 461.615 95.6831 458.841 95.6831 455.418C95.6831 451.995 92.9084 449.22 89.4856 449.22C86.0628 449.22 83.2881 451.995 83.2881 455.418C83.2881 458.841 86.0628 461.615 89.4856 461.615Z" fill="white"/>
<path d="M97.6252 567.451C95.3036 567.451 93.0342 566.763 91.1038 565.473C89.1735 564.183 87.669 562.35 86.7806 560.205C85.8921 558.06 85.6597 555.7 86.1126 553.423C86.5655 551.146 87.6835 549.055 89.3251 547.413C90.9667 545.772 93.0582 544.654 95.3352 544.201C97.6122 543.748 99.9724 543.98 102.117 544.869C104.262 545.757 106.095 547.262 107.385 549.192C108.675 551.122 109.363 553.392 109.363 555.713C109.36 558.825 108.122 561.809 105.921 564.009C103.721 566.21 100.737 567.448 97.6252 567.451ZM97.6252 546.831C95.8685 546.831 94.1512 547.352 92.6906 548.328C91.2299 549.304 90.0914 550.691 89.4192 552.314C88.7469 553.937 88.571 555.723 88.9137 557.446C89.2564 559.169 90.1024 560.752 91.3446 561.994C92.5868 563.236 94.1694 564.082 95.8924 564.425C97.6154 564.767 99.4013 564.592 101.024 563.919C102.647 563.247 104.034 562.109 105.01 560.648C105.986 559.187 106.507 557.47 106.507 555.713C106.502 553.359 105.564 551.103 103.9 549.439C102.235 547.774 99.9792 546.837 97.6252 546.831Z" fill="#262626"/>
<path d="M79.1326 586.979C77.5242 586.979 75.9518 586.502 74.6145 585.609C73.2771 584.715 72.2347 583.445 71.6192 581.959C71.0037 580.473 70.8426 578.838 71.1564 577.26C71.4702 575.683 72.2448 574.234 73.3821 573.096C74.5194 571.959 75.9685 571.185 77.546 570.871C79.1236 570.557 80.7588 570.718 82.2448 571.334C83.7308 571.949 85.0009 572.991 85.8945 574.329C86.7881 575.666 87.2651 577.238 87.2651 578.847C87.2632 581.003 86.4058 583.071 84.881 584.595C83.3563 586.12 81.2889 586.977 79.1326 586.979ZM79.1326 573.57C78.089 573.57 77.0689 573.88 76.2012 574.46C75.3335 575.039 74.6572 575.864 74.2578 576.828C73.8584 577.792 73.7539 578.853 73.9575 579.876C74.1611 580.9 74.6637 581.84 75.4016 582.578C76.1395 583.316 77.0797 583.818 78.1032 584.022C79.1268 584.226 80.1877 584.121 81.1518 583.722C82.116 583.322 82.94 582.646 83.5198 581.778C84.0996 580.911 84.4091 579.891 84.4091 578.847C84.4072 577.448 83.8507 576.107 82.8615 575.118C81.8724 574.129 80.5314 573.572 79.1326 573.57Z" fill="#262626"/>
</svg>
