<svg width="714" height="714" viewBox="0 0 714 714" fill="none" xmlns="http://www.w3.org/2000/svg">
<path d="M483.314 95.8259L126.378 252.235C95.2262 265.886 90.5281 308.148 117.931 328.297L431.834 559.24C459.231 579.397 498.179 562.332 501.928 528.538L544.961 141.193C548.716 107.371 514.466 82.1742 483.314 95.8259Z" fill="#FFF1C9"/>
<path d="M599.988 576.512H78.3186C77.9399 576.512 77.5767 576.362 77.3089 576.094C77.0411 575.826 76.8906 575.463 76.8906 575.084C76.8906 574.706 77.0411 574.342 77.3089 574.074C77.5767 573.807 77.9399 573.656 78.3186 573.656H599.988C600.367 573.656 600.73 573.807 600.998 574.074C601.266 574.342 601.416 574.706 601.416 575.084C601.416 575.463 601.266 575.826 600.998 576.094C600.73 576.362 600.367 576.512 599.988 576.512Z" fill="#262626"/>
<path d="M404.288 292.619L422.095 233.771C422.343 232.949 422.77 232.193 423.344 231.555C423.918 230.917 424.626 230.414 425.417 230.081C426.208 229.748 427.063 229.594 427.92 229.63C428.778 229.665 429.617 229.889 430.378 230.286L449.599 240.282C450.43 240.715 451.144 241.341 451.682 242.108C452.22 242.875 452.565 243.761 452.688 244.69C452.812 245.618 452.709 246.563 452.39 247.444C452.071 248.325 451.545 249.116 450.855 249.75L404.288 292.619Z" fill="#D3B970"/>
<path d="M399.726 290.312L450.534 258.682C451.323 258.192 452.212 257.885 453.136 257.785C454.059 257.684 454.993 257.793 455.869 258.103C456.745 258.413 457.54 258.916 458.194 259.575C458.849 260.234 459.347 261.032 459.652 261.91L466.392 281.423C466.712 282.35 466.807 283.339 466.67 284.309C466.533 285.28 466.168 286.204 465.604 287.006C465.04 287.808 464.294 288.464 463.426 288.921C462.559 289.378 461.596 289.622 460.616 289.634L399.726 290.312Z" fill="#D3B970"/>
<path d="M327.883 399.205C351.539 399.205 370.716 380.028 370.716 356.372C370.716 332.716 351.539 313.539 327.883 313.539C304.227 313.539 285.05 332.716 285.05 356.372C285.05 380.028 304.227 399.205 327.883 399.205Z" fill="#262626"/>
<path d="M235.699 170.175H67.4944C56.808 170.175 48.145 178.838 48.145 189.524V263.994C48.145 274.681 56.808 283.344 67.4944 283.344H235.699C246.385 283.344 255.048 274.681 255.048 263.994V189.524C255.048 178.838 246.385 170.175 235.699 170.175Z" fill="white"/>
<path d="M235.699 284.772H67.5016C61.9909 284.766 56.7076 282.575 52.811 278.678C48.9143 274.781 46.7227 269.498 46.717 263.987V189.531C46.7227 184.021 48.9143 178.737 52.811 174.841C56.7076 170.944 61.9909 168.752 67.5016 168.747H235.699C241.208 168.754 246.49 170.947 250.385 174.843C254.28 178.74 256.47 184.022 256.476 189.531V263.987C256.47 269.497 254.28 274.779 250.385 278.675C246.49 282.572 241.208 284.764 235.699 284.772ZM67.5016 171.603C62.7478 171.607 58.1898 173.497 54.8284 176.858C51.4669 180.22 49.5768 184.778 49.573 189.531V263.987C49.5768 268.741 51.4669 273.299 54.8284 276.661C58.1898 280.022 62.7478 281.912 67.5016 281.916H235.699C240.451 281.91 245.007 280.019 248.367 276.658C251.727 273.297 253.616 268.74 253.62 263.987V189.531C253.616 184.779 251.727 180.222 248.367 176.861C245.007 173.499 240.451 171.608 235.699 171.603H67.5016Z" fill="#262626"/>
<path d="M85.9085 208.359C85.5359 208.36 85.1779 208.214 84.9111 207.954C84.6443 207.694 84.4898 207.34 84.4805 206.967C84.3448 201.155 86.494 197.685 88.3289 195.793C90.3531 193.653 93.1388 192.396 96.083 192.294H96.1615C99.0049 192.355 101.71 193.535 103.687 195.579C105.558 197.457 107.778 200.955 107.707 206.946C107.707 207.324 107.556 207.688 107.289 207.955C107.021 208.223 106.658 208.374 106.279 208.374C105.9 208.374 105.537 208.223 105.269 207.955C105.001 207.688 104.851 207.324 104.851 206.946C104.908 201.948 103.152 199.092 101.666 197.628C100.215 196.131 98.2386 195.256 96.1544 195.186H96.1044C93.9305 195.283 91.8807 196.226 90.3924 197.814C88.3147 199.956 87.2579 203.112 87.3508 206.931C87.3555 207.119 87.3232 207.306 87.2558 207.481C87.1884 207.656 87.0872 207.816 86.9579 207.952C86.8286 208.088 86.6738 208.197 86.5023 208.273C86.3308 208.349 86.146 208.39 85.9585 208.395L85.9085 208.359Z" fill="#262626"/>
<path d="M116.61 263.402H75.7839C74.7841 263.401 73.7958 263.187 72.8854 262.774C71.9749 262.361 71.1633 261.758 70.5048 261.005C69.8463 260.253 69.3562 259.368 69.0673 258.411C68.7784 257.454 68.6974 256.446 68.8296 255.455L74.5416 213.015C74.7666 211.33 75.5958 209.785 76.875 208.666C78.1543 207.547 79.7964 206.93 81.496 206.932H109.956C111.628 206.932 113.245 207.529 114.516 208.615C115.787 209.701 116.629 211.206 116.889 212.858L123.522 255.305C123.68 256.304 123.619 257.326 123.345 258.299C123.07 259.273 122.588 260.176 121.931 260.945C121.274 261.714 120.458 262.332 119.54 262.757C118.621 263.181 117.622 263.401 116.61 263.402Z" fill="#FFE18B"/>
<path d="M227.53 200.456H150.169C147.097 200.456 144.606 202.946 144.606 206.018V210.337C144.606 213.409 147.097 215.899 150.169 215.899H227.53C230.602 215.899 233.092 213.409 233.092 210.337V206.018C233.092 202.946 230.602 200.456 227.53 200.456Z" fill="#FFBB45"/>
<path d="M229.401 235.449H148.305C147.926 235.449 147.563 235.298 147.295 235.03C147.027 234.763 146.877 234.399 146.877 234.021C146.877 233.642 147.027 233.279 147.295 233.011C147.563 232.743 147.926 232.593 148.305 232.593H229.401C229.78 232.593 230.143 232.743 230.411 233.011C230.679 233.279 230.829 233.642 230.829 234.021C230.829 234.399 230.679 234.763 230.411 235.03C230.143 235.298 229.78 235.449 229.401 235.449Z" fill="#262626"/>
<path d="M217.984 253.798H148.305C147.926 253.798 147.563 253.648 147.295 253.38C147.027 253.112 146.877 252.749 146.877 252.37C146.877 251.992 147.027 251.628 147.295 251.361C147.563 251.093 147.926 250.942 148.305 250.942H217.984C218.363 250.942 218.726 251.093 218.994 251.361C219.262 251.628 219.412 251.992 219.412 252.37C219.412 252.749 219.262 253.112 218.994 253.38C218.726 253.648 218.363 253.798 217.984 253.798Z" fill="#262626"/>
<path d="M455.975 436.161C480.707 436.161 500.757 416.239 500.757 391.665C500.757 367.09 480.707 347.168 455.975 347.168C431.242 347.168 411.193 367.09 411.193 391.665C411.193 416.239 431.242 436.161 455.975 436.161Z" fill="#262626"/>
<path d="M411.193 376.128C435.925 376.128 455.975 356.206 455.975 331.632C455.975 307.057 435.925 287.135 411.193 287.135C386.46 287.135 366.411 307.057 366.411 331.632C366.411 356.206 386.46 376.128 411.193 376.128Z" fill="#262626"/>
<path d="M371.851 324.484H344.633C337.933 324.484 331.299 323.165 325.109 320.6C318.919 318.036 313.295 314.278 308.558 309.54C303.82 304.802 300.063 299.177 297.499 292.987C294.936 286.797 293.617 280.162 293.618 273.462V238.647C293.628 230.644 296.814 222.972 302.477 217.317C308.14 211.662 315.817 208.486 323.82 208.488H360.57C373.023 208.488 384.965 213.435 393.77 222.24C402.576 231.045 407.523 242.988 407.523 255.441V288.877C407.519 293.558 406.593 298.191 404.798 302.514C403.004 306.837 400.375 310.763 397.062 314.07C393.75 317.376 389.818 319.998 385.493 321.785C381.167 323.572 376.531 324.489 371.851 324.484Z" fill="#262626"/>
<path d="M304.878 220.412C304.878 220.412 288.727 222.797 284.486 256.954C283.985 261.127 282.184 265.036 279.338 268.128L276.739 270.942C276.084 271.65 275.711 272.574 275.691 273.538C275.672 274.503 276.006 275.441 276.632 276.175L280.152 280.316L278.374 302.165C278.374 302.165 274.804 325.448 302.215 324.727H319.651V348.882H374.45V307.363C374.45 307.363 386.938 305.221 389.209 292.926C389.782 289.852 389.652 286.689 388.829 283.673C388.005 280.657 386.509 277.867 384.453 275.511C380.362 270.877 373.151 266.943 361.277 272.484C361.284 272.484 314.117 281.952 304.878 220.412Z" fill="white"/>
<path d="M370.716 298.202C369.586 298.202 368.482 297.867 367.542 297.239C366.603 296.612 365.871 295.72 365.439 294.676C365.006 293.632 364.893 292.484 365.114 291.376C365.334 290.268 365.878 289.25 366.677 288.451C367.476 287.652 368.494 287.108 369.602 286.888C370.71 286.667 371.858 286.781 372.902 287.213C373.946 287.645 374.838 288.377 375.465 289.317C376.093 290.256 376.428 291.36 376.428 292.49C376.428 294.005 375.826 295.458 374.755 296.529C373.684 297.6 372.231 298.202 370.716 298.202ZM370.716 289.591C370.151 289.591 369.599 289.759 369.129 290.073C368.66 290.386 368.293 290.832 368.077 291.354C367.861 291.876 367.805 292.45 367.915 293.004C368.025 293.558 368.297 294.067 368.696 294.467C369.096 294.866 369.605 295.138 370.159 295.248C370.713 295.359 371.287 295.302 371.809 295.086C372.331 294.87 372.777 294.504 373.091 294.034C373.404 293.564 373.572 293.012 373.572 292.447C373.572 291.69 373.271 290.963 372.735 290.428C372.2 289.892 371.473 289.591 370.716 289.591Z" fill="#262626"/>
<path d="M366.411 293.897C366.039 293.897 365.682 293.752 365.416 293.494C365.149 293.235 364.994 292.883 364.983 292.512C364.883 289.563 365.761 287.178 367.603 285.422C371.259 281.937 377.363 282.38 377.599 282.401C377.978 282.431 378.329 282.609 378.576 282.898C378.823 283.186 378.946 283.561 378.916 283.94C378.887 284.319 378.708 284.67 378.42 284.917C378.131 285.164 377.756 285.287 377.378 285.257C377.328 285.257 372.265 284.9 369.524 287.514C368.288 288.699 367.724 290.305 367.796 292.433C367.802 292.621 367.772 292.809 367.706 292.985C367.64 293.161 367.539 293.323 367.411 293.46C367.282 293.598 367.127 293.708 366.956 293.785C366.784 293.863 366.599 293.906 366.411 293.911V293.897Z" fill="#262626"/>
<path d="M310.626 272.441C312.491 272.441 314.003 270.929 314.003 269.064C314.003 267.199 312.491 265.687 310.626 265.687C308.761 265.687 307.249 267.199 307.249 269.064C307.249 270.929 308.761 272.441 310.626 272.441Z" fill="#262626"/>
<path d="M298.766 300.922C297.391 300.928 296.029 300.656 294.761 300.123C290.655 298.388 287.899 293.811 287.906 288.742C287.908 288.316 288.003 287.897 288.184 287.512C288.365 287.128 288.628 286.787 288.954 286.515C289.281 286.243 289.663 286.046 290.074 285.937C290.485 285.828 290.915 285.811 291.333 285.886L308.362 288.927C308.798 289.008 309.209 289.186 309.566 289.448C309.922 289.711 310.215 290.051 310.421 290.442C310.627 290.834 310.742 291.268 310.756 291.71C310.771 292.153 310.685 292.593 310.504 292.997C308.32 297.852 303.486 300.922 298.766 300.922ZM290.819 288.663C290.811 288.684 290.811 288.707 290.819 288.727C290.819 292.669 292.869 296.181 295.932 297.481C300.63 299.466 306.042 296.053 307.963 291.769L307.92 291.683L290.884 288.642L290.819 288.663Z" fill="#262626"/>
<path d="M319.201 324.756H345.383C345.615 324.758 345.84 324.839 346.019 324.986C346.198 325.134 346.321 325.338 346.368 325.565C346.415 325.792 346.382 326.029 346.276 326.235C346.169 326.441 345.995 326.604 345.783 326.698L319.201 338.05V324.756Z" fill="#262626"/>
<path d="M319.201 348.325C319.195 347.023 319.609 345.753 320.38 344.704C321.152 343.655 322.24 342.882 323.485 342.499C324.437 342.21 325.415 342.014 326.405 341.913C330.145 341.567 333.892 342.495 337.037 344.548C339.663 342.513 342.889 341.405 346.211 341.397C349.534 341.39 352.765 342.482 355.401 344.505C358.06 342.719 361.167 341.715 364.369 341.606C366.377 341.551 368.379 341.855 370.28 342.506C371.465 342.92 372.491 343.692 373.217 344.715C373.942 345.739 374.331 346.963 374.329 348.218V360.713H319.201V348.325Z" fill="#FFE18B"/>
<path d="M531.766 528.574L216.713 528.31L230.679 400.454C232.003 388.337 237.747 377.134 246.812 368.985C255.877 360.837 267.628 356.316 279.817 356.286L410.057 355.958C425.253 355.921 440.113 360.424 452.731 368.891C465.35 377.357 475.151 389.4 480.879 403.474C507.297 464.221 526.411 508.575 528.496 513.837C529.488 516.417 530.283 519.069 530.873 521.77C531.337 524.013 531.635 526.287 531.766 528.574Z" fill="#FFE18B"/>
<path d="M436.447 528.41H274.954V418.961H396.827C398.492 418.961 400.113 419.494 401.453 420.482C402.793 421.47 403.781 422.861 404.274 424.452L436.447 528.41Z" fill="#262626"/>
<path d="M396.805 420.389C396.465 420.394 396.134 420.277 395.873 420.06C395.611 419.843 395.435 419.539 395.377 419.204C394.978 416.84 385.788 361.291 404.959 354.615C405.317 354.49 405.71 354.513 406.052 354.677C406.393 354.842 406.655 355.136 406.78 355.494C406.905 355.851 406.883 356.244 406.718 356.586C406.553 356.927 406.26 357.189 405.902 357.314C391.857 362.198 395.577 403.303 398.198 418.718C398.229 418.903 398.224 419.093 398.183 419.276C398.141 419.46 398.063 419.633 397.955 419.786C397.846 419.939 397.708 420.069 397.549 420.169C397.389 420.269 397.212 420.336 397.027 420.368C396.954 420.381 396.88 420.388 396.805 420.389Z" fill="#262626"/>
<path d="M278.524 420.389C278.202 420.39 277.889 420.281 277.637 420.082C277.384 419.882 277.206 419.603 277.132 419.289C273.403 403.746 273.303 387.554 276.839 371.966C278.121 366.416 279.87 360.985 282.066 355.729C282.218 355.39 282.497 355.124 282.843 354.987C283.189 354.851 283.575 354.854 283.918 354.998C284.261 355.141 284.535 355.412 284.681 355.754C284.827 356.096 284.834 356.482 284.7 356.829C282.568 361.937 280.87 367.215 279.624 372.608C276.184 387.771 276.284 403.522 279.917 418.64C279.959 418.823 279.965 419.012 279.934 419.197C279.903 419.382 279.836 419.559 279.736 419.718C279.637 419.878 279.507 420.016 279.354 420.125C279.201 420.233 279.028 420.311 278.846 420.353C278.74 420.379 278.632 420.391 278.524 420.389Z" fill="#262626"/>
<path d="M258.111 331.096C256.626 329.177 254.923 327.437 253.034 325.912L252.956 325.841C249.425 322.707 246.357 319.086 243.845 315.088C241.618 311.518 240.275 307.862 238.09 302.236C236.998 299.437 236.227 297.238 235.798 296.01C230.708 281.387 227.366 268.278 222.197 266.393C221.418 266.129 220.61 265.964 219.791 265.901C218.7 265.798 217.599 265.916 216.555 266.246C215.51 266.575 214.542 267.111 213.707 267.821C213.154 268.294 212.673 268.844 212.279 269.456C210.28 272.634 211.273 277.239 213.322 286.314C213.65 287.742 213.943 288.92 214.136 289.705L218.284 308.726C218.284 308.726 208.088 311.033 208.659 319.115C208.659 319.115 199.235 313.532 195.579 324.499C195.579 324.499 183.655 325.463 187.118 338.543C187.118 338.543 191.923 356.05 199.042 356.629C199.042 356.629 197.699 383.946 220.398 395.899L257.526 391.229L259.967 380.648C266.393 352.802 263.495 343.77 262.416 340.428C261.374 337.151 259.928 334.016 258.111 331.096Z" fill="white"/>
<path d="M225.21 380.412C224.985 380.413 224.762 380.36 224.561 380.258C224.36 380.156 224.186 380.008 224.053 379.827C219.767 374.007 217.105 367.151 216.342 359.963C214.721 343.541 224.103 331.403 227.945 327.226L224.967 319.544C224.674 318.765 224.296 317.773 223.875 316.787C221.511 311.297 220.448 306.684 220.719 303.072C220.796 301.98 221.093 300.916 221.592 299.943C222.092 298.97 222.783 298.108 223.625 297.41C224.449 296.722 225.405 296.209 226.433 295.902C227.462 295.596 228.542 295.501 229.608 295.625C236.077 296.339 239.947 303.736 240.111 304.043C240.197 304.209 240.25 304.392 240.266 304.579C240.282 304.766 240.26 304.955 240.203 305.134C240.146 305.313 240.055 305.479 239.933 305.622C239.812 305.766 239.664 305.884 239.497 305.97C239.33 306.057 239.148 306.109 238.961 306.125C238.774 306.141 238.585 306.12 238.406 306.063C238.227 306.006 238.061 305.914 237.917 305.793C237.774 305.672 237.656 305.523 237.569 305.356C237.569 305.292 234.235 299.009 229.294 298.466C228.609 298.386 227.914 298.446 227.252 298.642C226.591 298.838 225.976 299.167 225.446 299.609C224.9 300.062 224.452 300.622 224.129 301.254C223.806 301.887 223.615 302.578 223.568 303.286C223.332 306.434 224.317 310.597 226.495 315.659C226.945 316.695 227.338 317.737 227.638 318.515L231.265 327.869L230.629 328.526C227.538 331.731 217.584 343.448 219.205 359.67C219.909 366.346 222.373 372.716 226.345 378.127C226.568 378.432 226.661 378.813 226.603 379.187C226.546 379.56 226.342 379.895 226.038 380.119C225.8 380.301 225.51 380.404 225.21 380.412Z" fill="#262626"/>
<path d="M306.092 521.434C296.423 520.797 286.719 521.949 277.468 524.833C243.046 535.678 227.773 567.466 224.532 574.663L306.092 575.084V521.434Z" fill="white"/>
<path d="M307.52 576.519L222.325 576.077L223.225 574.077C228.551 562.282 244.445 533.744 277.039 523.469C286.456 520.532 296.334 519.358 306.177 520.006L307.52 520.092V576.519ZM226.766 573.249L304.664 573.649V522.784C295.609 522.343 286.547 523.505 277.896 526.218C248.115 535.579 232.714 560.847 226.766 573.249Z" fill="#262626"/>
<path d="M212.436 360.57C211.042 360.584 209.663 360.281 208.402 359.685C206.833 358.916 205.502 357.733 204.554 356.265C204.064 356.862 203.454 357.349 202.762 357.693C201.449 358.314 199.947 358.404 198.571 357.942C198.394 357.878 198.232 357.78 198.094 357.653C197.956 357.526 197.844 357.374 197.765 357.203C197.685 357.033 197.64 356.849 197.632 356.662C197.624 356.475 197.653 356.287 197.717 356.111C197.782 355.935 197.88 355.773 198.007 355.635C198.133 355.496 198.286 355.384 198.456 355.305C198.626 355.226 198.81 355.181 198.998 355.173C199.185 355.165 199.372 355.194 199.549 355.258C200.2 355.454 200.901 355.405 201.519 355.122C201.951 354.845 202.323 354.484 202.613 354.061C202.904 353.638 203.107 353.161 203.212 352.659L204.64 348.011L205.975 352.68C205.975 352.68 206.924 355.8 209.68 357.1C211.637 358.028 214.121 357.864 217.063 356.622C217.237 356.54 217.426 356.494 217.618 356.487C217.81 356.48 218.001 356.511 218.181 356.58C218.36 356.648 218.524 356.753 218.662 356.886C218.801 357.019 218.911 357.179 218.986 357.356C219.061 357.533 219.099 357.724 219.099 357.916C219.099 358.108 219.06 358.298 218.984 358.475C218.909 358.652 218.798 358.811 218.66 358.944C218.521 359.077 218.357 359.181 218.177 359.249C216.371 360.069 214.419 360.518 212.436 360.57Z" fill="#262626"/>
<path d="M204.575 354.515C204.272 354.514 203.978 354.417 203.734 354.237C203.49 354.057 203.31 353.805 203.219 353.516L194.208 324.913C194.094 324.551 194.129 324.159 194.305 323.823C194.48 323.487 194.782 323.234 195.143 323.121C195.505 323.007 195.897 323.042 196.233 323.217C196.569 323.393 196.822 323.694 196.936 324.056L205.911 352.659C205.967 352.838 205.988 353.026 205.971 353.213C205.955 353.4 205.901 353.582 205.815 353.749C205.728 353.915 205.609 354.063 205.465 354.184C205.321 354.304 205.154 354.395 204.975 354.451C204.846 354.491 204.711 354.513 204.575 354.515Z" fill="#262626"/>
<path d="M218.712 348.596C218.418 348.596 218.131 348.504 217.891 348.334C217.651 348.164 217.469 347.924 217.37 347.647L207.338 319.579C207.275 319.403 207.247 319.215 207.256 319.028C207.266 318.84 207.312 318.656 207.392 318.486C207.472 318.317 207.585 318.164 207.724 318.038C207.863 317.912 208.026 317.815 208.202 317.751C208.379 317.688 208.567 317.66 208.754 317.669C208.942 317.679 209.125 317.725 209.295 317.805C209.465 317.885 209.617 317.998 209.743 318.137C209.869 318.276 209.967 318.439 210.03 318.615L220.026 346.69C220.103 346.906 220.127 347.137 220.095 347.364C220.064 347.59 219.979 347.806 219.846 347.993C219.714 348.18 219.539 348.333 219.335 348.437C219.132 348.542 218.906 348.597 218.677 348.596H218.712Z" fill="#262626"/>
<path d="M592.584 190.717H499.157C485.608 190.717 474.624 201.699 474.624 215.246C474.624 228.793 485.608 239.776 499.157 239.776H592.584C606.133 239.776 617.117 228.793 617.117 215.246C617.117 201.699 606.133 190.717 592.584 190.717Z" fill="white"/>
<path d="M592.62 241.211H499.15C492.265 241.211 485.662 238.475 480.793 233.607C475.924 228.738 473.189 222.135 473.189 215.25C473.189 208.364 475.924 201.761 480.793 196.892C485.662 192.024 492.265 189.289 499.15 189.289H592.62C599.505 189.289 606.109 192.024 610.977 196.892C615.846 201.761 618.581 208.364 618.581 215.25C618.581 222.135 615.846 228.738 610.977 233.607C606.109 238.475 599.505 241.211 592.62 241.211ZM499.15 192.145C493.022 192.145 487.146 194.579 482.813 198.912C478.479 203.245 476.045 209.122 476.045 215.25C476.045 221.377 478.479 227.254 482.813 231.587C487.146 235.92 493.022 238.355 499.15 238.355H592.62C598.748 238.355 604.625 235.92 608.958 231.587C613.291 227.254 615.725 221.377 615.725 215.25C615.725 209.122 613.291 203.245 608.958 198.912C604.625 194.579 598.748 192.145 592.62 192.145H499.15Z" fill="#262626"/>
<path d="M507.047 223.239C511.46 223.239 515.037 219.662 515.037 215.25C515.037 210.837 511.46 207.26 507.047 207.26C502.634 207.26 499.057 210.837 499.057 215.25C499.057 219.662 502.634 223.239 507.047 223.239Z" fill="#F9B800"/>
<path d="M545.867 223.239C550.28 223.239 553.857 219.662 553.857 215.25C553.857 210.837 550.28 207.26 545.867 207.26C541.455 207.26 537.878 210.837 537.878 215.25C537.878 219.662 541.455 223.239 545.867 223.239Z" fill="#F9B800"/>
<path d="M584.687 223.239C589.1 223.239 592.677 219.662 592.677 215.25C592.677 210.837 589.1 207.26 584.687 207.26C580.275 207.26 576.698 210.837 576.698 215.25C576.698 219.662 580.275 223.239 584.687 223.239Z" fill="#F9B800"/>
<path d="M125.843 325.198H80.4678C71.1774 325.198 63.646 332.73 63.646 342.02V387.395C63.646 396.685 71.1774 404.217 80.4678 404.217H125.843C135.133 404.217 142.664 396.685 142.664 387.395V342.02C142.664 332.73 135.133 325.198 125.843 325.198Z" fill="white"/>
<path d="M125.835 405.645H80.4679C75.6288 405.637 70.9902 403.711 67.5691 400.289C64.148 396.866 62.2237 392.227 62.218 387.388V342.006C62.2237 337.167 64.148 332.528 67.5691 329.105C70.9902 325.683 75.6288 323.757 80.4679 323.749H125.835C130.676 323.755 135.316 325.68 138.739 329.103C142.161 332.525 144.087 337.166 144.092 342.006V387.366C144.092 392.21 142.17 396.856 138.746 400.284C135.323 403.711 130.679 405.639 125.835 405.645ZM80.4679 326.626C76.3888 326.63 72.4777 328.251 69.592 331.134C66.7063 334.017 65.0816 337.927 65.074 342.006V387.366C65.0778 391.449 66.7006 395.363 69.5865 398.25C72.4724 401.137 76.3857 402.762 80.4679 402.767H125.835C129.918 402.762 133.832 401.137 136.719 398.25C139.606 395.363 141.231 391.449 141.236 387.366V342.006C141.233 337.923 139.609 334.007 136.721 331.12C133.834 328.233 129.919 326.609 125.835 326.605L80.4679 326.626Z" fill="#262626"/>
<path d="M125.193 351.795C124.32 350.192 123.017 348.864 121.43 347.961C114.14 343.884 106.779 346.411 103.173 351.709C99.5174 346.347 92.0132 343.812 84.609 348.139C83.2656 348.921 82.1428 350.032 81.3461 351.367C77.9974 356.993 78.6543 362.641 81.4674 366.66C81.5182 366.733 81.573 366.802 81.6317 366.867V366.903C81.6888 366.982 85.2731 371.137 87.515 373.408C91.7949 377.577 96.2821 381.528 100.96 385.246C101.565 385.739 102.321 386.008 103.102 386.008C103.882 386.008 104.639 385.739 105.244 385.246C109.278 382.026 112.555 379.234 114.99 377.099C116.85 375.551 118.605 373.881 120.245 372.101C123.743 368.238 131.447 363.176 125.193 351.795Z" fill="#D3B970"/>
<path d="M641.765 295.525H502.499C489.241 295.525 478.494 306.272 478.494 319.529V471.99C478.494 485.247 489.241 495.994 502.499 495.994H641.765C655.022 495.994 665.769 485.247 665.769 471.99V319.529C665.769 306.272 655.022 295.525 641.765 295.525Z" fill="white"/>
<path d="M641.765 497.422H502.499C495.756 497.415 489.292 494.733 484.524 489.965C479.756 485.197 477.074 478.732 477.066 471.99V319.529C477.074 312.786 479.756 306.322 484.524 301.554C489.292 296.786 495.756 294.104 502.499 294.097H641.765C648.507 294.104 654.972 296.786 659.74 301.554C664.508 306.322 667.19 312.786 667.197 319.529V471.99C667.19 478.732 664.508 485.197 659.74 489.965C654.972 494.733 648.507 497.415 641.765 497.422ZM502.499 296.953C496.513 296.96 490.775 299.341 486.543 303.573C482.311 307.806 479.93 313.544 479.922 319.529V471.99C479.93 477.975 482.311 483.713 486.543 487.945C490.775 492.178 496.513 494.559 502.499 494.566H641.765C647.75 494.559 653.488 492.178 657.72 487.945C661.953 483.713 664.334 477.975 664.341 471.99V319.529C664.336 313.543 661.955 307.804 657.722 303.571C653.49 299.339 647.751 296.958 641.765 296.953H502.499Z" fill="#262626"/>
<path d="M525.283 370.916H506.654C501.248 370.916 496.865 375.298 496.865 380.705V399.333C496.865 404.739 501.248 409.122 506.654 409.122H525.283C530.689 409.122 535.072 404.739 535.072 399.333V380.705C535.072 375.298 530.689 370.916 525.283 370.916Z" fill="#FFF1C9"/>
<path d="M525.283 428.914H506.654C501.248 428.914 496.865 433.297 496.865 438.703V457.331C496.865 462.738 501.248 467.12 506.654 467.12H525.283C530.689 467.12 535.072 462.738 535.072 457.331V438.703C535.072 433.297 530.689 428.914 525.283 428.914Z" fill="#FFF1C9"/>
<path d="M644.892 380.726H558.655C558.276 380.726 557.913 380.576 557.645 380.308C557.378 380.04 557.227 379.677 557.227 379.298C557.227 378.92 557.378 378.556 557.645 378.289C557.913 378.021 558.276 377.87 558.655 377.87H644.892C645.271 377.87 645.634 378.021 645.902 378.289C646.17 378.556 646.32 378.92 646.32 379.298C646.32 379.677 646.17 380.04 645.902 380.308C645.634 380.576 645.271 380.726 644.892 380.726Z" fill="#262626"/>
<path d="M611.812 401.753H558.655C558.276 401.753 557.913 401.603 557.645 401.335C557.378 401.067 557.227 400.704 557.227 400.325C557.227 399.947 557.378 399.584 557.645 399.316C557.913 399.048 558.276 398.897 558.655 398.897H611.812C612.191 398.897 612.554 399.048 612.822 399.316C613.09 399.584 613.24 399.947 613.24 400.325C613.24 400.704 613.09 401.067 612.822 401.335C612.554 401.603 612.191 401.753 611.812 401.753Z" fill="#262626"/>
<path d="M644.892 438.931H558.655C558.276 438.931 557.913 438.781 557.645 438.513C557.378 438.245 557.227 437.882 557.227 437.503C557.227 437.125 557.378 436.762 557.645 436.494C557.913 436.226 558.276 436.075 558.655 436.075H644.892C645.271 436.075 645.634 436.226 645.902 436.494C646.17 436.762 646.32 437.125 646.32 437.503C646.32 437.882 646.17 438.245 645.902 438.513C645.634 438.781 645.271 438.931 644.892 438.931Z" fill="#262626"/>
<path d="M611.812 459.959H558.655C558.276 459.959 557.913 459.808 557.645 459.541C557.378 459.273 557.227 458.91 557.227 458.531C557.227 458.152 557.378 457.789 557.645 457.521C557.913 457.253 558.276 457.103 558.655 457.103H611.812C612.191 457.103 612.554 457.253 612.822 457.521C613.09 457.789 613.24 458.152 613.24 458.531C613.24 458.91 613.09 459.273 612.822 459.541C612.554 459.808 612.191 459.959 611.812 459.959Z" fill="#262626"/>
<path d="M530.937 322.392C530.342 321.294 529.449 320.386 528.36 319.772C523.362 316.973 518.321 318.708 515.851 322.342C513.345 318.665 508.204 316.93 503.141 319.879C502.224 320.42 501.457 321.184 500.914 322.1C498.615 325.948 499.065 329.818 500.992 332.574C501.026 332.625 501.065 332.672 501.107 332.717C501.149 332.774 503.606 335.623 505.141 337.179C506.454 338.5 509.696 341.528 514.351 345.283C514.765 345.616 515.28 345.798 515.811 345.798C516.343 345.798 516.858 345.616 517.272 345.283C520.035 343.07 522.27 341.156 523.947 339.7C525.209 338.639 526.401 337.499 527.517 336.287C529.945 333.666 535.229 330.196 530.937 322.392Z" fill="#D3B970"/>
<path d="M470.655 589.685H316.002C313.642 589.686 311.306 589.222 309.125 588.32C306.945 587.418 304.964 586.095 303.295 584.426C301.626 582.758 300.302 580.777 299.399 578.597C298.496 576.417 298.031 574.081 298.031 571.721V542.069C298.033 531.49 302.236 521.344 309.717 513.864C317.197 506.383 327.343 502.18 337.922 502.178H505.369C512.376 502.178 519.095 504.961 524.05 509.915C529.004 514.87 531.787 521.589 531.787 528.596C531.784 536.621 530.201 544.567 527.127 551.98C524.053 559.394 519.55 566.129 513.873 571.801C508.196 577.474 501.458 581.973 494.042 585.042C486.627 588.11 478.68 589.688 470.655 589.685Z" fill="#FFE18B"/>
<path d="M231.5 592.52C225.098 592.387 218.784 590.995 212.92 588.422C207.056 585.849 201.756 582.146 197.323 577.525C192.89 572.904 189.411 567.454 187.084 561.488C184.757 555.522 183.629 549.157 183.762 542.754L186.425 414.627C186.581 407.269 189.652 400.274 194.963 395.179C200.275 390.085 207.392 387.308 214.75 387.459L256.769 388.337C264.121 388.497 271.109 391.569 276.197 396.879C281.285 402.189 284.056 409.302 283.901 416.655L281.266 544.782C281.133 551.184 279.741 557.498 277.168 563.362C274.595 569.226 270.892 574.526 266.271 578.959C261.65 583.392 256.2 586.871 250.234 589.198C244.268 591.525 237.903 592.654 231.5 592.52Z" fill="#FFE18B"/>
<path d="M460.173 502.17H421.403C421.024 502.17 420.661 502.02 420.393 501.752C420.125 501.484 419.975 501.121 419.975 500.742C419.975 500.364 420.125 500 420.393 499.733C420.661 499.465 421.024 499.314 421.403 499.314H460.173C460.552 499.314 460.915 499.465 461.183 499.733C461.451 500 461.601 500.364 461.601 500.742C461.601 501.121 461.451 501.484 461.183 501.752C460.915 502.02 460.552 502.17 460.173 502.17Z" fill="#262626"/>
<path d="M415.405 294.575C413.353 294.575 411.347 293.967 409.64 292.827C407.933 291.687 406.602 290.067 405.816 288.171C405.03 286.276 404.823 284.189 405.222 282.176C405.62 280.163 406.607 278.313 408.057 276.86C409.507 275.407 411.354 274.417 413.367 274.014C415.379 273.611 417.466 273.814 419.363 274.596C421.261 275.378 422.883 276.706 424.027 278.41C425.17 280.115 425.783 282.12 425.787 284.172C425.789 285.537 425.522 286.889 425.001 288.15C424.48 289.412 423.716 290.559 422.752 291.525C421.787 292.491 420.642 293.257 419.382 293.781C418.121 294.304 416.77 294.574 415.405 294.575ZM415.405 276.668C413.916 276.668 412.46 277.11 411.222 277.938C409.984 278.766 409.019 279.942 408.45 281.319C407.882 282.695 407.734 284.209 408.026 285.67C408.318 287.13 409.037 288.471 410.091 289.522C411.146 290.574 412.489 291.289 413.95 291.577C415.411 291.865 416.925 291.713 418.3 291.14C419.675 290.567 420.849 289.599 421.673 288.359C422.497 287.118 422.935 285.661 422.931 284.172C422.923 282.18 422.127 280.273 420.717 278.867C419.307 277.46 417.397 276.67 415.405 276.668Z" fill="#262626"/>
<path d="M284.101 420.389C283.722 420.389 283.359 420.239 283.091 419.971C282.823 419.703 282.673 419.34 282.673 418.961C282.487 390.465 259.182 389.844 258.204 389.844C257.825 389.844 257.462 389.694 257.194 389.426C256.926 389.158 256.776 388.795 256.776 388.416C256.776 388.037 256.926 387.674 257.194 387.406C257.462 387.139 257.825 386.988 258.204 386.988C258.475 386.988 285.293 387.609 285.5 418.968C285.5 419.347 285.35 419.71 285.082 419.978C284.814 420.246 284.451 420.396 284.072 420.396L284.101 420.389Z" fill="#262626"/>
<path d="M367.581 357.8H323.313C322.935 357.8 322.572 357.649 322.304 357.381C322.036 357.114 321.885 356.75 321.885 356.372C321.885 355.993 322.036 355.63 322.304 355.362C322.572 355.094 322.935 354.944 323.313 354.944H367.581C367.96 354.944 368.323 355.094 368.591 355.362C368.859 355.63 369.009 355.993 369.009 356.372C369.009 356.75 368.859 357.114 368.591 357.381C368.323 357.649 367.96 357.8 367.581 357.8Z" fill="#262626"/>
<path d="M325.627 584.138C325.248 584.138 324.885 583.987 324.617 583.719C324.349 583.452 324.199 583.088 324.199 582.71V517.936C324.199 517.557 324.349 517.194 324.617 516.926C324.885 516.658 325.248 516.508 325.627 516.508C326.006 516.508 326.369 516.658 326.637 516.926C326.904 517.194 327.055 517.557 327.055 517.936V582.71C327.055 583.088 326.904 583.452 326.637 583.719C326.369 583.987 326.006 584.138 325.627 584.138Z" fill="#262626"/>
<path d="M266.786 414.32H202.019C201.64 414.32 201.277 414.17 201.009 413.902C200.742 413.634 200.591 413.271 200.591 412.892C200.591 412.513 200.742 412.15 201.009 411.882C201.277 411.614 201.64 411.464 202.019 411.464H266.786C267.165 411.464 267.528 411.614 267.796 411.882C268.064 412.15 268.214 412.513 268.214 412.892C268.214 413.271 268.064 413.634 267.796 413.902C267.528 414.17 267.165 414.32 266.786 414.32Z" fill="#262626"/>
<path d="M111.255 511.145C110.963 511.146 110.677 511.056 110.437 510.889C110.197 510.722 110.014 510.485 109.913 510.21C101.631 487.619 84.509 469.276 84.3376 469.098C84.0773 468.822 83.937 468.455 83.9477 468.076C83.9584 467.697 84.1192 467.338 84.3948 467.077C84.6703 466.817 85.038 466.677 85.4169 466.687C85.7958 466.698 86.155 466.859 86.4154 467.134C86.5867 467.32 104.108 486.07 112.598 509.26C112.727 509.616 112.71 510.007 112.55 510.35C112.391 510.693 112.103 510.958 111.748 511.088C111.589 511.138 111.422 511.157 111.255 511.145Z" fill="#262626"/>
<path d="M119.338 513.473C118.959 513.473 118.596 513.323 118.328 513.055C118.06 512.787 117.91 512.424 117.91 512.045V492.489C117.91 492.11 118.06 491.747 118.328 491.479C118.596 491.211 118.959 491.061 119.338 491.061C119.717 491.061 120.08 491.211 120.348 491.479C120.615 491.747 120.766 492.11 120.766 492.489V512.045C120.766 512.424 120.615 512.787 120.348 513.055C120.08 513.323 119.717 513.473 119.338 513.473Z" fill="#262626"/>
<path d="M161.414 541.455C161.412 536.78 159.554 532.297 156.249 528.992C152.943 525.686 148.46 523.828 143.785 523.826H139.858V510.51H91.2634V523.833H87.3364C82.661 523.833 78.1771 525.691 74.8711 528.997C71.5651 532.303 69.7078 536.786 69.7078 541.462C69.7134 546.133 71.5735 550.611 74.8791 553.911C78.1847 557.211 82.6654 559.064 87.3364 559.062C85.0217 559.061 82.7295 559.516 80.5908 560.401C78.452 561.286 76.5086 562.584 74.8715 564.221C73.2344 565.857 71.9358 567.8 71.0498 569.938C70.1638 572.077 69.7078 574.369 69.7078 576.684C69.7068 578.999 70.1622 581.292 71.0478 583.431C71.9333 585.57 73.2318 587.514 74.869 589.151C76.5062 590.788 78.4499 592.087 80.5891 592.972C82.7284 593.858 85.0211 594.313 87.3364 594.312H143.785C148.461 594.312 152.945 592.455 156.251 589.149C159.557 585.843 161.414 581.359 161.414 576.684C161.412 572.009 159.554 567.527 156.248 564.223C152.942 560.918 148.459 559.062 143.785 559.062C148.457 559.062 152.938 557.208 156.243 553.906C159.548 550.605 161.408 546.126 161.414 541.455Z" fill="#F9B800"/>
<path d="M144.528 560.59H124.614C124.236 560.59 123.872 560.439 123.605 560.172C123.337 559.904 123.186 559.541 123.186 559.162C123.186 558.783 123.337 558.42 123.605 558.152C123.872 557.884 124.236 557.734 124.614 557.734H144.528C144.907 557.734 145.27 557.884 145.538 558.152C145.805 558.42 145.956 558.783 145.956 559.162C145.956 559.541 145.805 559.904 145.538 560.172C145.27 560.439 144.907 560.59 144.528 560.59Z" fill="#262626"/>
<path d="M96.7042 560.49H86.2798C85.9011 560.49 85.5379 560.34 85.2701 560.072C85.0023 559.804 84.8518 559.441 84.8518 559.062C84.8518 558.683 85.0023 558.32 85.2701 558.052C85.5379 557.785 85.9011 557.634 86.2798 557.634H96.7042C97.0829 557.634 97.4462 557.785 97.714 558.052C97.9818 558.32 98.1322 558.683 98.1322 559.062C98.1322 559.441 97.9818 559.804 97.714 560.072C97.4462 560.34 97.0829 560.49 96.7042 560.49Z" fill="#262626"/>
<path d="M115.568 514.651C129.232 514.651 140.308 512.343 140.308 509.496C140.308 506.649 129.232 504.341 115.568 504.341C101.904 504.341 90.8279 506.649 90.8279 509.496C90.8279 512.343 101.904 514.651 115.568 514.651Z" fill="#262626"/>
<path d="M119.338 492.489C125.785 492.489 131.012 487.262 131.012 480.815C131.012 474.367 125.785 469.141 119.338 469.141C112.891 469.141 107.664 474.367 107.664 480.815C107.664 487.262 112.891 492.489 119.338 492.489Z" fill="#FFBB45"/>
<path d="M81.1747 475.852C88.0834 475.852 93.684 470.252 93.684 463.343C93.684 456.434 88.0834 450.834 81.1747 450.834C74.266 450.834 68.6654 456.434 68.6654 463.343C68.6654 470.252 74.266 475.852 81.1747 475.852Z" fill="#FFBB45"/>
<path d="M231.772 283.844C230.344 279.945 228.28 274.94 225.381 270.756C222.925 267.186 220.119 265.687 217.035 266.222C216.143 266.329 215.285 266.631 214.524 267.107C213.762 267.584 213.115 268.223 212.629 268.978C210.195 272.884 211.815 279.774 212.629 282.544L212.736 282.901L210.016 283.765L209.887 283.344C208.752 279.431 207.274 272.17 210.209 267.464C210.904 266.365 211.832 265.431 212.928 264.729C214.023 264.027 215.26 263.574 216.549 263.402C220.769 262.688 224.639 264.644 227.737 269.114C230.836 273.583 232.943 278.781 234.456 282.83L231.772 283.844Z" fill="#262626"/>
</svg>
