<svg width="714" height="714" viewBox="0 0 714 714" fill="none" xmlns="http://www.w3.org/2000/svg">
<path d="M407.387 82.2527L60.8613 411.835C36.214 435.276 46.1815 476.609 78.8113 486.234L537.499 621.544C570.129 631.176 600.938 601.902 592.956 568.801L480.793 103.908C472.818 70.843 432.034 58.8121 407.387 82.2527Z" fill="#FFF1C9"/>
<path d="M403.931 493.138H253.834C231.049 538.127 219.647 588.018 220.626 638.437L433.755 638.63C432.986 612.019 429.759 585.536 424.116 559.519C419.175 536.888 412.425 514.689 403.931 493.138Z" fill="#F9B800"/>
<path d="M390.822 312.489H270.827V440.402H390.822V312.489Z" fill="#262626"/>
<path d="M343.512 291.176H314.438C305.222 291.176 296.383 287.515 289.866 280.998C283.349 274.481 279.688 265.642 279.688 256.426V219.691C279.688 210.698 283.26 202.073 289.619 195.714C295.978 189.355 304.603 185.783 313.596 185.783H343.391C355.272 185.783 366.666 190.502 375.067 198.903C383.468 207.304 388.187 218.698 388.187 230.579V246.501C388.187 258.35 383.481 269.713 375.102 278.091C366.724 286.47 355.361 291.176 343.512 291.176Z" fill="#262626"/>
<path d="M379.705 278.896L397.505 220.048C397.753 219.225 398.18 218.468 398.755 217.829C399.329 217.191 400.038 216.687 400.829 216.353C401.621 216.02 402.476 215.865 403.335 215.9C404.193 215.935 405.033 216.159 405.795 216.556L425.016 226.552C425.85 226.986 426.567 227.615 427.106 228.385C427.645 229.155 427.99 230.044 428.112 230.976C428.234 231.909 428.129 232.857 427.807 233.74C427.484 234.623 426.952 235.415 426.258 236.048L379.705 278.896Z" fill="#D3B970"/>
<path d="M375.143 276.589L425.958 244.952C426.748 244.461 427.637 244.155 428.561 244.055C429.485 243.955 430.419 244.065 431.295 244.376C432.171 244.686 432.966 245.19 433.62 245.85C434.275 246.51 434.772 247.308 435.076 248.186L441.816 267.7C442.137 268.627 442.232 269.616 442.095 270.587C441.957 271.558 441.591 272.482 441.026 273.284C440.461 274.085 439.714 274.741 438.846 275.196C437.977 275.652 437.013 275.894 436.033 275.904L375.143 276.589Z" fill="#D3B970"/>
<path d="M390.822 280.852C388.769 280.852 386.762 280.243 385.055 279.102C383.347 277.962 382.017 276.34 381.231 274.443C380.445 272.546 380.24 270.459 380.64 268.445C381.041 266.431 382.029 264.581 383.481 263.129C384.933 261.678 386.783 260.689 388.797 260.288C390.811 259.888 392.898 260.093 394.795 260.879C396.692 261.665 398.313 262.995 399.454 264.703C400.595 266.41 401.204 268.417 401.204 270.47C401.2 273.223 400.105 275.861 398.159 277.807C396.213 279.753 393.574 280.848 390.822 280.852ZM390.822 262.945C389.334 262.945 387.879 263.386 386.641 264.213C385.404 265.04 384.439 266.215 383.87 267.59C383.3 268.966 383.151 270.479 383.441 271.938C383.732 273.398 384.448 274.739 385.501 275.792C386.553 276.844 387.894 277.561 389.354 277.851C390.814 278.142 392.327 277.993 393.702 277.423C395.077 276.853 396.253 275.889 397.08 274.651C397.906 273.414 398.348 271.959 398.348 270.47C398.344 268.476 397.55 266.564 396.139 265.153C394.729 263.743 392.817 262.949 390.822 262.945Z" fill="#262626"/>
<path d="M372.037 254.677C372.449 250.779 371.31 246.876 368.866 243.812C366.422 240.747 362.87 238.769 358.978 238.305L359.07 228.23C359.121 225.035 358.539 221.861 357.36 218.891C356.181 215.921 354.427 213.213 352.198 210.923C349.97 208.632 347.312 206.804 344.375 205.543C341.439 204.283 338.283 203.614 335.087 203.576L297.959 203.312C293.096 203.306 288.428 205.229 284.98 208.66C281.532 212.09 279.585 216.748 279.567 221.611L279.174 266.958C279.119 270.761 279.815 274.538 281.221 278.072C282.627 281.606 284.716 284.829 287.369 287.555C290.021 290.281 293.185 292.457 296.68 293.96C300.174 295.462 303.931 296.261 307.734 296.31H309.447L309.219 321.443L358.278 321.793L358.549 292.026H358.506L358.728 268.086C362.151 267.724 365.344 266.193 367.769 263.75C370.193 261.307 371.701 258.102 372.037 254.677Z" fill="white"/>
<path d="M467.492 380.376L408.651 415.062L445.193 490.632C445.193 490.632 461.687 521.948 492.617 507.268C498.858 504.251 504.423 500 508.976 494.772C513.529 489.545 516.975 483.449 519.107 476.852L550.901 380.376C550.901 380.376 597.611 364.518 604.537 323.706C604.804 322.413 604.826 321.081 604.601 319.779C604.248 317.833 603.36 316.024 602.038 314.553C602.512 313.476 602.894 312.36 603.18 311.218C603.823 308.627 604.437 306.099 602.338 303.957C601.464 303.011 600.26 302.438 598.975 302.359C597.69 302.279 596.424 302.698 595.44 303.529C595.926 300.872 595.198 298.531 593.563 297.502C592.89 297.106 592.113 296.925 591.335 296.981C587.644 297.203 584.959 302.265 584.195 303.678C581.068 309.39 574.463 319.051 564.681 332.595C564.681 332.595 578.754 313.51 571.264 308.255C569.03 306.692 566.359 308.884 564.888 310.44C562.168 313.296 561.118 317.245 559.098 320.529C556.434 324.648 552.872 328.112 548.681 330.661C542.076 334.859 534.765 337.087 528.739 342.206C525.995 344.512 523.549 347.15 521.456 350.06C519.007 353.501 518.143 357.564 516.029 361.041L483.321 414.556L467.492 380.376Z" fill="white"/>
<path d="M476.652 512.602C455.446 512.602 444.065 491.56 443.93 491.296L406.802 414.498L468.127 378.349L483.492 411.557L514.794 360.313C515.663 358.803 516.413 357.228 517.036 355.601C517.873 353.371 518.961 351.244 520.278 349.26C522.436 346.246 524.962 343.511 527.796 341.121C531.566 337.908 535.836 335.794 539.934 333.752C542.655 332.466 545.305 331.036 547.874 329.468C551.897 327.045 555.316 323.736 557.87 319.793C558.575 318.598 559.211 317.363 559.776 316.095C560.854 313.803 561.968 311.44 563.839 309.469C567.873 305.185 570.729 306.163 572.071 307.106C572.8 307.62 573.414 308.279 573.876 309.042C574.338 309.805 574.638 310.656 574.756 311.54C574.96 313.106 574.873 314.696 574.499 316.231C578.511 310.369 581.267 306.042 582.931 303.007L582.974 302.915C583.931 301.165 586.837 295.832 591.242 295.575C592.313 295.485 593.384 295.735 594.305 296.289C595.093 296.83 595.744 297.547 596.206 298.383C596.669 299.22 596.93 300.153 596.968 301.108C598.1 300.824 599.286 300.845 600.406 301.17C601.527 301.495 602.541 302.112 603.344 302.957C606.022 305.678 605.208 308.941 604.558 311.561C604.329 312.494 604.036 313.41 603.68 314.303C604.731 315.661 605.475 317.229 605.864 318.901C606.252 320.574 606.274 322.31 605.929 323.992C603.073 341.006 592.67 356.415 575.941 368.503C568.563 373.847 560.523 378.213 552.022 381.49L520.463 477.295C518.262 484.072 514.715 490.335 510.034 495.708C505.354 501.08 499.636 505.452 493.224 508.561C488.071 511.128 482.409 512.509 476.652 512.602ZM410.507 415.627L446.478 490.011C449.482 495.194 453.478 499.733 458.238 503.37C468.37 510.931 479.729 511.81 492.003 505.976C498.065 503.034 503.469 498.898 507.894 493.816C512.318 488.734 515.67 482.811 517.75 476.402L549.78 379.255L550.458 379.027C550.915 378.87 596.447 362.948 603.144 323.463C603.383 322.333 603.404 321.168 603.209 320.029C602.9 318.344 602.132 316.777 600.988 315.502L600.374 314.788L600.745 313.946C601.188 312.945 601.544 311.909 601.809 310.847C602.473 308.155 602.809 306.435 601.331 304.928C600.716 304.247 599.864 303.828 598.949 303.759C598.034 303.69 597.128 303.976 596.419 304.557L593.291 307.413L594.055 303.257C594.426 301.222 593.934 299.387 592.827 298.709C592.407 298.463 591.92 298.355 591.435 298.402C589.564 298.509 587.565 300.487 585.509 304.264L585.459 304.35C582.495 309.762 576.541 318.63 566.181 332.988L565.859 333.438L563.553 331.753L564.017 331.11C566.873 327.041 572.842 317.28 571.978 311.975C571.92 311.467 571.756 310.977 571.497 310.537C571.237 310.097 570.888 309.716 570.472 309.419C569.044 308.419 566.837 310.483 565.952 311.418C564.396 313.046 563.432 315.11 562.382 317.294C561.765 318.656 561.077 319.983 560.319 321.271C557.549 325.579 553.835 329.2 549.459 331.86C546.791 333.485 544.039 334.965 541.212 336.294C537.057 338.357 533.13 340.3 529.624 343.284C526.991 345.526 524.648 348.088 522.648 350.91C521.457 352.721 520.475 354.661 519.721 356.693C519.037 358.456 518.22 360.165 517.279 361.805L483.178 417.597L466.892 382.411L410.507 415.627Z" fill="#262626"/>
<path d="M357 260.382C356.803 260.392 356.605 260.392 356.407 260.382C355.254 260.264 354.162 259.808 353.268 259.07C352.375 258.332 351.72 257.346 351.386 256.236C351.053 255.126 351.056 253.942 351.396 252.833C351.735 251.725 352.395 250.743 353.293 250.009C354.19 249.276 355.285 248.826 356.439 248.715C357.593 248.604 358.753 248.837 359.774 249.385C360.795 249.934 361.631 250.773 362.175 251.796C362.72 252.819 362.949 253.98 362.833 255.134C362.687 256.578 362.01 257.917 360.934 258.891C359.858 259.866 358.459 260.407 357.007 260.41L357 260.382ZM357 251.514C356.418 251.514 355.849 251.683 355.362 252C354.874 252.317 354.489 252.769 354.253 253.301C354.017 253.832 353.941 254.421 354.033 254.996C354.125 255.57 354.382 256.105 354.772 256.537C355.162 256.968 355.669 257.277 356.232 257.425C356.794 257.574 357.387 257.557 357.94 257.375C358.493 257.193 358.981 256.855 359.345 256.401C359.709 255.948 359.934 255.398 359.992 254.819C360.069 254.026 359.83 253.235 359.325 252.618C358.821 252.001 358.093 251.609 357.3 251.528L357 251.514Z" fill="#262626"/>
<path d="M310.09 294.918L339.364 294.204C339.554 294.196 339.741 294.258 339.889 294.377C340.038 294.496 340.139 294.664 340.174 294.851C340.208 295.039 340.174 295.232 340.078 295.396C339.982 295.56 339.83 295.685 339.65 295.746L309.969 306.456L310.09 294.918Z" fill="#262626"/>
<path d="M352.616 256.669C352.261 256.67 351.918 256.54 351.654 256.302C351.39 256.064 351.224 255.737 351.188 255.383C351.027 253.799 351.286 252.2 351.939 250.747C352.592 249.294 353.616 248.039 354.908 247.108C356.149 246.262 357.574 245.725 359.064 245.542C360.555 245.36 362.068 245.537 363.476 246.059C363.658 246.121 363.826 246.22 363.969 246.349C364.112 246.478 364.228 246.635 364.308 246.81C364.389 246.985 364.434 247.174 364.44 247.367C364.445 247.56 364.412 247.752 364.342 247.931C364.271 248.11 364.165 248.274 364.03 248.411C363.895 248.548 363.733 248.657 363.555 248.73C363.377 248.803 363.185 248.84 362.993 248.837C362.8 248.834 362.61 248.793 362.433 248.715C361.469 248.369 360.438 248.254 359.421 248.378C358.405 248.502 357.431 248.862 356.579 249.429C355.695 250.066 354.994 250.925 354.548 251.919C354.102 252.913 353.925 254.007 354.037 255.091C354.056 255.277 354.037 255.466 353.983 255.645C353.929 255.825 353.84 255.992 353.722 256.137C353.603 256.282 353.457 256.403 353.292 256.492C353.126 256.58 352.945 256.636 352.759 256.654L352.616 256.669Z" fill="#262626"/>
<path d="M208.816 376.2L267.657 410.886L231.115 486.455C231.115 486.455 214.614 517.771 183.691 503.092C177.448 500.076 171.882 495.826 167.329 490.598C162.776 485.37 159.331 479.273 157.201 472.675L125.4 376.2C125.4 376.2 78.69 360.342 71.7713 319.529C71.5037 318.236 71.4819 316.904 71.7071 315.602C72.0563 313.658 72.9388 311.848 74.256 310.376C73.7815 309.299 73.3993 308.183 73.1136 307.041C72.471 304.457 71.857 301.922 73.9633 299.78C74.8362 298.836 76.0393 298.265 77.3225 298.185C78.6057 298.105 79.8703 298.523 80.8534 299.352C80.3679 296.696 81.1033 294.354 82.7312 293.326C83.405 292.933 84.1809 292.751 84.9589 292.804C88.6503 293.026 91.3349 298.088 92.0989 299.502C95.2334 305.214 101.838 314.881 111.613 328.419C111.613 328.419 97.5396 309.333 105.029 304.078C107.264 302.515 109.935 304.714 111.413 306.263C114.133 309.119 115.175 313.075 117.196 316.352C119.864 320.468 123.424 323.931 127.613 326.484C134.218 330.682 141.529 332.91 147.562 338.029C150.304 340.337 152.75 342.975 154.845 345.883C157.287 349.325 158.158 353.38 160.272 356.857L192.973 410.372L208.816 376.2Z" fill="white"/>
<path d="M199.656 508.425C193.896 508.338 188.23 506.956 183.077 504.384C176.666 501.275 170.949 496.903 166.27 491.53C161.59 486.157 158.044 479.895 155.845 473.118L124.236 377.313C115.734 374.039 107.693 369.673 100.317 364.326C83.5951 352.245 73.2278 336.829 70.3289 319.765C69.9905 318.092 70.0168 316.365 70.4062 314.703C70.7956 313.041 71.5388 311.482 72.5852 310.133C72.2368 309.238 71.9435 308.322 71.707 307.391C71.0572 304.764 70.279 301.508 72.9208 298.78C73.7253 297.936 74.7392 297.32 75.8592 296.995C76.9793 296.671 78.1654 296.648 79.2968 296.931C79.3365 295.976 79.5979 295.044 80.0601 294.207C80.5223 293.371 81.1727 292.653 81.96 292.112C82.8812 291.559 83.9525 291.309 85.0231 291.398C89.4284 291.662 92.3344 296.988 93.2912 298.738L93.3412 298.83C95.0333 301.922 97.7465 306.199 101.773 312.068C101.396 310.529 101.309 308.933 101.516 307.363C101.632 306.478 101.93 305.626 102.392 304.863C102.854 304.1 103.47 303.441 104.201 302.929C105.543 301.986 108.399 301.044 112.434 305.292C114.297 307.263 115.418 309.633 116.496 311.918C117.058 313.187 117.695 314.422 118.403 315.617C120.945 319.558 124.351 322.869 128.363 325.298C130.934 326.862 133.584 328.292 136.303 329.582C140.429 331.624 144.699 333.745 148.441 336.951C151.275 339.343 153.803 342.077 155.966 345.09C157.281 347.075 158.366 349.202 159.201 351.431C159.83 353.058 160.582 354.636 161.45 356.15L192.759 407.387L208.124 374.179L269.456 410.336L232.328 487.084C232.243 487.376 220.854 508.425 199.656 508.425ZM77.7617 299.58C76.7165 299.6 75.7213 300.031 74.9914 300.78C73.5062 302.286 73.8418 304.014 74.513 306.699C74.7727 307.761 75.1263 308.798 75.5697 309.797L75.941 310.64L75.3341 311.354C74.1844 312.625 73.415 314.194 73.1135 315.881C72.9147 317.002 72.9341 318.151 73.1707 319.265C79.8823 358.835 125.4 374.721 125.864 374.879L126.535 375.107L158.558 472.254C160.636 478.664 163.988 484.589 168.412 489.672C172.836 494.755 178.242 498.892 184.305 501.835C196.607 507.675 207.995 506.783 218.141 499.164C222.885 495.53 226.864 490.995 229.851 485.82L265.794 411.478L209.452 378.263L193.166 413.406L159.065 357.607C158.119 355.969 157.302 354.26 156.623 352.495C155.866 350.464 154.884 348.524 153.696 346.711C151.668 343.91 149.3 341.37 146.648 339.15C143.143 336.165 139.223 334.223 135.067 332.16C132.255 330.83 129.517 329.35 126.863 327.726C122.485 325.066 118.769 321.445 115.996 317.137C115.237 315.851 114.55 314.524 113.94 313.16C112.912 310.976 111.941 308.919 110.37 307.284C109.485 306.349 107.271 304.285 105.843 305.285C105.428 305.583 105.08 305.964 104.82 306.404C104.561 306.844 104.396 307.334 104.337 307.841C103.473 313.146 109.392 322.835 112.284 326.955L112.762 327.619L110.456 329.304L110.134 328.854C99.7529 314.46 93.7981 305.621 90.8564 300.223L90.8065 300.13C88.743 296.353 86.7509 294.382 84.8731 294.268C84.3885 294.225 83.9024 294.332 83.4808 294.575C82.3741 295.289 81.8815 297.088 82.2599 299.13L83.0167 303.279L79.8965 300.423C79.317 299.882 78.5542 299.581 77.7617 299.58Z" fill="#262626"/>
<path d="M285.686 250.55C287.283 250.55 288.577 249.255 288.577 247.658C288.577 246.061 287.283 244.766 285.686 244.766C284.089 244.766 282.794 246.061 282.794 247.658C282.794 249.255 284.089 250.55 285.686 250.55Z" fill="#262626"/>
<path d="M316.702 250.078C318.299 250.078 319.593 248.784 319.593 247.187C319.593 245.59 318.299 244.295 316.702 244.295C315.105 244.295 313.81 245.59 313.81 247.187C313.81 248.784 315.105 250.078 316.702 250.078Z" fill="#262626"/>
<path d="M297.124 260.446C296.961 260.445 296.799 260.416 296.646 260.36C294.504 259.646 292.362 258.589 292.362 256.719C292.386 256.369 292.479 256.027 292.636 255.714C292.793 255.4 293.01 255.12 293.275 254.891C293.46 254.703 293.634 254.505 293.797 254.298C294.521 253.36 294.955 252.231 295.046 251.05L296.246 238.519C296.282 238.14 296.467 237.791 296.76 237.549C297.053 237.306 297.431 237.191 297.809 237.227C298.188 237.263 298.537 237.447 298.779 237.741C299.022 238.034 299.138 238.411 299.102 238.79L297.888 251.328C297.745 253.042 297.11 254.678 296.06 256.04C295.839 256.326 295.646 256.54 295.482 256.719C296.156 257.118 296.875 257.437 297.624 257.668C297.943 257.779 298.213 257.999 298.385 258.29C298.558 258.581 298.621 258.923 298.565 259.257C298.508 259.59 298.335 259.892 298.077 260.11C297.818 260.328 297.491 260.447 297.153 260.446H297.124Z" fill="#262626"/>
<path d="M301.437 272.926C299.249 272.866 297.115 272.228 295.253 271.077C295.088 270.979 294.944 270.848 294.831 270.693C294.718 270.537 294.637 270.361 294.593 270.174C294.55 269.986 294.544 269.792 294.578 269.603C294.611 269.413 294.682 269.233 294.787 269.072C294.892 268.91 295.028 268.772 295.188 268.665C295.348 268.558 295.527 268.484 295.716 268.448C295.905 268.412 296.099 268.414 296.287 268.455C296.475 268.496 296.653 268.574 296.81 268.685C296.86 268.721 299.801 270.57 302.693 269.935C303.484 269.735 304.226 269.375 304.873 268.877C305.52 268.38 306.059 267.756 306.456 267.043C306.659 266.723 306.98 266.497 307.35 266.414C307.719 266.331 308.107 266.398 308.427 266.6C308.747 266.803 308.973 267.125 309.056 267.494C309.139 267.864 309.072 268.251 308.869 268.571C308.137 269.899 307.06 271.004 305.752 271.771C304.444 272.537 302.953 272.936 301.437 272.926Z" fill="#262626"/>
<path d="M253.834 493.138L241.339 432.448C239.213 422.128 239.753 411.436 242.91 401.382L270.827 312.482H295.724L301.436 325.163C313.696 352.388 352.552 351.802 363.99 324.227L368.859 312.482H390.822L418.333 402.867C421.883 414.518 422.058 426.935 418.839 438.682L403.931 493.138H253.834Z" fill="#F9B800"/>
<path d="M333.795 224.01H320C315.736 224.01 311.646 222.316 308.631 219.301C305.615 216.285 303.921 212.196 303.921 207.931V197.592H333.795V224.01Z" fill="#262626"/>
<path d="M390.822 312.489L420.146 410.429L475.296 377.892C469.202 366.718 462.432 355.926 455.025 345.576C441.952 327.326 435.176 318.108 423.695 313.446C411.493 308.448 399.233 310.183 390.822 312.489Z" fill="#262626"/>
<path d="M372.115 239.59H347.34C344.951 239.589 342.585 239.117 340.378 238.202C338.171 237.287 336.166 235.946 334.478 234.256C332.789 232.566 331.45 230.56 330.536 228.353C329.623 226.145 329.153 223.779 329.154 221.39V213.165H372.123L372.115 239.59Z" fill="#262626"/>
<path d="M363.362 197.592H320.665V224.017H363.362V197.592Z" fill="#262626"/>
<path d="M383.853 339.114C402.616 339.114 417.826 323.904 417.826 305.142C417.826 286.38 402.616 271.17 383.853 271.17C365.091 271.17 349.881 286.38 349.881 305.142C349.881 323.904 365.091 339.114 383.853 339.114Z" fill="#262626"/>
<path d="M359.021 362.798C372.913 362.798 384.175 351.536 384.175 337.643C384.175 323.751 372.913 312.489 359.021 312.489C345.128 312.489 333.866 323.751 333.866 337.643C333.866 351.536 345.128 362.798 359.021 362.798Z" fill="#262626"/>
<path d="M404.181 364.226C418.073 364.226 429.335 352.964 429.335 339.071C429.335 325.179 418.073 313.917 404.181 313.917C390.289 313.917 379.027 325.179 379.027 339.071C379.027 352.964 390.289 364.226 404.181 364.226Z" fill="#262626"/>
<path d="M352.916 449.534H308.726C302.136 449.527 295.817 446.905 291.158 442.244C286.498 437.583 283.878 431.264 283.872 424.673V394.785C283.872 391.585 285.142 388.515 287.403 386.25C289.664 383.985 292.731 382.71 295.932 382.704H365.711C368.91 382.708 371.977 383.98 374.239 386.242C376.501 388.504 377.774 391.571 377.777 394.771V424.659C377.774 431.252 375.154 437.575 370.492 442.239C365.831 446.903 359.51 449.527 352.916 449.534ZM295.932 385.56C293.491 385.564 291.151 386.536 289.425 388.262C287.7 389.989 286.73 392.33 286.728 394.771V424.659C286.734 430.492 289.053 436.085 293.177 440.21C297.301 444.335 302.893 446.657 308.726 446.664H352.916C358.75 446.658 364.344 444.338 368.47 440.213C372.595 436.087 374.916 430.493 374.921 424.659V394.785C374.921 392.341 373.951 389.997 372.224 388.267C370.498 386.537 368.155 385.564 365.711 385.56H295.932Z" fill="white"/>
<path d="M379.027 397.034C392.919 397.034 404.181 385.772 404.181 371.88C404.181 357.988 392.919 346.726 379.027 346.726C365.134 346.726 353.873 357.988 353.873 371.88C353.873 385.772 365.134 397.034 379.027 397.034Z" fill="#262626"/>
<path d="M467.277 439.688C467.018 439.687 466.765 439.616 466.543 439.482C466.322 439.348 466.141 439.157 466.02 438.928C465.899 438.699 465.842 438.442 465.856 438.183C465.87 437.925 465.954 437.675 466.099 437.461L482.128 413.777C482.233 413.622 482.368 413.488 482.525 413.385C482.681 413.281 482.857 413.209 483.041 413.173C483.225 413.138 483.415 413.138 483.599 413.176C483.783 413.213 483.958 413.287 484.113 413.392C484.269 413.497 484.402 413.631 484.506 413.788C484.61 413.945 484.681 414.12 484.717 414.304C484.753 414.489 484.752 414.678 484.715 414.862C484.677 415.046 484.604 415.221 484.499 415.377L468.462 439.06C468.331 439.254 468.155 439.413 467.948 439.522C467.742 439.632 467.511 439.689 467.277 439.688Z" fill="#262626"/>
<path d="M586.501 344.862C586.212 344.863 585.931 344.776 585.692 344.613C585.454 344.451 585.271 344.219 585.166 343.95C585.062 343.681 585.041 343.387 585.108 343.106C585.174 342.825 585.324 342.571 585.537 342.377C594.326 334.366 600.374 314.874 600.431 314.681C600.486 314.502 600.576 314.335 600.695 314.19C600.814 314.045 600.961 313.925 601.127 313.837C601.293 313.749 601.474 313.694 601.661 313.676C601.848 313.658 602.037 313.677 602.216 313.732C602.396 313.786 602.563 313.876 602.708 313.995C602.852 314.115 602.972 314.262 603.061 314.427C603.149 314.593 603.203 314.775 603.222 314.962C603.24 315.148 603.221 315.337 603.166 315.517C602.909 316.345 596.833 335.944 587.458 344.491C587.196 344.729 586.855 344.861 586.501 344.862Z" fill="#262626"/>
<path d="M577.626 337.136C577.33 337.138 577.04 337.047 576.798 336.876C576.556 336.706 576.373 336.464 576.274 336.185C576.175 335.906 576.165 335.603 576.246 335.318C576.328 335.033 576.495 334.78 576.726 334.595C584.859 327.997 593.998 303.279 594.091 303.036C594.236 302.703 594.503 302.438 594.838 302.295C595.172 302.152 595.548 302.141 595.889 302.266C596.231 302.391 596.512 302.641 596.675 302.966C596.838 303.291 596.872 303.666 596.768 304.014C596.383 305.064 587.265 329.718 578.526 336.815C578.271 337.022 577.954 337.136 577.626 337.136Z" fill="#262626"/>
<path d="M209.024 435.54C208.792 435.54 208.563 435.483 208.358 435.375C208.152 435.267 207.977 435.11 207.846 434.919L191.809 411.228C191.695 411.073 191.613 410.897 191.569 410.71C191.524 410.523 191.518 410.328 191.551 410.139C191.583 409.949 191.654 409.768 191.758 409.606C191.863 409.445 191.999 409.306 192.158 409.198C192.317 409.09 192.497 409.016 192.686 408.979C192.874 408.942 193.069 408.944 193.257 408.984C193.445 409.024 193.623 409.102 193.78 409.213C193.938 409.324 194.071 409.465 194.172 409.629L210.209 433.312C210.354 433.527 210.438 433.778 210.452 434.037C210.465 434.296 210.408 434.554 210.286 434.783C210.165 435.012 209.983 435.203 209.76 435.337C209.538 435.47 209.283 435.54 209.024 435.54Z" fill="#262626"/>
<path d="M89.7999 340.692C89.446 340.691 89.105 340.559 88.8431 340.321C79.4754 331.753 73.3922 312.175 73.1351 311.347C73.0694 311.165 73.0414 310.971 73.0527 310.778C73.0641 310.585 73.1145 310.396 73.201 310.223C73.2875 310.05 73.4083 309.897 73.5559 309.772C73.7036 309.647 73.8751 309.553 74.0601 309.497C74.2451 309.44 74.4396 309.421 74.6319 309.442C74.8242 309.463 75.0103 309.523 75.1789 309.618C75.3474 309.713 75.495 309.841 75.6125 309.994C75.73 310.148 75.8151 310.324 75.8626 310.511C75.9269 310.704 81.9744 330.196 90.7566 338.215C90.9676 338.409 91.115 338.663 91.1796 338.942C91.2443 339.222 91.2232 339.515 91.1192 339.782C91.0152 340.049 90.8329 340.279 90.5963 340.442C90.3597 340.604 90.0797 340.691 89.7927 340.692H89.7999Z" fill="#262626"/>
<path d="M98.6677 332.96C98.3398 332.959 98.0222 332.846 97.7681 332.638C89.0216 325.548 79.9181 300.887 79.5182 299.844C79.4535 299.668 79.4242 299.481 79.4319 299.293C79.4395 299.105 79.4841 298.921 79.563 298.751C79.6419 298.58 79.7536 298.427 79.8917 298.3C80.0298 298.173 80.1916 298.074 80.3679 298.009C80.5442 297.945 80.7314 297.915 80.9191 297.923C81.1067 297.931 81.2909 297.975 81.4613 298.054C81.6317 298.133 81.7849 298.245 81.9121 298.383C82.0394 298.521 82.1382 298.683 82.2029 298.859C82.2957 299.109 91.4277 323.849 99.5673 330.425C99.7956 330.611 99.9607 330.863 100.04 331.147C100.119 331.43 100.109 331.732 100.011 332.009C99.9121 332.287 99.7302 332.527 99.4898 332.697C99.2494 332.867 98.9622 332.959 98.6677 332.96Z" fill="#262626"/>
<path d="M327.19 587.994C326.811 587.994 326.448 587.952 326.18 587.878C325.912 587.803 325.762 587.703 325.762 587.597V568.391C325.762 568.286 325.912 568.185 326.18 568.11C326.448 568.036 326.811 567.994 327.19 567.994C327.568 567.994 327.932 568.036 328.199 568.11C328.467 568.185 328.618 568.286 328.618 568.391V587.597C328.618 587.703 328.467 587.803 328.199 587.878C327.932 587.952 327.568 587.994 327.19 587.994Z" fill="white"/>
<path d="M327.19 527.646C326.812 527.646 326.449 527.495 326.181 527.228C325.913 526.96 325.762 526.597 325.762 526.218V493.138C325.762 492.76 325.913 492.396 326.181 492.129C326.449 491.861 326.812 491.71 327.19 491.71C327.569 491.71 327.932 491.861 328.2 492.129C328.468 492.396 328.618 492.76 328.618 493.138V526.218C328.618 526.597 328.468 526.96 328.2 527.228C327.932 527.495 327.569 527.646 327.19 527.646Z" fill="white"/>
<path d="M416.119 529.952C416.036 529.959 415.952 529.959 415.869 529.952C398.226 526.853 389.023 517.1 384.418 509.411C381.398 504.495 379.415 499.013 378.591 493.303C378.573 493.115 378.591 492.926 378.645 492.745C378.7 492.565 378.789 492.397 378.909 492.251C379.028 492.105 379.175 491.984 379.341 491.895C379.507 491.806 379.689 491.751 379.877 491.732C380.064 491.713 380.253 491.731 380.434 491.786C380.614 491.84 380.782 491.93 380.928 492.049C381.074 492.168 381.195 492.315 381.284 492.481C381.373 492.648 381.429 492.83 381.447 493.017C382.272 498.329 384.14 503.425 386.945 508.011C393.214 518.35 403.117 524.776 416.383 527.111C416.762 527.143 417.113 527.324 417.358 527.615C417.603 527.905 417.722 528.281 417.69 528.66C417.658 529.039 417.476 529.389 417.186 529.634C416.895 529.879 416.519 529.999 416.141 529.967L416.119 529.952Z" fill="white"/>
<path d="M244.288 531.851C242.156 531.845 240.026 531.704 237.912 531.43C237.533 531.382 237.189 531.185 236.956 530.883C236.722 530.581 236.618 530.199 236.666 529.82C236.714 529.441 236.911 529.097 237.213 528.864C237.515 528.63 237.897 528.526 238.276 528.574C248.9 529.938 257.454 527.81 263.702 522.27C275.247 512.024 275.24 493.317 275.24 493.131C275.24 492.753 275.39 492.389 275.658 492.122C275.926 491.854 276.289 491.703 276.668 491.703C277.047 491.703 277.41 491.854 277.678 492.122C277.946 492.389 278.096 492.753 278.096 493.131C278.096 493.945 278.096 513.295 265.608 524.412C260.039 529.36 252.885 531.851 244.288 531.851Z" fill="white"/>
<path d="M200.291 375.086L243.374 399.904L270.827 312.489C270.827 312.489 232.764 301.879 200.291 375.086Z" fill="#262626"/>
<path d="M218.048 287.492H107.378C101.834 287.486 96.5176 285.281 92.5969 281.36C88.6762 277.44 86.471 272.124 86.4654 266.579V178.043C86.4616 175.292 87.0001 172.567 88.05 170.025C89.0999 167.482 90.6407 165.171 92.5843 163.224C94.5279 161.277 96.8361 159.733 99.377 158.678C101.918 157.624 104.642 157.081 107.393 157.08H218.063C223.607 157.086 228.923 159.291 232.844 163.212C236.765 167.132 238.97 172.448 238.976 177.993V266.529C238.98 269.28 238.441 272.005 237.391 274.547C236.341 277.09 234.8 279.401 232.857 281.348C230.913 283.295 228.605 284.839 226.064 285.894C223.523 286.948 220.799 287.491 218.048 287.492ZM107.393 159.936C102.605 159.942 98.0158 161.846 94.6307 165.231C91.2456 168.616 89.3413 173.206 89.3356 177.993V266.529C89.3413 271.316 91.2456 275.906 94.6307 279.291C98.0158 282.676 102.605 284.58 107.393 284.586H218.063C222.851 284.582 227.441 282.679 230.827 279.293C234.212 275.908 236.116 271.317 236.12 266.529V177.993C236.116 173.203 234.21 168.61 230.822 165.224C227.433 161.838 222.839 159.936 218.048 159.936H107.393Z" fill="#262626"/>
<path d="M226.338 207.638H188.867C188.488 207.638 188.125 207.488 187.857 207.22C187.59 206.952 187.439 206.589 187.439 206.21C187.439 205.832 187.59 205.468 187.857 205.201C188.125 204.933 188.488 204.782 188.867 204.782H226.338C226.717 204.782 227.08 204.933 227.348 205.201C227.615 205.468 227.766 205.832 227.766 206.21C227.766 206.589 227.615 206.952 227.348 207.22C227.08 207.488 226.717 207.638 226.338 207.638Z" fill="#262626"/>
<path d="M226.338 222.39H188.867C188.488 222.39 188.125 222.239 187.857 221.971C187.59 221.704 187.439 221.34 187.439 220.962C187.439 220.583 187.59 220.22 187.857 219.952C188.125 219.684 188.488 219.534 188.867 219.534H226.338C226.717 219.534 227.08 219.684 227.348 219.952C227.615 220.22 227.766 220.583 227.766 220.962C227.766 221.34 227.615 221.704 227.348 221.971C227.08 222.239 226.717 222.39 226.338 222.39Z" fill="#262626"/>
<path d="M216.563 237.134H188.867C188.488 237.134 188.125 236.983 187.857 236.715C187.59 236.448 187.439 236.084 187.439 235.706C187.439 235.327 187.59 234.964 187.857 234.696C188.125 234.428 188.488 234.278 188.867 234.278H216.563C216.942 234.278 217.305 234.428 217.573 234.696C217.841 234.964 217.991 235.327 217.991 235.706C217.991 236.084 217.841 236.448 217.573 236.715C217.305 236.983 216.942 237.134 216.563 237.134Z" fill="#262626"/>
<path d="M167.44 251.164H118.524L114.062 235.456H170.468L167.44 251.164ZM120.652 248.308H165.084L166.99 238.312H117.81L120.652 248.308Z" fill="#262626"/>
<path d="M143.471 251.164C143.092 251.164 142.729 251.013 142.461 250.746C142.194 250.478 142.043 250.115 142.043 249.736V236.884C142.043 236.505 142.194 236.142 142.461 235.874C142.729 235.606 143.092 235.456 143.471 235.456C143.85 235.456 144.213 235.606 144.481 235.874C144.749 236.142 144.899 236.505 144.899 236.884V249.736C144.899 250.115 144.749 250.478 144.481 250.746C144.213 251.013 143.85 251.164 143.471 251.164Z" fill="#262626"/>
<path d="M164.841 253.656C166.986 253.656 168.725 251.901 168.725 249.736C168.725 247.571 166.986 245.816 164.841 245.816C162.696 245.816 160.957 247.571 160.957 249.736C160.957 251.901 162.696 253.656 164.841 253.656Z" fill="#262626"/>
<path d="M143.443 253.656C145.607 253.656 147.362 251.901 147.362 249.736C147.362 247.571 145.607 245.816 143.443 245.816C141.278 245.816 139.523 247.571 139.523 249.736C139.523 251.901 141.278 253.656 143.443 253.656Z" fill="#262626"/>
<path d="M121.059 253.656C123.2 253.656 124.936 251.901 124.936 249.736C124.936 247.571 123.2 245.816 121.059 245.816C118.917 245.816 117.182 247.571 117.182 249.736C117.182 251.901 118.917 253.656 121.059 253.656Z" fill="#262626"/>
<path d="M108.385 209.959C108.164 209.96 107.946 209.909 107.748 209.811C107.549 209.713 107.377 209.571 107.243 209.395L99.2461 198.82C98.8765 198.328 98.6513 197.742 98.5956 197.128C98.54 196.515 98.6561 195.898 98.931 195.347C99.2058 194.796 99.6286 194.332 100.152 194.007C100.676 193.682 101.279 193.51 101.895 193.508H126.321C127.264 193.509 128.193 193.733 129.032 194.162C129.871 194.592 130.596 195.214 131.148 195.979L142.186 207.51C142.415 207.788 142.531 208.142 142.51 208.502C142.489 208.862 142.333 209.2 142.073 209.45C141.812 209.699 141.468 209.841 141.107 209.847C140.747 209.852 140.398 209.721 140.13 209.481L128.841 197.707C128.557 197.293 128.177 196.954 127.733 196.72C127.289 196.487 126.794 196.364 126.292 196.364H101.866C101.78 196.363 101.695 196.386 101.622 196.432C101.548 196.477 101.489 196.543 101.452 196.621C101.414 196.697 101.398 196.782 101.406 196.867C101.413 196.951 101.444 197.032 101.495 197.1L109.521 207.667C109.635 207.816 109.719 207.987 109.767 208.169C109.815 208.35 109.827 208.54 109.802 208.726C109.777 208.913 109.715 209.093 109.62 209.255C109.525 209.418 109.399 209.56 109.249 209.673C109 209.86 108.697 209.96 108.385 209.959Z" fill="#262626"/>
<path d="M143.471 238.626H170.132L176.786 208.767C176.889 208.293 176.884 207.802 176.772 207.331C176.659 206.86 176.442 206.42 176.136 206.044C175.83 205.668 175.443 205.366 175.005 205.16C174.566 204.954 174.087 204.849 173.602 204.854H143.471V238.626Z" fill="#FFE18B"/>
<path d="M114.597 238.626H143.471V204.854H107.814C107.284 204.852 106.761 204.977 106.289 205.218C105.817 205.459 105.409 205.808 105.099 206.238C104.789 206.668 104.586 207.166 104.507 207.69C104.428 208.214 104.475 208.75 104.644 209.252L114.597 238.626Z" fill="#FFE18B"/>
<path d="M143.471 234.649C143.092 234.649 142.729 234.499 142.461 234.231C142.194 233.963 142.043 233.6 142.043 233.221V208.488C142.043 208.109 142.194 207.746 142.461 207.478C142.729 207.211 143.092 207.06 143.471 207.06C143.85 207.06 144.213 207.211 144.481 207.478C144.749 207.746 144.899 208.109 144.899 208.488V233.192C144.903 233.382 144.869 233.571 144.799 233.748C144.729 233.924 144.624 234.085 144.491 234.221C144.358 234.356 144.2 234.464 144.024 234.538C143.849 234.611 143.661 234.649 143.471 234.649Z" fill="#262626"/>
<path d="M132.247 525.104H86.3939C84.0994 525.102 81.8994 524.19 80.2769 522.567C78.6545 520.945 77.7421 518.745 77.7402 516.45V470.605C77.744 468.311 78.6572 466.113 80.2794 464.492C81.9017 462.871 84.1006 461.96 86.3939 461.958H132.233C134.527 461.96 136.727 462.872 138.35 464.495C139.972 466.117 140.885 468.317 140.886 470.612V516.458C140.883 518.748 139.971 520.944 138.352 522.565C136.733 524.186 134.538 525.099 132.247 525.104ZM86.3939 464.814C84.8569 464.816 83.3833 465.427 82.2964 466.514C81.2096 467.601 80.5981 469.075 80.5962 470.612V516.458C80.5981 517.995 81.2096 519.468 82.2964 520.555C83.3833 521.642 84.8569 522.253 86.3939 522.255H132.233C133.77 522.253 135.243 521.642 136.33 520.555C137.417 519.468 138.029 517.995 138.03 516.458V470.605C138.029 469.067 137.417 467.594 136.33 466.507C135.243 465.42 133.77 464.809 132.233 464.807L86.3939 464.814Z" fill="#262626"/>
<path d="M98.9748 488.526C97.5507 488.527 96.1582 488.106 94.9736 487.316C93.7889 486.526 92.8653 485.402 92.3197 484.086C91.7741 482.771 91.631 481.323 91.9085 479.926C92.1859 478.53 92.8715 477.247 93.8785 476.24C94.8855 475.233 96.1685 474.547 97.5653 474.27C98.9621 473.992 100.41 474.135 101.725 474.681C103.041 475.227 104.164 476.15 104.955 477.335C105.745 478.519 106.166 479.912 106.165 481.336C106.163 483.242 105.405 485.07 104.057 486.418C102.709 487.766 100.881 488.524 98.9748 488.526ZM98.9748 476.995C98.1159 476.993 97.2759 477.247 96.561 477.723C95.8462 478.199 95.2887 478.877 94.959 479.67C94.6293 480.463 94.5424 481.336 94.7091 482.178C94.8758 483.021 95.2886 483.795 95.8955 484.403C96.5023 485.011 97.2758 485.425 98.1181 485.593C98.9604 485.761 99.8336 485.676 100.627 485.347C101.421 485.019 102.099 484.463 102.577 483.749C103.054 483.034 103.309 482.195 103.309 481.336C103.309 480.186 102.852 479.083 102.04 478.269C101.227 477.455 100.125 476.997 98.9748 476.995Z" fill="#262626"/>
<path d="M119.681 510.624C118.259 510.624 116.869 510.203 115.686 509.412C114.504 508.622 113.582 507.5 113.038 506.186C112.494 504.872 112.351 503.426 112.629 502.032C112.906 500.637 113.591 499.356 114.597 498.35C115.602 497.345 116.883 496.66 118.278 496.382C119.673 496.105 121.118 496.247 122.432 496.792C123.746 497.336 124.869 498.257 125.659 499.44C126.449 500.622 126.871 502.012 126.871 503.434C126.869 505.341 126.111 507.168 124.763 508.516C123.415 509.864 121.587 510.622 119.681 510.624ZM119.681 499.1C118.824 499.1 117.986 499.354 117.273 499.831C116.56 500.307 116.005 500.984 115.677 501.776C115.349 502.568 115.263 503.439 115.43 504.28C115.597 505.12 116.01 505.893 116.616 506.499C117.222 507.105 117.994 507.518 118.835 507.685C119.676 507.852 120.547 507.766 121.339 507.438C122.131 507.11 122.808 506.555 123.284 505.842C123.76 505.129 124.015 504.291 124.015 503.434C124.017 502.864 123.906 502.299 123.689 501.771C123.472 501.244 123.153 500.764 122.75 500.36C122.348 499.956 121.869 499.636 121.343 499.417C120.816 499.199 120.251 499.086 119.681 499.086V499.1Z" fill="#262626"/>
<path d="M95.6761 514.858C95.424 514.854 95.1777 514.782 94.9621 514.651C94.6388 514.456 94.4062 514.14 94.3152 513.773C94.2242 513.407 94.2823 513.019 94.4766 512.695L118.453 472.889C118.649 472.565 118.966 472.331 119.334 472.24C119.702 472.149 120.091 472.208 120.416 472.404C120.741 472.6 120.975 472.917 121.066 473.285C121.157 473.653 121.098 474.043 120.902 474.367L96.9256 514.166C96.7965 514.381 96.613 514.558 96.3937 514.679C96.1743 514.801 95.9269 514.863 95.6761 514.858Z" fill="#262626"/>
<path d="M641.115 538.22H578.997C574.769 538.217 570.716 536.536 567.727 533.546C564.738 530.557 563.057 526.504 563.053 522.277V399.347C563.061 395.127 564.739 391.082 567.722 388.097C570.705 385.112 574.748 383.429 578.968 383.418H641.086C645.314 383.422 649.367 385.103 652.356 388.092C655.345 391.081 657.026 395.134 657.03 399.362V522.277C657.024 526.499 655.347 530.546 652.364 533.534C649.381 536.522 645.337 538.207 641.115 538.22ZM578.968 386.274C575.498 386.278 572.172 387.658 569.718 390.111C567.264 392.565 565.884 395.892 565.881 399.362V522.277C565.884 525.747 567.264 529.073 569.718 531.527C572.172 533.98 575.498 535.361 578.968 535.364H641.086C644.556 535.361 647.883 533.98 650.336 531.527C652.79 529.073 654.17 525.747 654.174 522.277V399.347C654.166 395.885 652.789 392.566 650.342 390.116C647.895 387.667 644.577 386.285 641.115 386.274H578.968Z" fill="#262626"/>
<path d="M629.013 475.074H591.071C587.419 475.074 584.459 478.034 584.459 481.686V504.598C584.459 508.25 587.419 511.21 591.071 511.21H629.013C632.664 511.21 635.624 508.25 635.624 504.598V481.686C635.624 478.034 632.664 475.074 629.013 475.074Z" fill="#FFE18B"/>
<path d="M634.289 489.461H585.901C585.522 489.461 585.159 489.311 584.891 489.043C584.624 488.775 584.473 488.412 584.473 488.033C584.473 487.654 584.624 487.291 584.891 487.023C585.159 486.756 585.522 486.605 585.901 486.605H634.289C634.668 486.605 635.031 486.756 635.299 487.023C635.566 487.291 635.717 487.654 635.717 488.033C635.717 488.412 635.566 488.775 635.299 489.043C635.031 489.311 634.668 489.461 634.289 489.461Z" fill="#262626"/>
<path d="M600.817 506.754H594.612C593.296 506.705 592.05 506.147 591.136 505.199C590.222 504.25 589.712 502.984 589.712 501.667C589.712 500.35 590.222 499.084 591.136 498.135C592.05 497.187 593.296 496.629 594.612 496.58H600.817C602.133 496.629 603.379 497.187 604.293 498.135C605.206 499.084 605.717 500.35 605.717 501.667C605.717 502.984 605.206 504.25 604.293 505.199C603.379 506.147 602.133 506.705 600.817 506.754ZM594.612 499.436C594.042 499.468 593.506 499.717 593.114 500.132C592.722 500.547 592.504 501.096 592.504 501.667C592.504 502.238 592.722 502.787 593.114 503.202C593.506 503.617 594.042 503.866 594.612 503.898H600.817C601.387 503.866 601.923 503.617 602.315 503.202C602.707 502.787 602.925 502.238 602.925 501.667C602.925 501.096 602.707 500.547 602.315 500.132C601.923 499.717 601.387 499.468 600.817 499.436H594.612Z" fill="#262626"/>
<path d="M631.162 410.986H588.836C585.184 410.986 582.224 413.946 582.224 417.597V440.51C582.224 444.161 585.184 447.121 588.836 447.121H631.162C634.813 447.121 637.773 444.161 637.773 440.51V417.597C637.773 413.946 634.813 410.986 631.162 410.986Z" fill="#F9B800"/>
<path d="M609.999 438.182C608.188 438.182 606.419 437.645 604.913 436.639C603.408 435.633 602.235 434.204 601.542 432.531C600.849 430.859 600.668 429.018 601.021 427.243C601.374 425.467 602.246 423.836 603.526 422.556C604.806 421.276 606.437 420.404 608.213 420.051C609.989 419.698 611.829 419.879 613.502 420.572C615.174 421.264 616.604 422.438 617.61 423.943C618.615 425.448 619.152 427.218 619.152 429.028C619.15 431.455 618.185 433.783 616.469 435.499C614.753 437.215 612.426 438.18 609.999 438.182ZM609.999 422.731C608.753 422.731 607.536 423.1 606.5 423.792C605.464 424.484 604.657 425.468 604.181 426.618C603.704 427.769 603.579 429.035 603.822 430.257C604.065 431.479 604.665 432.601 605.546 433.481C606.426 434.362 607.549 434.962 608.77 435.205C609.992 435.448 611.258 435.323 612.409 434.846C613.559 434.37 614.543 433.563 615.235 432.527C615.927 431.491 616.296 430.274 616.296 429.028C616.294 427.359 615.63 425.758 614.45 424.577C613.269 423.397 611.668 422.733 609.999 422.731Z" fill="#262626"/>
<path d="M587.458 438.182H582.224V435.326H587.458C588.853 435.169 590.142 434.503 591.079 433.456C592.015 432.409 592.532 431.054 592.532 429.649C592.532 428.245 592.015 426.89 591.079 425.843C590.142 424.795 588.853 424.13 587.458 423.973H582.224V421.117H587.458C589.586 421.312 591.564 422.295 593.005 423.874C594.446 425.452 595.244 427.512 595.244 429.649C595.244 431.787 594.446 433.847 593.005 435.425C591.564 437.004 589.586 437.987 587.458 438.182Z" fill="#262626"/>
<path d="M637.859 438.225H632.604C630.468 438.039 628.479 437.059 627.03 435.479C625.581 433.899 624.777 431.833 624.777 429.689C624.777 427.545 625.581 425.479 627.03 423.898C628.479 422.318 630.468 421.338 632.604 421.153H637.838V424.009H632.604C631.202 424.158 629.904 424.821 628.962 425.87C628.019 426.918 627.497 428.279 627.497 429.689C627.497 431.099 628.019 432.459 628.962 433.508C629.904 434.556 631.202 435.219 632.604 435.369H637.838L637.859 438.225Z" fill="#262626"/>
<path d="M647.427 292.604H472.432C466.962 292.589 461.719 290.41 457.851 286.542C453.982 282.675 451.8 277.433 451.783 271.963V164.734C451.799 159.262 453.979 154.019 457.848 150.15C461.717 146.281 466.961 144.1 472.432 144.085H647.427C652.898 144.1 658.142 146.281 662.011 150.15C665.88 154.019 668.06 159.262 668.075 164.734V271.963C668.059 277.433 665.877 282.675 662.008 286.542C658.139 290.41 652.897 292.589 647.427 292.604ZM472.432 146.948C467.718 146.963 463.201 148.843 459.868 152.176C456.534 155.51 454.655 160.027 454.639 164.741V271.963C454.645 276.679 456.522 281.201 459.858 284.535C463.193 287.87 467.716 289.745 472.432 289.748H647.427C652.143 289.745 656.666 287.87 660.001 284.535C663.337 281.201 665.214 276.679 665.219 271.963V164.734C665.204 160.02 663.325 155.503 659.991 152.169C656.658 148.836 652.141 146.956 647.427 146.941L472.432 146.948Z" fill="#262626"/>
<path d="M542.854 172.817H487.919C482.26 172.817 477.673 177.404 477.673 183.062V247.565C477.673 253.224 482.26 257.811 487.919 257.811H542.854C548.513 257.811 553.1 253.224 553.1 247.565V183.062C553.1 177.404 548.513 172.817 542.854 172.817Z" fill="#FFE18B"/>
<path d="M516.814 218.348H513.958V257.818H516.814V218.348Z" fill="#262626"/>
<path d="M586.208 174.602H572.914C570.922 174.602 569.308 176.216 569.308 178.207V191.502C569.308 193.493 570.922 195.108 572.914 195.108H586.208C588.2 195.108 589.814 193.493 589.814 191.502V178.207C589.814 176.216 588.2 174.602 586.208 174.602Z" fill="#F9B800"/>
<path d="M614.968 174.602H601.674C599.682 174.602 598.068 176.216 598.068 178.207V191.502C598.068 193.493 599.682 195.108 601.674 195.108H614.968C616.96 195.108 618.574 193.493 618.574 191.502V178.207C618.574 176.216 616.96 174.602 614.968 174.602Z" fill="#F9B800"/>
<path d="M643.735 174.602H630.441C628.449 174.602 626.835 176.216 626.835 178.207V191.502C626.835 193.493 628.449 195.108 630.441 195.108H643.735C645.727 195.108 647.341 193.493 647.341 191.502V178.207C647.341 176.216 645.727 174.602 643.735 174.602Z" fill="#F9B800"/>
<path d="M647.348 215.214H570.729C570.35 215.214 569.987 215.063 569.719 214.796C569.451 214.528 569.301 214.165 569.301 213.786C569.301 213.407 569.451 213.044 569.719 212.776C569.987 212.508 570.35 212.358 570.729 212.358H647.348C647.727 212.358 648.09 212.508 648.358 212.776C648.626 213.044 648.776 213.407 648.776 213.786C648.776 214.165 648.626 214.528 648.358 214.796C648.09 215.063 647.727 215.214 647.348 215.214Z" fill="#262626"/>
<path d="M647.348 230.329H570.729C570.35 230.329 569.987 230.179 569.719 229.911C569.451 229.643 569.301 229.28 569.301 228.901C569.301 228.523 569.451 228.159 569.719 227.892C569.987 227.624 570.35 227.473 570.729 227.473H647.348C647.727 227.473 648.09 227.624 648.358 227.892C648.626 228.159 648.776 228.523 648.776 228.901C648.776 229.28 648.626 229.643 648.358 229.911C648.09 230.179 647.727 230.329 647.348 230.329Z" fill="#262626"/>
<path d="M620.68 245.445H570.7C570.321 245.445 569.958 245.294 569.69 245.026C569.423 244.759 569.272 244.395 569.272 244.017C569.272 243.638 569.423 243.275 569.69 243.007C569.958 242.739 570.321 242.589 570.7 242.589H620.68C621.059 242.589 621.422 242.739 621.69 243.007C621.958 243.275 622.108 243.638 622.108 244.017C622.108 244.395 621.958 244.759 621.69 245.026C621.422 245.294 621.059 245.445 620.68 245.445Z" fill="#262626"/>
<path d="M529.609 218.348H500.992C500.693 218.348 500.396 218.289 500.119 218.174C499.842 218.059 499.591 217.891 499.379 217.679C499.168 217.466 499 217.214 498.886 216.937C498.772 216.66 498.714 216.363 498.715 216.063V201.591C498.715 201.248 498.851 200.919 499.093 200.677C499.335 200.435 499.664 200.298 500.007 200.298H530.588C530.758 200.297 530.927 200.33 531.084 200.395C531.242 200.459 531.385 200.554 531.506 200.674C531.627 200.794 531.723 200.937 531.788 201.094C531.853 201.252 531.887 201.42 531.887 201.591V216.063C531.888 216.363 531.83 216.66 531.716 216.937C531.602 217.214 531.434 217.466 531.222 217.679C531.011 217.891 530.759 218.059 530.483 218.174C530.206 218.289 529.909 218.348 529.609 218.348Z" fill="#FFBB45"/>
<path d="M515.301 205.482C524.461 205.482 531.887 203.161 531.887 200.298C531.887 197.436 524.461 195.115 515.301 195.115C506.141 195.115 498.715 197.436 498.715 200.298C498.715 203.161 506.141 205.482 515.301 205.482Z" fill="#262626"/>
<path d="M401.689 494.566H256.033C255.654 494.566 255.291 494.416 255.023 494.148C254.756 493.88 254.605 493.517 254.605 493.138C254.605 492.76 254.756 492.396 255.023 492.129C255.291 491.861 255.654 491.71 256.033 491.71H401.689C402.068 491.71 402.431 491.861 402.699 492.129C402.967 492.396 403.117 492.76 403.117 493.138C403.117 493.517 402.967 493.88 402.699 494.148C402.431 494.416 402.068 494.566 401.689 494.566Z" fill="white"/>
</svg>
