<svg width="151" height="130" viewBox="0 0 151 130" fill="none" xmlns="http://www.w3.org/2000/svg">
<g clip-path="url(#clip0_40_262)">
<mask id="mask0_40_262" style="mask-type:luminance" maskUnits="userSpaceOnUse" x="10" y="0" width="131" height="130">
<path d="M140.984 0H10.9844V130H140.984V0Z" fill="white"/>
</mask>
<g mask="url(#mask0_40_262)">
<path d="M65.5923 118.597C65.1891 118.516 64.8172 118.281 64.5698 117.909L23.1515 55.6654C22.911 55.304 22.8236 54.8594 22.9094 54.4311C22.9952 54.0028 23.2467 53.6261 23.6083 53.3855L85.8079 11.9012C86.553 11.4048 87.5522 11.6076 88.0436 12.3551L128.933 74.4927C129.427 75.2431 129.224 76.259 128.479 76.761L66.8079 118.351C66.4359 118.603 65.9978 118.678 65.5923 118.597ZM26.7501 55.2006L66.3612 114.729L125.342 74.953L86.236 15.5261L26.7501 55.2006Z" fill="#FF734F"/>
<path d="M50.0676 112.623C49.7871 112.624 49.5093 112.551 49.262 112.409C48.8891 112.194 48.6155 111.838 48.502 111.421L28.8437 38.9617C28.7301 38.5417 28.7863 38.0928 29.0008 37.7148C29.2151 37.3366 29.5701 37.0612 29.9863 36.9485L101.63 17.6175C102.488 17.3865 103.37 17.8969 103.606 18.7625L123.263 90.6757C123.377 91.0947 123.322 91.5419 123.11 91.9195C122.898 92.297 122.546 92.5737 122.132 92.6885L50.49 112.565C50.3511 112.604 50.2094 112.623 50.0676 112.623ZM32.3945 39.6842L51.1937 108.977L119.713 89.9665L100.915 21.1956L32.3945 39.6842Z" fill="#FF734F"/>
<path d="M76.3238 85.8141C75.9172 85.8141 75.5102 85.6602 75.1964 85.3511L55.7864 66.2655C55.4729 65.9574 55.2961 65.5341 55.2961 65.0924C55.2961 64.6506 55.4729 64.2276 55.7864 63.9193L75.1964 44.8339C75.83 44.2095 76.8425 44.2175 77.4675 44.8501L96.3383 63.9359C96.9702 64.5745 96.9702 65.6106 96.3383 66.2493L77.4675 85.3349C77.1519 85.6544 76.7379 85.8141 76.3238 85.8141ZM59.2343 65.0926L76.3082 81.8808L92.9077 65.0926L76.3082 48.3042L59.2343 65.0926Z" fill="#FF734F"/>
</g>
</g>
<defs>
<clipPath id="clip0_40_262">
<rect width="150" height="130" fill="white" transform="translate(0.984375)"/>
</clipPath>
</defs>
</svg>
