<svg width="151" height="130" viewBox="0 0 151 130" fill="none" xmlns="http://www.w3.org/2000/svg">
<g clip-path="url(#clip0_40_278)">
<mask id="mask0_40_278" style="mask-type:luminance" maskUnits="userSpaceOnUse" x="10" y="0" width="131" height="130">
<path d="M140.328 0H10.3281V130H140.328V0Z" fill="white"/>
</mask>
<g mask="url(#mask0_40_278)">
<path d="M93.7413 97.1464L85.5982 93.4692C85.0986 93.2435 84.5106 93.4661 84.2851 93.9657C84.0594 94.4653 84.2816 95.0529 84.7814 95.2787L90.5561 97.8862C89.9458 98.0569 89.2322 98.2432 88.4292 98.4305C85.5658 99.098 81.5762 99.7778 77.0681 99.8288C68.0518 99.93 57.0555 97.5228 48.758 87.5781C40.4386 77.6077 39.7292 66.9737 41.108 58.7852C41.7984 54.6848 43.0125 51.2067 44.0544 48.754C44.5749 47.5287 45.0512 46.5625 45.3952 45.906C45.5672 45.5778 45.7059 45.3274 45.8006 45.161C45.8478 45.0777 45.8841 45.0154 45.9079 44.9751C45.9197 44.9549 45.9286 44.9402 45.934 44.931C45.9368 44.9264 45.9387 44.9233 45.9398 44.9215C45.9404 44.9206 45.9407 44.92 45.9408 44.9198C45.9407 44.92 45.9405 44.9202 45.0928 44.4036C44.2451 43.887 44.2448 43.8876 44.2445 43.8881C44.2443 43.8884 44.2438 43.8891 44.2435 43.8898C44.2428 43.891 44.2418 43.8925 44.2406 43.8945C44.2383 43.8984 44.2352 43.9036 44.2311 43.9103C44.2231 43.9237 44.2117 43.9425 44.1973 43.9671C44.1683 44.0163 44.1268 44.0875 44.0743 44.18C43.9692 44.365 43.8196 44.6351 43.6365 44.9844C43.2707 45.6826 42.7708 46.6975 42.227 47.9776C41.1402 50.5359 39.8724 54.166 39.1501 58.4555C37.7035 67.0466 38.4456 78.3178 47.2335 88.8504C56.0433 99.4087 67.7153 101.92 77.0906 101.814C81.7785 101.761 85.9154 101.056 88.8801 100.364C89.9023 100.126 90.7868 99.8883 91.5082 99.6795L88.7512 105.785C88.5255 106.285 88.7472 106.873 89.2475 107.098C89.7471 107.324 90.3348 107.102 90.5604 106.603L94.2376 98.4595C94.4627 97.9599 94.2409 97.3722 93.7413 97.1464Z" fill="#F86642"/>
<path d="M111.892 69.0019C112.959 60.3555 111.723 49.1277 102.481 38.9912C93.2165 28.8298 81.4454 26.8339 72.0839 27.3511C67.4029 27.6098 63.3006 28.4964 60.3695 29.3172C59.3586 29.6004 58.4857 29.8759 57.7741 30.1163L60.2603 23.8955C60.4637 23.3865 60.216 22.8087 59.707 22.6052C59.1978 22.4018 58.6201 22.6496 58.4166 23.1586L55.1008 31.4551C54.8973 31.9642 55.1451 32.5419 55.6543 32.7454L63.9507 36.0612C64.4598 36.2646 65.0373 36.0168 65.2409 35.5078C65.4444 34.9987 65.1966 34.421 64.6875 34.2175L58.8041 31.8661C59.4063 31.6689 60.1107 31.4516 60.9049 31.2291C63.7362 30.4362 67.6921 29.5822 72.1935 29.3335C81.1967 28.8361 92.2881 30.7584 101.014 40.3291C109.764 49.9249 110.939 60.5174 109.921 68.7585C109.411 72.8852 108.351 76.4133 107.418 78.9094C106.952 80.1564 106.518 81.1424 106.203 81.8135C106.046 82.1487 105.919 82.4051 105.831 82.5756C105.788 82.6609 105.754 82.7244 105.732 82.7662C105.721 82.7866 105.713 82.802 105.708 82.8112C105.705 82.8161 105.703 82.8192 105.702 82.821C105.702 82.8217 105.701 82.8222 105.701 82.8228C105.701 82.8222 105.702 82.8222 106.571 83.3008C107.441 83.7801 107.441 83.7797 107.442 83.779C107.442 83.7784 107.442 83.7776 107.443 83.7771C107.443 83.7758 107.444 83.7747 107.445 83.7722C107.447 83.7685 107.45 83.763 107.454 83.7563C107.461 83.7427 107.472 83.7229 107.485 83.6977C107.512 83.6478 107.55 83.5744 107.599 83.4799C107.696 83.2902 107.833 83.014 108.001 82.6571C108.336 81.9437 108.79 80.9076 109.277 79.6047C110.251 77.0013 111.358 73.3189 111.892 69.0019Z" fill="#F86642"/>
</g>
</g>
<defs>
<clipPath id="clip0_40_278">
<rect width="150" height="130" fill="white" transform="translate(0.328125)"/>
</clipPath>
</defs>
</svg>
